<svg id="Layer_1" data-name="Layer 1" xmlns="http://www.w3.org/2000/svg" width="50.12" height="66.84" viewBox="0 0 50.12 66.84"><defs><style>.cls-1{fill:#ffc44d;}.cls-2{fill:#ed5565;}.cls-3{fill:#da4453;}.cls-4,.cls-6,.cls-9{fill:none;stroke-miterlimit:10;}.cls-4{stroke:#050401;stroke-width:4px;}.cls-5{fill:#050401;}.cls-6{stroke:#050505;stroke-width:3px;}.cls-7{fill:#e5b045;}.cls-8{fill:#ffd071;}.cls-9{stroke:#e5b045;stroke-width:5px;}</style></defs><title>Artboard 17</title><path class="cls-1" d="M48,44.24c-1.41,9.95-9.08,17.27-20.46,19.64C14.7,66.57-.54,54.19,7.09,44.24c7.17-9.35,17.57-18.8,20.45-19.65C43.06,20.05,49.42,34.18,48,44.24Z"/><rect class="cls-2" x="24.94" y="21.39" width="17.04" height="3.66" rx="1.73"/><path class="cls-1" d="M1.51,43.75C.09,40.89-.37,37.41.31,37.9c.49.35,1.59,4.23,3.91,4.51,3.17.38,2,5.48,1.2,5.85S2.92,46.61,1.51,43.75Z"/><path class="cls-1" d="M26.65,21.32,24,20.45c-.8.7-1.8-5.75,0-6.39,1-.36,3.29-3.9,3.29-3.9-.46-2.44-.44-4.72,1-6.5.3-.91,1.32-1.49,3.09-1.74.92-.45,1.94-.27,3.19,1.41l3,2.82c.89.85,2.53.76,4.45.32L44,5.5c1.15-1.17,2.42-1,3.77,0,1.14,1.2,0,3.47,0,3.47a10,10,0,0,1-1.93,3.57l-2.23.54c-3.19.8-7.1.61-11.31,0v1.74a21.84,21.84,0,0,0,7.35,5.09l2.71.33-.87,1.08Z"/><path class="cls-1" d="M17.19,11.67c.81,3,4.33,7,6.66-.69,1-3.31,5.13-3.76,4.55-4.93s-3.57-.86-6.67.69S16.84,10.4,17.19,11.67Z"/><path class="cls-1" d="M41,.33c-.26-.73-4.12,0-4.12,0S33.66,2.17,33.72,3c0,.4,1.21-.53,4.12,0C39.94,3.36,41.27,1.06,41,.33Z"/><path class="cls-3" d="M42,20.19l1.34.57,1,2.95A3.22,3.22,0,0,0,46.73,25c1.54-.35,1.91-1.41,2.4-2.4a8.72,8.72,0,0,0-2.05-2.46,11.38,11.38,0,0,0-3-2.19,7.34,7.34,0,0,0-4.51,1.91Z"/><path class="cls-4" d="M31.73,6.43a7,7,0,0,1-1.9-.3"/><path class="cls-4" d="M33.76,4.17c0,.6-.49.91-.73,1.26"/><ellipse class="cls-5" cx="46.03" cy="5.34" rx="0.7" ry="1.44" transform="translate(35.83 50.53) rotate(-83.9)"/><path class="cls-6" d="M29,4.77c0-.8.36-1.16,1.41-.84"/><path class="cls-6" d="M31.7,3.5c0-.8.36-1.16,1.41-.84"/><path class="cls-7" d="M45.56,31.08,30.43,63.15a30.3,30.3,0,0,0,5.2-2.09c2.43-1.3,4.48-2.66,4.84-3.22a18,18,0,0,0,4.47-5.14A21.22,21.22,0,0,0,48.21,44a28.38,28.38,0,0,0-.43-6.78A15.78,15.78,0,0,0,45.56,31.08Z"/><path class="cls-1" d="M29.83,47.13c1.58,7,3.37,16.1,4.44,17.81a11.86,11.86,0,0,0,5.07,0,3.86,3.86,0,0,0,.21-1.76l-.21-1.27a1.83,1.83,0,0,0-2-.14L33.42,47.13"/><path class="cls-1" d="M42.83,55.61c.29,3,.59,6,1.51,7.57,1.14.94,3.38.71,5.42,0a3.33,3.33,0,0,0,0-3A6,6,0,0,0,46.31,60L46,52.1V50.85"/><ellipse class="cls-8" cx="41.96" cy="24.69" rx="1.46" ry="1.44" transform="translate(-4.96 37.67) rotate(-45.94)"/><path class="cls-9" d="M13.35,53.11c2.15-3.32,6.53-3.81,8.88-1.83s2.6,6.5-.65,9.15a12.14,12.14,0,0,1,5.23,0,1.5,1.5,0,0,1,1.61,1,2,2,0,0,1-.91,2.39,8.6,8.6,0,0,1-3.86.44,5.28,5.28,0,0,1-3.33-.45"/></svg>