<svg id="Layer_1" data-name="Layer 1" xmlns="http://www.w3.org/2000/svg" width="280.87" height="99.77" viewBox="0 0 280.87 99.77"><defs><style>.cls-1{fill:#f7f7f7;stroke:#3f63ab;stroke-width:15px;}.cls-1,.cls-2{stroke-miterlimit:10;}.cls-2{fill:#dadfe1;stroke:#00708e;stroke-width:2px;}.cls-3{fill:#4fc1e9;}.cls-4{fill:#e6e9ed;}.cls-5{fill:#f5f7fa;}</style></defs><title>Artboard 20</title><rect class="cls-1" x="7.54" y="8.03" width="265.8" height="83.72" rx="34.75" transform="translate(-0.27 0.75) rotate(-0.31)"/><rect class="cls-2" x="95.06" y="24.67" width="153.85" height="49.95" rx="20.73" transform="translate(-0.26 0.92) rotate(-0.31)"/><circle class="cls-3" cx="58.32" cy="45.97" r="25.83"/><path class="cls-4" d="M51,41.31l.08,14c.5-.7,15.43,1.65,16.68,1.64a2.06,2.06,0,0,0,1.75-1.36,2.14,2.14,0,0,0-.52-2.8c1.53-.9,1.92-1.8,1.66-2.72l-1-2c1.55-1.37,1-3.73,1-3.73s-2.39-1.68-1.18-.84,2-2.3,1.16-2.3a18.34,18.34,0,0,0-9.78.06L63,31.46a2.61,2.61,0,0,0-2.27-2.7,3.43,3.43,0,0,0-3.17,1.71c.29.41-1.6,8-4.63,10.7Z"/><rect class="cls-5" x="43.65" y="38.92" width="7.31" height="18.06" transform="translate(-0.26 0.25) rotate(-0.31)"/></svg>