<svg id="Layer_1" data-name="Layer 1" xmlns="http://www.w3.org/2000/svg" width="1334" height="750" viewBox="0 0 1334 750"><defs><style>.cls-1{fill:#4fc1e9;stroke:#000;}.cls-1,.cls-13,.cls-14,.cls-15,.cls-3,.cls-5,.cls-6{stroke-miterlimit:10;}.cls-2{fill:#3bafda;}.cls-3{fill:#ffce54;stroke:#ddad28;stroke-width:10px;}.cls-4{fill:#efac71;}.cls-5{fill:#c17e3d;}.cls-5,.cls-6{stroke:#c17e3d;stroke-width:3px;}.cls-15,.cls-6{fill:none;}.cls-7{fill:#dadfe1;}.cls-8{fill:#d87a45;}.cls-9{fill:#25a53a;}.cls-10{fill:#ededed;}.cls-11{fill:#afacac;}.cls-12{fill:#fff;}.cls-13{fill:#e8e7e6;}.cls-13,.cls-14{stroke:#2d1a08;}.cls-14{fill:#a5805e;}.cls-15{stroke:#fff;stroke-width:12px;}</style></defs><title>Artboard 1 copy</title><rect class="cls-1" x="0.5" y="0.5" width="1334" height="750"/><path class="cls-2" d="M1408,336c-1-29-9-58-17-88-1-5,1-9,0-14-1-4-4-6-5-10-1-5,1-10,0-15-10-38-19-74-23-112-3.06-28.19-3.12-56-2.71-83.91l-22.65-13L660.32,381-17,762l1350.84,6.67,71.84.36a60.11,60.11,0,0,0,2.32-13C1415,616,1414,476,1408,336Z"/><rect class="cls-1" x="0.5" y="0.5" width="1334" height="750"/><path class="cls-2" d="M1408,336c-1-29-9-58-17-88-1-5,1-9,0-14-1-4-4-6-5-10-1-5,1-10,0-15-10-38-19-74-23-112-3.06-28.19-3.12-56-2.71-83.91l-22.65-13L660.32,381-17,762l1350.84,6.67,71.84.36a60.11,60.11,0,0,0,2.32-13C1415,616,1414,476,1408,336Z"/><path class="cls-3" d="M308.85,229.75,341,221,353,274l23.78-8.91,4.18,36.39L332.23,314Z"/><path class="cls-3" d="M395.27,204.48l28.91,78-34.05,17.09L367.49,215Z"/><path class="cls-3" d="M437,219.33l9-33.6,41.19-3.44L463.08,231l35.34,12.06-24.32,31L449.23,254.5l7.13,17-29.72,13.17L407,200.13l22.58-2.72Z"/><path class="cls-3" d="M552.52,159.89l7.5,34.57-35.32,9.82.73,3,20-5.75L550.34,225l-19.74,5.28.6,2.93,34.2-8.33,11,29.42-73.06,14.63-7.07-88.39Z"/><path class="cls-3" d="M659,191.94l-1.29-17.88L685.91,164,706,239.38l-43.28,6.81-1.8-26-18.72-1.07L641,248.05l-29.65-10.79,6.94-69,26.59,3.16-1,19.77Z"/><path class="cls-3" d="M708.8,162.54,744,170.29q-7.86,22.26-8.14,34.15-.32,13.35,8.82,13.81,14.52.23,15.07-22.5a134.11,134.11,0,0,0-2.55-26.14L790,160.07a190.69,190.69,0,0,1,2,30.17q-1.34,56.06-48,55.54-42.93-1.42-41.89-45.31Q702.48,184.38,708.8,162.54Z"/><path class="cls-3" d="M828.81,216.88l1.61,26.17-34.12,4.8,2.62-81.41,32.82-2.06,22.16,37.15L858,167.62l41,.31L875.71,255.8l-26.33.94Z"/><path class="cls-3" d="M949.42,211.55l-6.37,48.89-37.25,2.44,16.63-58.4L899.27,198l6.92-24.63,72,9.19-4,36.41Z"/><path class="cls-3" d="M1047.78,193.38l-7,34.69-36.3-5.13-.52,3,20.64,2.74-4.91,23.48-20.2-3-.62,2.92,34.68,6L1032,289.46l-72.82-15.81L988,189.81Z"/><path class="cls-3" d="M1069.05,296.05l-36.88-6.51,35.26-85.33q73.53,30.06,68,55.88c-.38,1.65-.8,3.21-1.29,4.7q-6.86,21.12-31.25,21.26l17.13,18L1086,318.86l-13.92-36.38Zm14-55.79-3,11.05q24.06,7.83,25.24,4.21Q1106.53,251.66,1083,240.26Z"/><polygon class="cls-4" points="1285 750 81 750 286.82 568 1112.81 568 1285 750"/><line class="cls-5" x1="236.89" y1="612" x2="1151.22" y2="608"/><line class="cls-5" x1="177.19" y1="661.5" x2="1197.1" y2="657.5"/><line class="cls-5" x1="124.12" y1="710.5" x2="1231.38" y2="706.5"/><line class="cls-6" x1="637.37" y1="568.32" x2="629.12" y2="611.18"/><line class="cls-6" x1="579.07" y1="610.5" x2="579.07" y2="659"/><line class="cls-6" x1="736.07" y1="659.5" x2="736.07" y2="708"/><line class="cls-6" x1="438.33" y1="710.64" x2="423.52" y2="748.86"/><line class="cls-6" x1="384.28" y1="660.21" x2="371.43" y2="707.29"/><line class="cls-6" x1="914.18" y1="567.61" x2="909.54" y2="607.39"/><line class="cls-6" x1="948.52" y1="610.86" x2="939.32" y2="658.64"/><line class="cls-6" x1="870.51" y1="708.81" x2="862.55" y2="750.19"/><path class="cls-7" d="M811.11,733H533.21c-13.2,0-22-15.69-16.58-29.55l40.26-102.94c2.93-7.48,9.37-12.3,16.49-12.34L770.66,587c7.21,0,13.76,4.82,16.7,12.41l40.36,104.11C833.09,717.37,824.29,733,811.11,733Z"/><path class="cls-8" d="M893.08,624.6h-51.8a9.48,9.48,0,0,1-9.44-8.67l-6.5-77.41a9.46,9.46,0,0,1,9.43-10.26h63.51a9.48,9.48,0,0,1,9.45,10.1l-5.21,77.41A9.46,9.46,0,0,1,893.08,624.6Z"/><rect class="cls-8" x="818" y="515.31" width="97.15" height="21.59" rx="10.79"/><circle class="cls-9" cx="827.18" cy="506.67" r="5.94"/><circle class="cls-9" cx="831.22" cy="512.61" r="5.94"/><circle class="cls-9" cx="839.05" cy="512.61" r="5.94"/><circle class="cls-9" cx="871.7" cy="511.8" r="5.94"/><circle class="cls-9" cx="877.64" cy="512.61" r="5.94"/><circle class="cls-9" cx="862.8" cy="505.86" r="5.94"/><circle class="cls-9" cx="862.8" cy="511.8" r="5.94"/><circle class="cls-9" cx="856.86" cy="511.8" r="5.94"/><circle class="cls-9" cx="844.99" cy="505.86" r="5.94"/><circle class="cls-9" cx="850.92" cy="511.8" r="5.94"/><circle class="cls-9" cx="837.16" cy="503.43" r="5.94"/><circle class="cls-9" cx="844.99" cy="511.8" r="5.94"/><circle class="cls-9" cx="883.58" cy="511.8" r="5.94"/><circle class="cls-9" cx="889.51" cy="511.8" r="5.94"/><circle class="cls-9" cx="895.45" cy="511.8" r="5.94"/><circle class="cls-9" cx="877.64" cy="505.86" r="5.94"/><circle class="cls-9" cx="904.63" cy="511.8" r="5.94"/><circle class="cls-9" cx="851.46" cy="500.73" r="5.94"/><circle class="cls-9" cx="889.51" cy="505.86" r="5.94"/><circle class="cls-9" cx="904.63" cy="503.43" r="5.94"/><circle class="cls-9" cx="910.56" cy="506.67" r="5.94"/><circle class="cls-9" cx="870.35" cy="500.73" r="5.94"/><circle class="cls-9" cx="831.22" cy="497.5" r="5.94"/><circle class="cls-9" cx="883.58" cy="500.73" r="5.94"/><circle class="cls-9" cx="892.75" cy="503.43" r="5.94"/><circle class="cls-9" cx="843.1" cy="497.5" r="5.94"/><circle class="cls-9" cx="860.37" cy="502.08" r="5.94"/><circle class="cls-9" cx="877.64" cy="496.96" r="5.94"/><circle class="cls-9" cx="857.4" cy="506.67" r="5.94"/><circle class="cls-9" cx="898.69" cy="500.73" r="5.94"/><circle class="cls-9" cx="860.37" cy="496.15" r="5.94"/><circle class="cls-9" cx="895.45" cy="494.8" r="5.94"/><circle class="cls-9" cx="901.39" cy="505.86" r="5.94"/><circle class="cls-9" cx="907.87" cy="499.92" r="5.94"/><path class="cls-8" d="M938.88,681.92H894.39a8.13,8.13,0,0,1-8.1-7.45L880.7,608a8.14,8.14,0,0,1,8.11-8.82h54.54a8.13,8.13,0,0,1,8.11,8.68L947,674.34A8.12,8.12,0,0,1,938.88,681.92Z"/><rect class="cls-8" x="874.4" y="588.05" width="83.44" height="18.54" rx="9.27"/><circle class="cls-9" cx="882.28" cy="580.63" r="5.1"/><circle class="cls-9" cx="885.76" cy="585.73" r="5.1"/><circle class="cls-9" cx="892.48" cy="585.73" r="5.1"/><circle class="cls-9" cx="920.52" cy="585.04" r="5.1"/><circle class="cls-9" cx="925.62" cy="585.73" r="5.1"/><circle class="cls-9" cx="912.88" cy="579.94" r="5.1"/><circle class="cls-9" cx="912.88" cy="585.04" r="5.1"/><circle class="cls-9" cx="907.78" cy="585.04" r="5.1"/><circle class="cls-9" cx="897.58" cy="579.94" r="5.1"/><circle class="cls-9" cx="902.68" cy="585.04" r="5.1"/><circle class="cls-9" cx="890.86" cy="577.85" r="5.1"/><circle class="cls-9" cx="897.58" cy="585.04" r="5.1"/><circle class="cls-9" cx="930.72" cy="585.04" r="5.1"/><circle class="cls-9" cx="935.82" cy="585.04" r="5.1"/><circle class="cls-9" cx="940.92" cy="585.04" r="5.1"/><circle class="cls-9" cx="925.62" cy="579.94" r="5.1"/><circle class="cls-9" cx="948.8" cy="585.04" r="5.1"/><circle class="cls-9" cx="903.14" cy="575.53" r="5.1"/><circle class="cls-9" cx="935.82" cy="579.94" r="5.1"/><circle class="cls-9" cx="948.8" cy="577.85" r="5.1"/><circle class="cls-9" cx="953.9" cy="580.63" r="5.1"/><circle class="cls-9" cx="919.37" cy="575.53" r="5.1"/><circle class="cls-9" cx="885.76" cy="572.75" r="5.1"/><circle class="cls-9" cx="930.72" cy="575.53" r="5.1"/><circle class="cls-9" cx="938.6" cy="577.85" r="5.1"/><circle class="cls-9" cx="895.96" cy="572.75" r="5.1"/><circle class="cls-9" cx="910.79" cy="576.69" r="5.1"/><circle class="cls-9" cx="925.62" cy="572.29" r="5.1"/><circle class="cls-9" cx="908.24" cy="580.63" r="5.1"/><circle class="cls-9" cx="943.7" cy="575.53" r="5.1"/><circle class="cls-9" cx="910.79" cy="571.59" r="5.1"/><circle class="cls-9" cx="940.92" cy="570.43" r="5.1"/><circle class="cls-9" cx="946.02" cy="579.94" r="5.1"/><circle class="cls-9" cx="951.58" cy="574.84" r="5.1"/><ellipse class="cls-10" cx="443" cy="677.21" rx="70" ry="18.79"/><ellipse class="cls-11" cx="441.05" cy="677.43" rx="47.13" ry="8.31"/><path class="cls-12" d="M455.33,685.83l-24.66-.18c-5.58,0-29.69-8-29.69-14.13v-31.3c0-6.16,8.47-9.3,14-9.3h53.1c5.59,0,16.89,3.14,16.89,9.3l-.17,30.94C484.85,677.32,460.91,685.83,455.33,685.83Z"/><ellipse class="cls-13" cx="443.07" cy="636.7" rx="41.62" ry="11.09"/><ellipse class="cls-14" cx="442.51" cy="642.27" rx="32.93" ry="5.52"/><path class="cls-15" d="M484.61,645.92c9.28-.18,16.9,4.7,17,10.91s-7.3,11.38-16.57,11.56Z"/></svg>