<svg id="Layer_1" data-name="Layer 1" xmlns="http://www.w3.org/2000/svg" width="668.29" height="205.35" viewBox="0 0 668.29 205.35"><defs><style>.cls-1{fill:none;stroke:#000;stroke-miterlimit:10;stroke-width:5px;}</style></defs><title>back to game knap</title><path d="M174,81.7l.76-26.41q7.68-3.12,12.91-3.12a10.35,10.35,0,0,1,7.56,2.67q2.72,2.67,2.71,5.18c0,1.82-1.06,3.58-3.2,5.27q6.78,2.08,6.78,6.5a8.76,8.76,0,0,1-1.1,3.93q-3.16,6.23-19.31,6.23Q177.83,82,174,81.7Zm8.88-19.22q4.63-.87,4.63-2.4V60c0-.6-.54-.9-1.54-.9a13.22,13.22,0,0,0-3.24.55Zm1,11.72q7.51-.32,7.56-2.39t-7-1.93h-.82Z"/><path d="M211.58,77.75l-1.51,4.32L200,78.88l11.18-25.82,8.22-.58L231.46,77,221,82,219,76.34ZM216.87,68l-1.33-4.27L214,68.49Z"/><path d="M258.2,77.07q-7.55,4.67-13.85,4.67a14.53,14.53,0,0,1-10.79-4.56,15.72,15.72,0,0,1,0-21.94,15.07,15.07,0,0,1,21.57,0A17.09,17.09,0,0,1,258.78,61l-10,3a7,7,0,0,0-1.56-2.83,5.46,5.46,0,0,0-7.85,0,5.73,5.73,0,0,0,0,8,5.31,5.31,0,0,0,3.92,1.67q3.81.25,8.85-3.28Z"/><path d="M268,61.44l5.45-10.23,13.63,2-11.48,14,10.56,6.59L276,82l-6.6-8.22,1,6-10.64,2V53l7.54.82Z"/><path d="M317.12,62.79l.94,16.41L306,82.3l1.84-20.15-8-.69L300.6,53l24.16-1.45,1,12.17Z"/><path d="M342.47,81.74a17.36,17.36,0,0,1-11.72-4.19,13,13,0,0,1,0-20.34,18.47,18.47,0,0,1,23.43,0,13,13,0,0,1,0,20.34A17.37,17.37,0,0,1,342.47,81.74Zm3.26-11.44a4.62,4.62,0,0,0,0-7.29A7,7,0,0,0,337,63a4.61,4.61,0,0,0,0,7.29,7,7,0,0,0,8.71,0Z"/><path d="M400.25,65.29l.51,16-11.25,3.22.17-3.09a12.5,12.5,0,0,1-3.28.32,14.22,14.22,0,0,1-10.32-4.2,14.18,14.18,0,0,1,0-20.32,14.79,14.79,0,0,1,20.65,0l-7.58,5.53a5.37,5.37,0,0,0-7.49,0,5,5,0,0,0-1.55,3.65,5.14,5.14,0,0,0,1.46,4.31A5.56,5.56,0,0,0,385.86,72a6.79,6.79,0,0,0,4.27-1.61l-4.08.27.27-4.47Z"/><path d="M413.29,77.75l-1.5,4.32-10.06-3.19L412.9,53.06l8.23-.58L433.18,77l-10.43,5-2.07-5.65Zm5.3-9.71-1.33-4.27-1.56,4.72Z"/><path d="M466.77,53.06l1.72,27-11.33,1-.43-10.7-6.48,7-5.94-6,.45,8.39-10.61,2.17,1.31-28.79,10.1-1.35,4.65,12.09,5.41-11.58Z"/><path d="M491.56,49.37l.58,11.78L480,62.46l.08,1,6.9-.8.33,8-6.78.67,0,1,11.7-.88,2,10.28-24.82.84L472,53.1Z"/><rect class="cls-1" x="156.1" y="2.5" width="356" height="127" rx="45"/></svg>