<svg id="Layer_1" data-name="Layer 1" xmlns="http://www.w3.org/2000/svg" width="2208" height="1242" viewBox="0 0 2208 1242"><defs><style>.cls-1{fill:#4fc1e9;}.cls-2{fill:#3bafda;}.cls-3{fill:#efac71;}.cls-4{fill:#c17e3d;}.cls-4,.cls-5{stroke:#c17e3d;stroke-width:3px;}.cls-18,.cls-19,.cls-20,.cls-4,.cls-5{stroke-miterlimit:10;}.cls-20,.cls-5{fill:none;}.cls-6{fill:#dadfe1;}.cls-7{fill:#0a0f11;}.cls-8{fill:#435054;}.cls-9{fill:#3f63ab;}.cls-10{fill:#e9ebee;}.cls-11{fill:#fff;}.cls-12{fill:#1b2a4a;}.cls-13{fill:#020202;}.cls-14{fill:#d87a45;}.cls-15{fill:#25a53a;}.cls-16{fill:#ededed;}.cls-17{fill:#afacac;}.cls-18{fill:#e8e7e6;}.cls-18,.cls-19{stroke:#2d1a08;}.cls-19{fill:#a5805e;}.cls-20{stroke:#fff;stroke-width:15px;}</style></defs><title>baggrund</title><rect class="cls-1" x="-0.5" y="0.5" width="2208" height="1242"/><polygon class="cls-2" points="4386.29 1263.66 2193.14 1252.83 0 1242 1099.67 620.94 2199.34 -0.11 3292.81 631.77 4386.29 1263.66"/><polygon class="cls-3" points="3105 1263.43 -819 1263.43 -148.19 712.18 2543.8 712.18 3105 1263.43"/><line class="cls-4" x1="-310.93" y1="845.45" x2="2669" y2="833.33"/><line class="cls-4" x1="-505.51" y1="995.37" x2="2818.54" y2="983.26"/><line class="cls-4" x1="-678.47" y1="1143.78" x2="2930.24" y2="1131.67"/><line class="cls-5" x1="994.3" y1="713.16" x2="967.4" y2="842.96"/><line class="cls-5" x1="804.29" y1="840.9" x2="804.29" y2="987.8"/><line class="cls-5" x1="1315.96" y1="989.32" x2="1315.96" y2="1136.22"/><line class="cls-5" x1="345.57" y1="1144.21" x2="297.32" y2="1259.98"/><line class="cls-5" x1="169.43" y1="991.46" x2="127.54" y2="1134.08"/><line class="cls-5" x1="1896.46" y1="711" x2="1881.31" y2="831.48"/><line class="cls-5" x1="2008.37" y1="841.99" x2="1978.39" y2="986.71"/><line class="cls-5" x1="1754.13" y1="1138.68" x2="1728.16" y2="1264"/><path class="cls-6" d="M2122.4,1577h-1982c-48.53,0-77.53-54-50.7-94.47l260.58-392.71a132.45,132.45,0,0,1,110-59.23l1422.55-4.48a60.82,60.82,0,0,1,53.32,31.2l239.44,429.22C2198.15,1527.08,2168.83,1577,2122.4,1577Z"/><rect class="cls-6" x="338.93" y="100.98" width="1631.73" height="944.85" rx="51.27"/><rect class="cls-7" x="339" y="968" width="1621" height="77" rx="19"/><rect class="cls-7" x="339" y="101" width="48" height="905" rx="24"/><rect class="cls-7" x="339" y="101" width="1621" height="77" rx="19"/><circle class="cls-8" cx="1149" cy="139" r="10"/><rect class="cls-9" x="387" y="178" width="1536" height="75"/><rect class="cls-10" x="387" y="253" width="1536" height="715"/><rect class="cls-11" x="781" y="299" width="756" height="154"/><rect class="cls-11" x="781" y="494" width="756" height="474"/><rect class="cls-11" x="1568" y="299" width="321" height="321"/><rect class="cls-11" x="1568" y="662" width="321" height="263"/><rect class="cls-11" x="408" y="192" width="47" height="47"/><rect class="cls-11" x="483" y="192" width="596" height="47"/><circle class="cls-12" cx="1624" cy="215" r="21"/><circle class="cls-12" cx="1693" cy="215" r="21"/><circle class="cls-12" cx="1762" cy="215" r="21"/><polygon class="cls-12" points="1796.09 203.61 1810.31 203.56 1824.53 203.51 1817.46 215.85 1810.4 228.19 1803.24 215.9 1796.09 203.61"/><rect class="cls-6" x="387" y="1140" width="118" height="78" rx="39"/><rect x="822" y="1063" width="75" height="36" rx="18"/><rect x="505" y="1063" width="75" height="36" rx="18"/><rect x="609" y="1063" width="75" height="36" rx="18"/><rect x="710" y="1063" width="75" height="36" rx="18"/><rect x="1373" y="1063" width="75" height="36" rx="18"/><rect x="1266" y="1063" width="75" height="36" rx="18"/><rect x="1148" y="1063" width="75" height="36" rx="18"/><rect x="1050" y="1063" width="75" height="36" rx="18"/><rect x="933" y="1063" width="75" height="36" rx="18"/><rect x="1812" y="1063" width="75" height="36" rx="18"/><rect x="1691" y="1063" width="75" height="36" rx="18"/><rect x="1587" y="1063" width="75" height="36" rx="18"/><rect x="1469" y="1063" width="75" height="36" rx="18"/><rect class="cls-13" x="361" y="1106" width="69" height="69" rx="20.13"/><rect class="cls-13" x="459" y="1106" width="69" height="69" rx="20.13"/><rect class="cls-13" x="1627" y="1111" width="69" height="69" rx="20.13"/><rect class="cls-13" x="1518" y="1111" width="69" height="69" rx="20.13"/><rect class="cls-13" x="1412" y="1111" width="69" height="69" rx="20.13"/><rect class="cls-13" x="1306" y="1111" width="69" height="69" rx="20.13"/><rect class="cls-13" x="1196" y="1111" width="69" height="69" rx="20.13"/><rect class="cls-13" x="1085" y="1111" width="69" height="69" rx="20.13"/><rect class="cls-13" x="970" y="1111" width="69" height="69" rx="20.13"/><rect class="cls-13" x="862" y="1111" width="69" height="69" rx="20.13"/><rect class="cls-13" x="767" y="1111" width="69" height="69" rx="20.13"/><rect class="cls-13" x="661" y="1111" width="69" height="69" rx="20.13"/><rect class="cls-13" x="560" y="1111" width="69" height="69" rx="20.13"/><rect class="cls-13" x="1734" y="1117" width="180" height="60.7" rx="29"/><rect class="cls-13" x="508" y="1194" width="69" height="69" rx="20.13"/><rect class="cls-13" x="612" y="1196" width="69" height="69" rx="20.13"/><rect class="cls-13" x="705" y="1196" width="69" height="69" rx="20.13"/><rect class="cls-13" x="796" y="1196" width="69" height="69" rx="20.13"/><rect x="396" y="1063" width="75" height="36" rx="18"/><rect class="cls-13" x="306" y="1194" width="180" height="60.7" rx="29"/><rect class="cls-13" x="886" y="1194" width="69" height="69" rx="20.13"/><rect class="cls-13" x="973" y="1194" width="69" height="69" rx="20.13"/><rect class="cls-13" x="1085" y="1194" width="69" height="69" rx="20.13"/><rect class="cls-13" x="1195" y="1202" width="69" height="69" rx="20.13"/><rect class="cls-13" x="1306" y="1202" width="69" height="69" rx="20.13"/><rect class="cls-13" x="1414" y="1202" width="69" height="69" rx="20.13"/><rect class="cls-13" x="1518" y="1196" width="69" height="69" rx="20.13"/><rect class="cls-13" x="1627" y="1202" width="69" height="69" rx="20.13"/><rect class="cls-13" x="1748" y="1206" width="128" height="62" rx="31"/><rect class="cls-11" x="420" y="299" width="321" height="633"/><rect class="cls-10" x="446" y="351" width="264" height="25"/><rect class="cls-10" x="448" y="410" width="264" height="91"/><rect class="cls-10" x="452" y="529" width="264" height="91"/><rect class="cls-10" x="452" y="651" width="264" height="25"/><rect class="cls-10" x="452" y="707" width="264" height="25"/><rect class="cls-10" x="452" y="761" width="258" height="153"/><rect class="cls-10" x="819" y="331" width="688" height="96"/><rect class="cls-10" x="1603" y="351" width="260" height="121"/><rect class="cls-10" x="1603" y="523" width="260" height="59"/><rect class="cls-10" x="1600" y="683" width="260" height="217"/><path class="cls-14" d="M2082.08,835H1973.7A19.81,19.81,0,0,1,1954,816.85l-13.61-162a19.82,19.82,0,0,1,19.74-21.47H2093a19.81,19.81,0,0,1,19.76,21.14l-10.88,161.95A19.81,19.81,0,0,1,2082.08,835Z"/><rect class="cls-14" x="1925" y="606.33" width="203.26" height="45.17" rx="14.79"/><circle class="cls-15" cx="1944.2" cy="588.26" r="12.42"/><circle class="cls-15" cx="1952.67" cy="600.69" r="12.42"/><circle class="cls-15" cx="1969.04" cy="600.69" r="12.42"/><circle class="cls-15" cx="2037.36" cy="598.99" r="12.42"/><circle class="cls-15" cx="2049.78" cy="600.69" r="12.42"/><circle class="cls-15" cx="2018.73" cy="586.57" r="12.42"/><circle class="cls-15" cx="2018.73" cy="598.99" r="12.42"/><circle class="cls-15" cx="2006.3" cy="598.99" r="12.42"/><circle class="cls-15" cx="1981.46" cy="586.57" r="12.42"/><circle class="cls-15" cx="1993.88" cy="598.99" r="12.42"/><circle class="cls-15" cx="1965.09" cy="581.49" r="12.42"/><circle class="cls-15" cx="1981.46" cy="598.99" r="12.42"/><circle class="cls-15" cx="2062.2" cy="598.99" r="12.42"/><circle class="cls-15" cx="2074.62" cy="598.99" r="12.42"/><circle class="cls-15" cx="2087.04" cy="598.99" r="12.42"/><circle class="cls-15" cx="2049.78" cy="586.57" r="12.42"/><circle class="cls-15" cx="2106.24" cy="598.99" r="12.42"/><circle class="cls-15" cx="1995.01" cy="575.84" r="12.42"/><circle class="cls-15" cx="2074.62" cy="586.57" r="12.42"/><circle class="cls-15" cx="2106.24" cy="581.49" r="12.42"/><circle class="cls-15" cx="2118.66" cy="588.26" r="12.42"/><circle class="cls-15" cx="2034.53" cy="575.84" r="12.42"/><circle class="cls-15" cx="1952.67" cy="569.07" r="12.42"/><circle class="cls-15" cx="2062.2" cy="575.84" r="12.42"/><circle class="cls-15" cx="2081.4" cy="581.49" r="12.42"/><circle class="cls-15" cx="1977.51" cy="569.07" r="12.42"/><circle class="cls-15" cx="2013.64" cy="578.67" r="12.42"/><circle class="cls-15" cx="2049.78" cy="567.94" r="12.42"/><circle class="cls-15" cx="2007.43" cy="588.26" r="12.42"/><circle class="cls-15" cx="2093.82" cy="575.84" r="12.42"/><circle class="cls-15" cx="2013.64" cy="566.24" r="12.42"/><circle class="cls-15" cx="2087.04" cy="563.42" r="12.42"/><circle class="cls-15" cx="2099.47" cy="586.57" r="12.42"/><circle class="cls-15" cx="2113.02" cy="574.15" r="12.42"/><path class="cls-14" d="M2177.91,954.92h-93.08a17,17,0,0,1-16.95-15.59l-11.69-139.09a17,17,0,0,1,16.95-18.44h114.12a17,17,0,0,1,17,18.15l-9.35,139.1A17,17,0,0,1,2177.91,954.92Z"/><rect class="cls-14" x="2043" y="758.52" width="174.58" height="38.79" rx="14.79"/><circle class="cls-15" cx="2059.49" cy="743.01" r="10.67"/><circle class="cls-15" cx="2066.76" cy="753.67" r="10.67"/><circle class="cls-15" cx="2080.82" cy="753.67" r="10.67"/><circle class="cls-15" cx="2139.5" cy="752.22" r="10.67"/><circle class="cls-15" cx="2150.17" cy="753.67" r="10.67"/><circle class="cls-15" cx="2123.5" cy="741.55" r="10.67"/><circle class="cls-15" cx="2123.5" cy="752.22" r="10.67"/><circle class="cls-15" cx="2112.83" cy="752.22" r="10.67"/><circle class="cls-15" cx="2091.49" cy="741.55" r="10.67"/><circle class="cls-15" cx="2102.16" cy="752.22" r="10.67"/><circle class="cls-15" cx="2077.43" cy="737.19" r="10.67"/><circle class="cls-15" cx="2091.49" cy="752.22" r="10.67"/><circle class="cls-15" cx="2160.84" cy="752.22" r="10.67"/><circle class="cls-15" cx="2171.51" cy="752.22" r="10.67"/><circle class="cls-15" cx="2182.18" cy="752.22" r="10.67"/><circle class="cls-15" cx="2150.17" cy="741.55" r="10.67"/><circle class="cls-15" cx="2198.66" cy="752.22" r="10.67"/><circle class="cls-15" cx="2103.13" cy="732.34" r="10.67"/><circle class="cls-15" cx="2171.51" cy="741.55" r="10.67"/><circle class="cls-15" cx="2198.66" cy="737.19" r="10.67"/><circle class="cls-15" cx="2209.33" cy="743.01" r="10.67"/><circle class="cls-15" cx="2137.08" cy="732.34" r="10.67"/><circle class="cls-15" cx="2066.76" cy="726.52" r="10.67"/><circle class="cls-15" cx="2160.84" cy="732.34" r="10.67"/><circle class="cls-15" cx="2177.33" cy="737.19" r="10.67"/><circle class="cls-15" cx="2088.1" cy="726.52" r="10.67"/><circle class="cls-15" cx="2119.13" cy="734.76" r="10.67"/><circle class="cls-15" cx="2150.17" cy="725.55" r="10.67"/><circle class="cls-15" cx="2113.8" cy="743.01" r="10.67"/><circle class="cls-15" cx="2187.99" cy="732.34" r="10.67"/><circle class="cls-15" cx="2119.13" cy="724.09" r="10.67"/><circle class="cls-15" cx="2182.18" cy="721.67" r="10.67"/><circle class="cls-15" cx="2192.84" cy="741.55" r="10.67"/><circle class="cls-15" cx="2204.48" cy="730.88" r="10.67"/><rect class="cls-7" x="1923" y="101" width="48" height="944" rx="24"/><ellipse class="cls-16" cx="58.53" cy="1054.7" rx="280.47" ry="75.3"/><ellipse class="cls-17" cx="50.73" cy="1055.62" rx="188.82" ry="33.31"/><path class="cls-11" d="M107.93,1089.25l-98.8-.71c-22.37,0-118.94-32-118.94-56.62V906.5c0-24.67,33.9-37.27,56.27-37.27H159.23c22.37,0,67.65,12.6,67.65,37.27l-.65,124C226.23,1055.15,130.3,1089.25,107.93,1089.25Z"/><ellipse class="cls-18" cx="58.81" cy="892.42" rx="166.77" ry="44.42"/><ellipse class="cls-19" cx="56.58" cy="914.73" rx="131.95" ry="22.1"/><path class="cls-20" d="M225.25,929.36c37.18-.74,67.71,18.82,68.2,43.68s-29.24,45.62-66.42,46.35Z"/></svg>
