<svg id="Layer_1" data-name="Layer 1" xmlns="http://www.w3.org/2000/svg" xmlns:xlink="http://www.w3.org/1999/xlink" width="2208" height="1242" viewBox="0 0 2208 1242"><defs><style>.cls-1{fill:#50555b;}.cls-2{fill:#454a54;}.cls-3{fill:url(#linear-gradient);}.cls-4{fill:url(#linear-gradient-2);}.cls-5{fill:#0a0a0a;}.cls-6,.cls-7{fill:none;stroke-miterlimit:10;}.cls-6{stroke:#0a0a0a;stroke-width:10px;}.cls-7{stroke:#282725;stroke-width:5px;}.cls-8{fill:#ffce54;}</style><linearGradient id="linear-gradient" x1="2297.93" y1="-3222.71" x2="4359.87" y2="-3222.71" gradientTransform="matrix(-0.38, 0.54, -0.76, -0.12, -230.32, -1589.41)" gradientUnits="userSpaceOnUse"><stop offset="0" stop-color="#d42900"/><stop offset="1" stop-color="#150200"/></linearGradient><linearGradient id="linear-gradient-2" x1="6635.87" y1="-5316" x2="6997.87" y2="-5316" gradientTransform="translate(-4331 -6175) rotate(90)" gradientUnits="userSpaceOnUse"><stop offset="0" stop-color="#ed1c24"/><stop offset="0.9" stop-color="#fbb03b"/></linearGradient></defs><title>game over copy</title><rect class="cls-1" width="2208" height="1242"/><path class="cls-2" d="M2241,1219c0-2,4-4,4-6q3-240,0-480c0-2-4-4-4-6,1-36-1-75,1-110,12-167,10-332,1-499-1-14,2-30-5-41-6-11-1-18-5-26,0-1-4,1-4,0-2-4,0-8-1-12-1-2-5-4-6-6-1-7,0-12-5-19-2.58-3.88-2.25-9.42-1.68-15l-972.56,545.3L-.14,1241.16l2241,2.29C2240.61,1235.28,2240.11,1227,2241,1219Z"/><polygon class="cls-3" points="205.82 995.65 533.27 699.24 107.18 582.9 617.88 477.46 518.49 176.08 913.28 323.38 1198.81 13.5 1246.42 327.25 1749.61 190.4 1422.15 486.81 1848.25 603.14 1337.55 708.59 1436.94 1009.96 1042.15 862.66 756.62 1172.55 709.01 858.79 205.82 995.65"/><circle class="cls-4" cx="985" cy="664" r="181"/><circle class="cls-5" cx="1020.72" cy="733.07" r="13.81"/><circle class="cls-5" cx="924.51" cy="733.07" r="13.81"/><line class="cls-6" x1="886.88" y1="709.73" x2="962.14" y2="727.83"/><line class="cls-6" x1="983.19" y1="728.21" x2="1058.26" y2="709.34"/><line class="cls-7" x1="946.89" y1="794.99" x2="1024.06" y2="794.99"/><path d="M785.31,404.12l1,32-22.5,6.45.35-6.17a25.68,25.68,0,0,1-6.56.62,28.41,28.41,0,0,1-20.64-8.4A28.33,28.33,0,0,1,737,388a29.59,29.59,0,0,1,41.31,0L763.12,399a10.75,10.75,0,0,0-15,0,9.88,9.88,0,0,0-3.11,7.31q-.27,5.75,2.91,8.61c2.13,1.92,5,2.75,8.6,2.5a13.65,13.65,0,0,0,8.53-3.22l-8.16.55.55-9Z"/><path d="M811.4,429l-3,8.64-20.11-6.37,22.34-51.64,16.44-1.17,24.11,49.06-20.86,10-4.14-11.29ZM822,409.63l-2.66-8.56-3.12,9.46Z"/><path d="M918.35,379.67l3.44,54.06-22.66,1.91-.85-21.4-13,14-11.88-12.07.9,16.8-21.21,4.33,2.62-57.57,20.19-2.7,9.3,24.18,10.82-23.16Z"/><path d="M967.92,372.29l1.18,23.55-24.3,2.62.16,2,13.78-1.6.67,16-13.56,1.33.08,2,23.4-1.75L973.39,437l-49.65,1.68,5-58.9Z"/><path d="M1032.06,437q-13.71,0-23.45-8.38t-9.75-20.33q0-12,9.75-20.33t23.45-8.38a34.7,34.7,0,0,1,23.42,8.38q9.75,8.37,9.75,20.33t-9.75,20.33A34.7,34.7,0,0,1,1032.06,437Zm6.51-22.87a9.22,9.22,0,0,0,0-14.57,13.89,13.89,0,0,0-17.42,0,9.2,9.2,0,0,0,0,14.57,13.89,13.89,0,0,0,17.42,0Z"/><path d="M1084.53,437.13l-21.33-42.46,18.83-16L1093,407.79l6.88-24.88,24.76,6.95L1102.22,435Z"/><path d="M1166.79,372.29l1.17,23.55-24.29,2.62.15,2,13.79-1.6.67,16-13.56,1.33.08,2,23.4-1.75,4.06,20.54-49.65,1.68,5-58.9Z"/><path d="M1198.12,433.65l-24.73,3.48,4.77-61.37q52.81,3.92,54.65,21.41.15,1.68.15,3.24,0,14.8-15.43,19.92l14.57,7.89-18.55,16.41-16.33-20.2Zm-2.66-38.24.39,7.62q16.88,0,16.88-2.54Q1212.73,397.79,1195.46,395.41Z"/><path d="M1243,437a10.21,10.21,0,1,1,7.21-3A9.82,9.82,0,0,1,1243,437Z"/><path d="M1264.25,437a10.21,10.21,0,1,1,7.21-3A9.82,9.82,0,0,1,1264.25,437Z"/><path d="M1285.5,437a10.21,10.21,0,1,1,7.21-3A9.82,9.82,0,0,1,1285.5,437Z"/><path d="M1306.75,437a10.21,10.21,0,1,1,7.21-3A9.82,9.82,0,0,1,1306.75,437Z"/><path d="M1328,437a10.21,10.21,0,1,1,7.21-3A9.82,9.82,0,0,1,1328,437Z"/><path d="M1349.25,437a10.21,10.21,0,1,1,7.21-3A9.82,9.82,0,0,1,1349.25,437Z"/><path class="cls-8" d="M1501.69,730.69l1.52,26.66-19.58,5,3-32.76-13-1.11,1.21-13.8,39.26-2.35,1.56,19.77Z"/><path class="cls-8" d="M1535,758.75l-20.09,2.82,3.88-49.86q42.9,3.18,44.4,17.4c.08.9.12,1.78.12,2.63q0,12-12.53,16.19l11.84,6.41-15.08,13.33-13.27-16.41Zm-2.15-31.07.31,6.19q13.71,0,13.71-2.07T1532.83,727.68Z"/><path class="cls-8" d="M1578.62,741.74l-15.45-15.59,14.5-11.84,8.25,12.07,6.8-14.92,19.29,6.6-18.4,23.61,1.42,18.76L1577.17,758Z"/><path class="cls-8" d="M1651.5,755l-2.45,7-16.34-5.18,18.15-42,13.36-1,19.59,39.87-17,8.09-3.37-9.17Zm8.6-15.77-2.16-7L1655.4,740Z"/><path class="cls-8" d="M1726.21,734.75l.82,26L1708.75,766l.29-5a20.53,20.53,0,0,1-5.33.51,23.13,23.13,0,0,1-16.78-6.83,23,23,0,0,1,0-33,24,24,0,0,1,33.57,0l-12.32,9a8.71,8.71,0,0,0-12.17,0,8,8,0,0,0-2.52,5.93c-.15,3.11.64,5.45,2.36,7a9,9,0,0,0,7,2,11.08,11.08,0,0,0,6.94-2.62l-6.64.45.45-7.27Z"/><path class="cls-8" d="M1747.41,755l-2.45,7-16.34-5.18,18.15-42,13.37-1,19.58,39.87-17,8.09-3.36-9.17Zm8.6-15.77-2.16-7-2.54,7.68Z"/><path class="cls-8" d="M1798.19,715l3.4,44.94-20.29,3.81.86-47.45Z"/><path class="cls-8" d="M1819.65,743.17l2.41,14-18.09,4.6-3.4-44,17.55-3,14.13,18.69.19-18.5,22.09-2.26-7.34,48.69-14.12,2.06Z"/><path class="cls-8" d="M1858.11,761.48a8.3,8.3,0,1,1,5.86-2.43A8,8,0,0,1,1858.11,761.48Z"/><path class="cls-8" d="M1875.38,761.48a8.3,8.3,0,1,1,5.85-2.43A8,8,0,0,1,1875.38,761.48Z"/></svg>