<svg id="Layer_1" data-name="Layer 1" xmlns="http://www.w3.org/2000/svg" width="863" height="506.67" viewBox="0 0 863 506.67"><defs><style>.cls-1{fill:#ededed;}.cls-2{fill:#afacac;}.cls-3{fill:#fff;}.cls-4{fill:#e8e7e6;}.cls-4,.cls-5{stroke:#2d1a08;}.cls-4,.cls-5,.cls-6{stroke-miterlimit:10;}.cls-5{fill:#a5805e;}.cls-6{fill:none;stroke:#fff;stroke-width:15px;}</style></defs><title>Kaffe kop</title><ellipse class="cls-1" cx="431.5" cy="354.67" rx="431.5" ry="152"/><ellipse class="cls-2" cx="419.5" cy="319.92" rx="290.5" ry="51.25"/><path class="cls-3" d="M507.5,371.67l-152-1.1c-34.42,0-183-49.16-183-87.11V90.5c0-37.95,52.16-57.33,86.58-57.33H586.42c34.42,0,104.08,19.38,104.08,57.33l-1,190.75C689.5,319.21,541.92,371.67,507.5,371.67Z"/><ellipse class="cls-4" cx="431.92" cy="68.83" rx="256.58" ry="68.33"/><ellipse class="cls-5" cx="428.5" cy="103.17" rx="203" ry="34"/><path class="cls-6" d="M688,125.67c57.19-1.13,104.17,29,104.92,67.21s-45,70.17-102.18,71.31Z"/></svg>