<svg id="Layer_1" data-name="Layer 1" xmlns="http://www.w3.org/2000/svg" width="720" height="930" viewBox="0 0 720 930"><defs><style>.cls-1{fill:#ffc44d;}.cls-2{fill:#ed5565;}.cls-3{fill:#da4453;}.cls-4,.cls-6,.cls-9{fill:none;stroke-miterlimit:10;}.cls-4{stroke:#050401;stroke-width:4px;}.cls-5{fill:#050401;}.cls-6{stroke:#050505;stroke-width:3px;}.cls-7{fill:#e5b045;}.cls-8{fill:#ffd071;}.cls-9{stroke:#e5b045;stroke-width:5px;}</style></defs><title>karakter</title><path class="cls-1" d="M687.17,630.19c-20.11,141.33-129.56,245.3-291.79,279C212.14,947.27-5.24,771.48,103.6,630.19c102.33-132.83,250.72-267,291.78-279C616.72,286.65,707.5,487.3,687.17,630.19Z"/><rect class="cls-2" x="358.22" y="305.69" width="243.07" height="52" rx="23.16"/><path class="cls-1" d="M24,623.21C3.84,582.6-2.8,533.23,6.89,540.16c7.05,5,22.72,60,55.81,64,45.16,5.43,27.78,77.79,17.09,83S44.1,663.82,24,623.21Z"/><path class="cls-1" d="M382.69,304.69l-37.23-12.31c-11.51,9.89-25.72-81.74,0-90.8,14.46-5.1,46.89-55.41,46.89-55.41-6.61-34.67-6.27-66.93,13.79-92.34,4.27-12.91,18.89-21.16,44.13-24.62,13.12-6.44,27.66-3.79,45.51,20l42.75,40C551.21,101.32,574.66,100,602,93.85L629.55,80c16.38-16.62,34.54-14.15,53.78,0,16.29,17,0,49.25,0,49.25s-10,33.49-27.58,50.79L624,187.73c-45.59,11.33-101.34,8.6-161.35,0v24.62c32.93,33.92,68.08,57,104.81,72.33l38.61,4.62-12.41,15.39Z"/><path class="cls-1" d="M247.66,167.61c11.57,42.22,61.78,99,95.08-9.79,14.4-47,73.17-53.33,64.81-69.95s-50.93-12.24-95.08,9.78S242.75,149.68,247.66,167.61Z"/><path class="cls-1" d="M587.49,6.6c-3.75-10.4-58.78-.23-58.78-.23s-46.05,26.4-45.2,37.41c.45,5.78,17.19-7.5,58.78.23C572.28,49.59,591.24,17,587.49,6.6Z"/><path class="cls-3" d="M601.29,288.69l19.08,8,15.07,42c7.36,11,19.21,16.37,33.65,18.5,22-4.91,27.25-20,34.15-34-4.36-13.66-29.13-35-29.13-35s-25.14-24.76-43.19-31c-28.3,2.87-49,12.48-64.28,27Z"/><path class="cls-4" d="M455.06,93.23A98.24,98.24,0,0,1,428,88.94"/><path class="cls-4" d="M484,61.12c-.25,8.57-6.91,13-10.42,18"/><ellipse class="cls-5" cx="659.04" cy="77.69" rx="10" ry="20.59" transform="translate(512.26 724.86) rotate(-83.94)"/><path class="cls-6" d="M416.48,69.69c-.48-11.38,5.11-16.53,20.09-12"/><path class="cls-6" d="M454.65,51.69c-.48-11.38,5.11-16.53,20.08-12"/><path class="cls-7" d="M652.45,443.35,436.57,898.8c27.12-8.53,52.45-18.09,74.23-29.69,34.65-18.53,63.85-37.83,69-45.77,25.23-20,46.54-43.38,63.73-73,26.15-39.39,40.75-82.06,46.67-124.14.6-35.26.41-70.46-6.13-96.23C681,504.21,671.56,475.75,652.45,443.35Z"/><path class="cls-1" d="M428,671.19c22.53,99,48.1,228.73,63.28,253,22,5.83,46.56,4.5,72.31,0a53.94,53.94,0,0,0,3-25l-3-18c-10.49-6.13-20.1-7-28.12-2l-56.25-208"/><path class="cls-1" d="M613.51,791.74c4,42.9,8.34,85.17,21.43,107.45,16.3,13.39,48.27,10,77.34,0,5.8-15.25,8-29.93,0-43-12.14-5.05-28.15-6.12-49.22-2l-4-112.35V724.05"/><ellipse class="cls-8" cx="601" cy="352.52" rx="20.82" ry="20.54" transform="translate(-91.86 426.08) rotate(-36.45)"/><path class="cls-9" d="M193,756.19c30.64-47.19,93.11-54.06,126.55-26,34,28.51,37.17,92.35-9.2,130,25.32-5.38,50.22-5.58,74.65,0,12.84-.32,19.52,5.27,22.94,14,4.35,12.31.06,23.65-13.06,34a124.76,124.76,0,0,1-55,6.25C319.65,917.62,305,914,292.38,908"/></svg>
