<svg id="Layer_1" data-name="Layer 1" xmlns="http://www.w3.org/2000/svg" width="720" height="930" viewBox="0 0 720 930"><defs><style>.cls-1,.cls-6{fill:#ffc44d;}.cls-2{fill:#ed5565;}.cls-3{fill:#e5b045;}.cls-4{fill:#ffd071;}.cls-5,.cls-7{fill:none;}.cls-5,.cls-6{stroke:#e5b045;}.cls-5,.cls-6,.cls-7,.cls-8{stroke-miterlimit:10;}.cls-5{stroke-width:5px;}.cls-6{stroke-width:4px;}.cls-7,.cls-8{stroke:#020202;stroke-width:2px;}.cls-8{fill:#0f0e0c;}.cls-9{fill:#2caad1;}</style></defs><title>karakter sur</title><path class="cls-1" d="M682.36,616.6c-20,141.32-129,245.29-290.5,279C209.42,933.67-7,757.89,101.36,616.6c101.87-132.83,249.61-267,290.5-279C612.21,273.06,702.6,473.7,682.36,616.6Z"/><rect class="cls-2" x="354.86" y="292.1" width="242" height="52" rx="23.16"/><path class="cls-1" d="M22.08,609.61c-20-40.61-26.66-90-17-83,7,5,22.62,60,55.58,64,45,5.44,27.65,77.8,17,83S42.12,650.23,22.08,609.61Z"/><path class="cls-3" d="M647.79,429.76,432.86,885.21c27-8.53,52.22-18.09,73.9-29.69,34.51-18.53,63.57-37.84,68.68-45.78,25.12-20,46.33-43.37,63.45-73,26-39.39,40.57-82.05,46.47-124.13.59-35.26.4-70.46-6.11-96.23C676.19,490.61,666.82,462.16,647.79,429.76Z"/><path class="cls-1" d="M424.36,657.6c22.43,99,47.88,228.73,63,253,21.86,5.83,46.35,4.5,72,0a54.22,54.22,0,0,0,3-25l-3-18c-10.46-6.13-20-7-28-2l-56-208"/><path class="cls-1" d="M609,778.14c4,42.91,8.31,85.18,21.34,107.46,16.22,13.39,48,10,77,0,5.77-15.25,8-29.94,0-43-12.08-5.05-28-6.12-49-2l-4-112.36V710.45"/><ellipse class="cls-4" cx="596.57" cy="338.92" rx="20.76" ry="20.5" transform="translate(-61.84 531.94) rotate(-45.94)"/><path class="cls-5" d="M190.36,742.6c30.51-47.2,92.7-54.07,126-26,33.81,28.5,37,92.35-9.16,130,25.21-5.39,50-5.58,74.31,0,12.79-.32,19.44,5.27,22.85,14,4.33,12.31.06,23.65-13,34a123.72,123.72,0,0,1-54.77,6.25c-20.14,3.18-34.71-.41-47.28-6.43"/><path class="cls-1" d="M350.57,302.77c-35.95-18.47-54.14-39.45-44.92-64.3,3.59-32.16,64.36-74,65.4-72.92S411.9,93.8,430.73,46c11.54-22.95,29-26.9,46.48-30.53,28,1.86,41.38,10.24,53.16,19.34,18,17.65,24.33,37.5,21.41,59.07,5.61,24.88,14.3,39.25,23.9,50.54,31.18,26,67.39,36.53,106.31,38.67,23.2,14.07,33.26,36.73,36.31,64,4,19.1-4.44,31.79-16.76,42.47-19.61,24.06-46,26.33-74.22,23l-68.4-15.62Z"/><path class="cls-6" d="M425.32,67.76c-49.13,50.44-51.82,178.7-53.95,178-22.27-7.44-69-20.36-64.55-76.34C335.78,122.26,377.36,91,425.32,67.76Z"/><path class="cls-1" d="M519.63,73.82c42.13,45,111.55,81.59,143.74,67.91s1.17-29.85,1.17-29.85C622.35,77.85,566.78,98.49,519.63,73.82Z"/><path class="cls-7" d="M463.26,111.72c12.17,1.18,23.87-3.4,35.39-10.14"/><path class="cls-7" d="M508.37,103.15c11.65,3.71,24,1.69,36.73-2.48"/><path class="cls-7" d="M712,270.22c-25-32.16-62.47-42.09-127.07-3.55"/><ellipse class="cls-8" cx="669.71" cy="193.79" rx="11.49" ry="23.7" transform="matrix(0.04, -1, 1, 0.04, 449.84, 855.4)"/><path class="cls-9" d="M462.4,133.35c-2.41,11.2-6.23,21.48-12.2,30.37-1.43,4.64-2.12,8.84,0,11.39,3.08,3.27,7.19,4.73,12.2,4.61A25.72,25.72,0,0,0,476.1,178,19.23,19.23,0,0,0,478,166.3Q465.6,150.32,462.4,133.35Z"/></svg>