<svg id="Layer_1" data-name="Layer 1" xmlns="http://www.w3.org/2000/svg" width="389" height="389" viewBox="0 0 389 389"><defs><style>.cls-1{fill:#4fc1e9;}.cls-2{fill:#e6e9ed;}.cls-3{fill:#f5f7fa;}</style></defs><title>Like ikon</title><circle class="cls-1" cx="194.5" cy="194.5" r="195"/><path class="cls-2" d="M139.36,159V264.6c3.85-5.24,116.41,13.11,125.88,13.11s13.25-10.23,13.25-10.23c3.6-7.5,3.46-14.65-3.79-21.12,11.59-6.73,14.52-13.57,12.62-20.47l-7.57-15.35c11.82-10.3,7.57-28.15,7.57-28.15s-18-12.8-8.83-6.4,15.35-17.28,8.83-17.28c-24.82-6.62-49.43-6.74-73.82,0l17-73.57c-.23-10.51-5.3-17.74-17-20.47-17.35,0-24.16,12.53-24,12.79,2.19,3.15-12.42,60.53-35.33,80.61Z"/><rect class="cls-3" x="83.72" y="140.86" width="55.14" height="136.35"/></svg>