<svg id="Layer_1" data-name="Layer 1" xmlns="http://www.w3.org/2000/svg" width="289" height="101.3" viewBox="0 0 289 101.3"><defs><style>.cls-1{fill:#f7f7f7;stroke:#3f63ab;stroke-width:15px;}.cls-1,.cls-10,.cls-5,.cls-7{stroke-miterlimit:10;}.cls-2{fill:#ffc44d;}.cls-3{fill:#ed5565;}.cls-4{fill:#da4453;}.cls-10,.cls-5,.cls-7{fill:none;}.cls-5{stroke:#050401;stroke-width:4px;}.cls-6{fill:#050401;}.cls-7{stroke:#050505;stroke-width:3px;}.cls-8{fill:#e5b045;}.cls-9{fill:#ffd071;}.cls-10{stroke:#e5b045;stroke-width:5px;}</style></defs><title>liv</title><rect class="cls-1" x="7.5" y="7.5" width="274" height="86.3" rx="40.75"/><path class="cls-2" d="M83.61,62.11c-1.41,10-9.08,17.27-20.46,19.64-12.84,2.68-28.08-9.7-20.45-19.64,7.17-9.36,17.57-18.81,20.45-19.65C78.67,37.92,85,52,83.61,62.11Z"/><rect class="cls-3" x="60.55" y="39.26" width="17.04" height="3.66" rx="1.73"/><path class="cls-2" d="M37.12,61.61c-1.42-2.86-1.88-6.33-1.2-5.84.49.35,1.59,4.22,3.91,4.5,3.17.39,2,5.48,1.2,5.85S38.53,64.47,37.12,61.61Z"/><path class="cls-2" d="M62.26,39.19l-2.61-.87c-.8.69-1.8-5.76,0-6.4,1-.35,3.29-3.9,3.29-3.9-.46-2.44-.44-4.71,1-6.5.3-.91,1.32-1.49,3.09-1.73.92-.46,1.94-.27,3.19,1.41l3,2.81c.89.86,2.53.76,4.45.33l1.93-1c1.15-1.17,2.42-1,3.77,0,1.14,1.2,0,3.47,0,3.47a10,10,0,0,1-1.93,3.58L79.18,31c-3.19.8-7.1.61-11.31,0v1.73a21.87,21.87,0,0,0,7.35,5.1l2.71.32-.87,1.09Z"/><path class="cls-2" d="M52.8,29.53c.81,3,4.33,7,6.66-.69,1-3.31,5.13-3.75,4.55-4.92s-3.57-.86-6.67.69S52.45,28.27,52.8,29.53Z"/><path class="cls-2" d="M76.62,18.2c-.26-.74-4.12,0-4.12,0S69.27,20,69.33,20.81c0,.41,1.21-.52,4.12,0C75.55,21.22,76.88,18.93,76.62,18.2Z"/><path class="cls-4" d="M77.59,38.06l1.34.56,1,3a3.25,3.25,0,0,0,2.36,1.3c1.54-.34,1.91-1.4,2.4-2.39a8.81,8.81,0,0,0-2-2.47,11.42,11.42,0,0,0-3-2.18,7.34,7.34,0,0,0-4.51,1.9Z"/><path class="cls-5" d="M67.34,24.3a6.92,6.92,0,0,1-1.9-.31"/><path class="cls-5" d="M69.37,22c0,.61-.49.92-.73,1.27"/><ellipse class="cls-6" cx="81.64" cy="23.2" rx="0.7" ry="1.44" transform="translate(49.89 101.91) rotate(-83.9)"/><path class="cls-7" d="M64.63,22.64c0-.8.36-1.17,1.41-.85"/><path class="cls-7" d="M67.31,21.37c0-.8.36-1.16,1.41-.84"/><path class="cls-8" d="M81.17,49,66,81a30.3,30.3,0,0,0,5.2-2.09,20.36,20.36,0,0,0,4.84-3.22,18,18,0,0,0,4.47-5.15,21.12,21.12,0,0,0,3.27-8.74,28.29,28.29,0,0,0-.43-6.77A15.72,15.72,0,0,0,81.17,49Z"/><path class="cls-2" d="M65.44,65C67,72,68.81,81.1,69.88,82.81a12,12,0,0,0,5.07,0,3.88,3.88,0,0,0,.21-1.76L75,79.78a1.83,1.83,0,0,0-2-.14L69,65"/><path class="cls-2" d="M78.44,73.48c.29,3,.59,6,1.51,7.57,1.14.94,3.38.7,5.42,0a3.33,3.33,0,0,0,0-3,5.92,5.92,0,0,0-3.45-.14L81.64,70V68.71"/><ellipse class="cls-9" cx="77.57" cy="42.55" rx="1.46" ry="1.44" transform="translate(-6.95 68.7) rotate(-45.94)"/><path class="cls-10" d="M49,71c2.15-3.33,6.53-3.81,8.88-1.83s2.6,6.5-.65,9.15a12,12,0,0,1,5.23,0,1.49,1.49,0,0,1,1.61,1,2,2,0,0,1-.91,2.39,8.74,8.74,0,0,1-3.86.44,5.42,5.42,0,0,1-3.33-.45"/><path class="cls-2" d="M158.77,62.11c-1.41,10-9.09,17.27-20.46,19.64-12.85,2.68-28.08-9.7-20.45-19.64,7.17-9.36,17.57-18.81,20.45-19.65C153.83,37.92,160.19,52,158.77,62.11Z"/><rect class="cls-3" x="135.71" y="39.26" width="17.04" height="3.66" rx="1.73"/><path class="cls-2" d="M112.27,61.61c-1.41-2.86-1.87-6.33-1.19-5.84.49.35,1.59,4.22,3.91,4.5,3.16.39,2,5.48,1.2,5.85S113.68,64.47,112.27,61.61Z"/><path class="cls-2" d="M137.42,39.19l-2.61-.87c-.81.69-1.8-5.76,0-6.4,1-.35,3.29-3.9,3.29-3.9-.47-2.44-.44-4.71,1-6.5.3-.91,1.33-1.49,3.1-1.73.92-.46,1.94-.27,3.19,1.41l3,2.81c.89.86,2.53.76,4.44.33l1.94-1c1.15-1.17,2.42-1,3.77,0,1.14,1.2,0,3.47,0,3.47a10.13,10.13,0,0,1-1.94,3.58l-2.22.54c-3.2.8-7.1.61-11.31,0v1.73a21.87,21.87,0,0,0,7.35,5.1l2.7.32-.87,1.09Z"/><path class="cls-2" d="M128,29.53c.81,3,4.33,7,6.66-.69,1-3.31,5.13-3.75,4.54-4.92s-3.57-.86-6.66.69S127.61,28.27,128,29.53Z"/><path class="cls-2" d="M151.78,18.2c-.26-.74-4.12,0-4.12,0s-3.23,1.86-3.17,2.63c0,.41,1.2-.52,4.12,0C150.71,21.22,152,18.93,151.78,18.2Z"/><path class="cls-4" d="M152.75,38.06l1.33.56,1.06,3a3.25,3.25,0,0,0,2.36,1.3c1.54-.34,1.91-1.4,2.39-2.39a8.65,8.65,0,0,0-2-2.47,11.35,11.35,0,0,0-3-2.18,7.31,7.31,0,0,0-4.5,1.9Z"/><path class="cls-5" d="M142.49,24.3A6.9,6.9,0,0,1,140.6,24"/><path class="cls-5" d="M144.52,22c0,.61-.48.92-.73,1.27"/><ellipse class="cls-6" cx="156.79" cy="23.2" rx="0.7" ry="1.44" transform="translate(117.07 176.64) rotate(-83.9)"/><path class="cls-7" d="M139.79,22.64c0-.8.36-1.17,1.41-.85"/><path class="cls-7" d="M142.47,21.37c0-.8.35-1.16,1.4-.84"/><path class="cls-8" d="M156.33,49,141.2,81a30.3,30.3,0,0,0,5.2-2.09,20.36,20.36,0,0,0,4.84-3.22,18,18,0,0,0,4.47-5.15A21.12,21.12,0,0,0,159,61.82a28.29,28.29,0,0,0-.43-6.77A15.72,15.72,0,0,0,156.33,49Z"/><path class="cls-2" d="M140.6,65C142.18,72,144,81.1,145,82.81a12,12,0,0,0,5.07,0,3.88,3.88,0,0,0,.21-1.76l-.21-1.27a1.85,1.85,0,0,0-2-.14L144.19,65"/><path class="cls-2" d="M153.6,73.48c.29,3,.59,6,1.5,7.57,1.15.94,3.39.7,5.43,0a3.36,3.36,0,0,0,0-3,5.92,5.92,0,0,0-3.45-.14L156.79,70V68.71"/><ellipse class="cls-9" cx="152.73" cy="42.55" rx="1.46" ry="1.44" transform="translate(15.94 122.71) rotate(-45.94)"/><path class="cls-10" d="M124.12,71c2.15-3.33,6.53-3.81,8.87-1.83s2.61,6.5-.64,9.15a12,12,0,0,1,5.23,0,1.5,1.5,0,0,1,1.61,1,2,2,0,0,1-.91,2.39,8.76,8.76,0,0,1-3.86.44,5.42,5.42,0,0,1-3.33-.45"/><path class="cls-2" d="M233.33,62.11c-1.41,10-9.08,17.27-20.45,19.64-12.85,2.68-28.09-9.7-20.46-19.64C199.6,52.75,210,43.3,212.88,42.46,228.39,37.92,234.76,52,233.33,62.11Z"/><rect class="cls-3" x="210.27" y="39.26" width="17.04" height="3.66" rx="1.73"/><path class="cls-2" d="M186.84,61.61c-1.41-2.86-1.88-6.33-1.2-5.84.5.35,1.59,4.22,3.91,4.5,3.17.39,1.95,5.48,1.2,5.85S188.25,64.47,186.84,61.61Z"/><path class="cls-2" d="M212,39.19l-2.61-.87c-.81.69-1.81-5.76,0-6.4,1-.35,3.28-3.9,3.28-3.9-.46-2.44-.44-4.71,1-6.5.3-.91,1.33-1.49,3.09-1.73.92-.46,1.94-.27,3.19,1.41l3,2.81c.89.86,2.53.76,4.45.33l1.93-1c1.15-1.17,2.42-1,3.77,0,1.14,1.2,0,3.47,0,3.47a10,10,0,0,1-1.93,3.58l-2.22.54c-3.2.8-7.11.61-11.32,0v1.73a22,22,0,0,0,7.35,5.1l2.71.32-.87,1.09Z"/><path class="cls-2" d="M202.52,29.53c.81,3,4.33,7,6.67-.69,1-3.31,5.13-3.75,4.54-4.92s-3.57-.86-6.67.69S202.18,28.27,202.52,29.53Z"/><path class="cls-2" d="M226.34,18.2c-.26-.74-4.12,0-4.12,0S219,20,219.05,20.81c0,.41,1.21-.52,4.13,0C225.28,21.22,226.61,18.93,226.34,18.2Z"/><path class="cls-4" d="M227.31,38.06l1.34.56,1.06,3a3.21,3.21,0,0,0,2.35,1.3c1.55-.34,1.91-1.4,2.4-2.39a8.82,8.82,0,0,0-2-2.47,11.53,11.53,0,0,0-3-2.18,7.34,7.34,0,0,0-4.51,1.9Z"/><path class="cls-5" d="M217.06,24.3a7,7,0,0,1-1.9-.31"/><path class="cls-5" d="M219.09,22c0,.61-.48.92-.73,1.27"/><ellipse class="cls-6" cx="231.36" cy="23.2" rx="0.7" ry="1.44" transform="matrix(0.11, -0.99, 0.99, 0.11, 183.71, 250.79)"/><path class="cls-7" d="M214.36,22.64c0-.8.35-1.17,1.4-.85"/><path class="cls-7" d="M217,21.37c0-.8.36-1.16,1.41-.84"/><path class="cls-8" d="M230.9,49,215.76,81A30.41,30.41,0,0,0,221,78.93a20.22,20.22,0,0,0,4.83-3.22,17.85,17.85,0,0,0,4.47-5.15,21,21,0,0,0,3.27-8.74,27.78,27.78,0,0,0-.43-6.77A15.53,15.53,0,0,0,230.9,49Z"/><path class="cls-2" d="M215.17,65c1.57,7,3.37,16.11,4.43,17.82a12,12,0,0,0,5.07,0,3.75,3.75,0,0,0,.21-1.76l-.21-1.27a1.83,1.83,0,0,0-2-.14L218.76,65"/><path class="cls-2" d="M228.17,73.48c.28,3,.58,6,1.5,7.57,1.14.94,3.38.7,5.42,0a3.3,3.3,0,0,0,0-3,5.92,5.92,0,0,0-3.45-.14L231.36,70V68.71"/><ellipse class="cls-9" cx="227.29" cy="42.55" rx="1.46" ry="1.44" transform="translate(38.65 176.3) rotate(-45.94)"/><path class="cls-10" d="M198.69,71c2.15-3.33,6.53-3.81,8.87-1.83s2.61,6.5-.64,9.15a12,12,0,0,1,5.23,0,1.5,1.5,0,0,1,1.61,1,2.05,2.05,0,0,1-.92,2.39,8.71,8.71,0,0,1-3.85.44,5.41,5.41,0,0,1-3.33-.45"/></svg>
