<svg id="Layer_1" data-name="Layer 1" xmlns="http://www.w3.org/2000/svg" width="135" height="186.04" viewBox="0 0 135 186.04"><defs><style>.cls-1{fill:#d87a45;}.cls-2{fill:#25a53a;}</style></defs><title>plante lille</title><path class="cls-1" d="M102.9,186h-71A13,13,0,0,1,19,174.15L10.06,68.06A13,13,0,0,1,23,54h87A13,13,0,0,1,123,67.84l-7.13,106.1A13,13,0,0,1,102.9,186Z"/><rect class="cls-1" y="36.25" width="133.15" height="29.59" rx="14.79"/><circle class="cls-2" cx="12.58" cy="24.41" r="8.14"/><circle class="cls-2" cx="18.12" cy="32.55" r="8.14"/><circle class="cls-2" cx="28.85" cy="32.55" r="8.14"/><circle class="cls-2" cx="73.6" cy="31.44" r="8.14"/><circle class="cls-2" cx="81.74" cy="32.55" r="8.14"/><circle class="cls-2" cx="61.4" cy="23.3" r="8.14"/><circle class="cls-2" cx="61.4" cy="31.44" r="8.14"/><circle class="cls-2" cx="53.26" cy="31.44" r="8.14"/><circle class="cls-2" cx="36.99" cy="23.3" r="8.14"/><circle class="cls-2" cx="45.12" cy="31.44" r="8.14"/><circle class="cls-2" cx="26.26" cy="19.97" r="8.14"/><circle class="cls-2" cx="36.99" cy="31.44" r="8.14"/><circle class="cls-2" cx="89.88" cy="31.44" r="8.14"/><circle class="cls-2" cx="98.01" cy="31.44" r="8.14"/><circle class="cls-2" cx="106.15" cy="31.44" r="8.14"/><circle class="cls-2" cx="81.74" cy="23.3" r="8.14"/><circle class="cls-2" cx="118.73" cy="31.44" r="8.14"/><circle class="cls-2" cx="45.86" cy="16.27" r="8.14"/><circle class="cls-2" cx="98.01" cy="23.3" r="8.14"/><circle class="cls-2" cx="118.73" cy="19.97" r="8.14"/><circle class="cls-2" cx="126.86" cy="24.41" r="8.14"/><circle class="cls-2" cx="71.75" cy="16.27" r="8.14"/><circle class="cls-2" cx="18.12" cy="11.84" r="8.14"/><circle class="cls-2" cx="89.88" cy="16.27" r="8.14"/><circle class="cls-2" cx="102.45" cy="19.97" r="8.14"/><circle class="cls-2" cx="34.4" cy="11.84" r="8.14"/><circle class="cls-2" cx="58.07" cy="18.12" r="8.14"/><circle class="cls-2" cx="81.74" cy="11.1" r="8.14"/><circle class="cls-2" cx="54" cy="24.41" r="8.14"/><circle class="cls-2" cx="110.59" cy="16.27" r="8.14"/><circle class="cls-2" cx="58.07" cy="9.99" r="8.14"/><circle class="cls-2" cx="106.15" cy="8.14" r="8.14"/><circle class="cls-2" cx="114.29" cy="23.3" r="8.14"/><circle class="cls-2" cx="123.16" cy="15.16" r="8.14"/></svg>