<svg id="Layer_1" data-name="Layer 1" xmlns="http://www.w3.org/2000/svg" width="365" height="503" viewBox="0 0 365 503"><defs><style>.cls-1{fill:#d87a45;}.cls-2{fill:#25a53a;}</style></defs><title>plante stor</title><path class="cls-1" d="M278.2,503H86.25A35.08,35.08,0,0,1,51.3,470.86L27.19,184a35.09,35.09,0,0,1,35-38H297.48a35.07,35.07,0,0,1,35,37.43L313.2,470.27A35.08,35.08,0,0,1,278.2,503Z"/><rect class="cls-1" y="98" width="360" height="80" rx="19"/><circle class="cls-2" cx="34" cy="66" r="22"/><circle class="cls-2" cx="49" cy="88" r="22"/><circle class="cls-2" cx="78" cy="88" r="22"/><circle class="cls-2" cx="199" cy="85" r="22"/><circle class="cls-2" cx="221" cy="88" r="22"/><circle class="cls-2" cx="166" cy="63" r="22"/><circle class="cls-2" cx="166" cy="85" r="22"/><circle class="cls-2" cx="144" cy="85" r="22"/><circle class="cls-2" cx="100" cy="63" r="22"/><circle class="cls-2" cx="122" cy="85" r="22"/><circle class="cls-2" cx="71" cy="54" r="22"/><circle class="cls-2" cx="100" cy="85" r="22"/><circle class="cls-2" cx="243" cy="85" r="22"/><circle class="cls-2" cx="265" cy="85" r="22"/><circle class="cls-2" cx="287" cy="85" r="22"/><circle class="cls-2" cx="221" cy="63" r="22"/><circle class="cls-2" cx="321" cy="85" r="22"/><circle class="cls-2" cx="124" cy="44" r="22"/><circle class="cls-2" cx="265" cy="63" r="22"/><circle class="cls-2" cx="321" cy="54" r="22"/><circle class="cls-2" cx="343" cy="66" r="22"/><circle class="cls-2" cx="194" cy="44" r="22"/><circle class="cls-2" cx="49" cy="32" r="22"/><circle class="cls-2" cx="243" cy="44" r="22"/><circle class="cls-2" cx="277" cy="54" r="22"/><circle class="cls-2" cx="93" cy="32" r="22"/><circle class="cls-2" cx="157" cy="49" r="22"/><circle class="cls-2" cx="221" cy="30" r="22"/><circle class="cls-2" cx="146" cy="66" r="22"/><circle class="cls-2" cx="299" cy="44" r="22"/><circle class="cls-2" cx="157" cy="27" r="22"/><circle class="cls-2" cx="287" cy="22" r="22"/><circle class="cls-2" cx="309" cy="63" r="22"/><circle class="cls-2" cx="333" cy="41" r="22"/></svg>