<svg id="Layer_1" data-name="Layer 1" xmlns="http://www.w3.org/2000/svg" width="205.78" height="212.5" viewBox="0 0 205.78 212.5"><defs><style>.cls-1{fill:#e6e9ed;}.cls-2{fill:#f5f7fa;}.cls-3{fill:#3bafda;}</style></defs><title>play knap</title><path class="cls-1" d="M55.5,94.13V199.42c3.84-5.23,116.12,13.08,125.56,13.08s13.21-10.21,13.21-10.21c3.59-7.48,3.46-14.61-3.77-21.06,11.56-6.71,14.48-13.54,12.59-20.42l-7.56-15.31c11.79-10.27,7.56-28.08,7.56-28.08s-17.94-12.77-8.82-6.38,15.32-17.24,8.82-17.23c-24.76-6.61-49.31-6.73-73.64,0l17-73.39c-.22-10.48-5.28-17.7-17-20.42-17.31,0-24.1,12.5-23.92,12.76,2.18,3.14-12.39,60.38-35.24,80.41Z"/><rect class="cls-2" y="76" width="55" height="136"/><polygon class="cls-3" points="161.41 143.35 130.93 161.05 100.45 178.75 100.58 143.88 100.71 109.01 131.06 126.18 161.41 143.35"/></svg>