<svg id="Layer_1" data-name="Layer 1" xmlns="http://www.w3.org/2000/svg" width="280.87" height="99.77" viewBox="0 0 280.87 99.77"><defs><style>.cls-1{fill:#f7f7f7;stroke:#3f63ab;stroke-width:15px;}.cls-1,.cls-2{stroke-miterlimit:10;}.cls-2{fill:#dadfe1;stroke:#00708e;stroke-width:2px;}.cls-3{fill:#4fc1e9;}.cls-4{fill:#e6e9ed;}.cls-5{fill:#f5f7fa;}</style></defs><title>point</title><rect class="cls-1" x="7.54" y="8.03" width="265.8" height="83.72" rx="34.75" transform="translate(-0.27 0.75) rotate(-0.31)"/><rect class="cls-2" x="95.06" y="24.67" width="153.85" height="49.95" rx="20.73" transform="translate(-0.26 0.92) rotate(-0.31)"/><path d="M140.46,46.77l.54.39a5.66,5.66,0,0,1,2.54,4.61,5.59,5.59,0,0,1-2.46,4.6,10.31,10.31,0,0,1-11.87.06,5.59,5.59,0,0,1-2.51-4.57,5.69,5.69,0,0,1,2.5-4.64l.25-.2a4.54,4.54,0,0,1-1.21-3.37,5.25,5.25,0,0,1,1.93-4.11,7.29,7.29,0,0,1,9.32,0,5.21,5.21,0,0,1,2,4.09A4.52,4.52,0,0,1,140.46,46.77Zm-5.93,2.93a3.42,3.42,0,0,0-1.68.38c-.43.25-.64.51-.64.78s.22.54.65.79a3.32,3.32,0,0,0,1.68.37,3.4,3.4,0,0,0,1.69-.39c.43-.26.65-.52.64-.79s-.21-.53-.64-.77A3.4,3.4,0,0,0,134.53,49.7Zm-.32-7.2a1.53,1.53,0,0,0-1,.31.81.81,0,0,0,0,1.38,1.71,1.71,0,0,0,1.95,0,.89.89,0,0,0,.37-.69.91.91,0,0,0-.38-.69A1.54,1.54,0,0,0,134.21,42.5Z"/><path d="M156.19,58.61a12.46,12.46,0,0,1-8.43-3,9.35,9.35,0,0,1-.08-14.59A13.27,13.27,0,0,1,164.5,41a9.36,9.36,0,0,1,.07,14.59A12.39,12.39,0,0,1,156.19,58.61Zm2.29-8.22a3.29,3.29,0,0,0,0-5.22,5,5,0,0,0-6.25,0,3.3,3.3,0,0,0,0,5.23,5,5,0,0,0,6.25,0Z"/><path d="M180.7,58.48a12.46,12.46,0,0,1-8.43-3,9.35,9.35,0,0,1-.08-14.59A13.27,13.27,0,0,1,189,40.84a9.35,9.35,0,0,1,.08,14.59A12.46,12.46,0,0,1,180.7,58.48ZM183,50.26A3.3,3.3,0,0,0,183,45a5,5,0,0,0-6.25,0,3.3,3.3,0,0,0,0,5.23,5,5,0,0,0,6.25,0Z"/><path d="M205.21,58.35a12.46,12.46,0,0,1-8.43-3,9.37,9.37,0,0,1-.08-14.59,13.27,13.27,0,0,1,16.82-.09,9.35,9.35,0,0,1,.08,14.59A12.46,12.46,0,0,1,205.21,58.35Zm2.29-8.22a3.31,3.31,0,0,0,0-5.23,4.62,4.62,0,0,0-3.13-1.08,4.69,4.69,0,0,0-3.13,1.12,3.31,3.31,0,0,0,0,5.22,5,5,0,0,0,6.25,0Z"/><circle class="cls-3" cx="58.32" cy="45.97" r="25.83"/><path class="cls-4" d="M51,41.31l.08,14c.5-.7,15.43,1.65,16.68,1.64a2.06,2.06,0,0,0,1.75-1.36,2.14,2.14,0,0,0-.52-2.8c1.53-.9,1.92-1.8,1.66-2.72l-1-2c1.55-1.37,1-3.73,1-3.73s-2.39-1.68-1.18-.84,2-2.3,1.16-2.3a18.34,18.34,0,0,0-9.78.06L63,31.46a2.61,2.61,0,0,0-2.27-2.7,3.43,3.43,0,0,0-3.17,1.71c.29.41-1.6,8-4.63,10.7Z"/><rect class="cls-5" x="43.65" y="38.92" width="7.31" height="18.06" transform="translate(-0.26 0.25) rotate(-0.31)"/></svg>
