<svg id="Layer_1" data-name="Layer 1" xmlns="http://www.w3.org/2000/svg" width="238" height="238" viewBox="0 0 238 238"><defs><style>.cls-1{fill:#3bafda;}.cls-2,.cls-3{fill:none;}.cls-3{stroke:#4fc1e9;stroke-miterlimit:10;stroke-width:25px;}.cls-4{fill:#4fc1e9;}</style></defs><title>Settings knap</title><circle class="cls-1" cx="119" cy="119" r="119"/><line class="cls-2" x1="79" y1="25" x2="142" y2="50"/><circle class="cls-3" cx="118.75" cy="118.75" r="48.75"/><rect class="cls-4" x="51.7" y="60.42" width="29.78" height="29.78" transform="translate(-33.08 88.38) rotate(-55.99)"/><rect class="cls-4" x="105.92" y="38" width="26.58" height="26.58"/><rect class="cls-4" x="155.79" y="56.48" width="26.49" height="26.49" transform="translate(107.8 -102.57) rotate(48.02)"/><rect class="cls-4" x="173.43" y="106.01" width="24.57" height="24.57" transform="translate(304.01 -67.42) rotate(90)"/><rect class="cls-4" x="41" y="109.08" width="26.51" height="26.51" transform="translate(176.58 68.08) rotate(90)"/><rect class="cls-4" x="60.75" y="152.36" width="30.36" height="30.36" transform="translate(-96.23 102.76) rotate(-45)"/><rect class="cls-4" x="158.03" y="154.11" width="27.63" height="27.63" transform="matrix(-0.74, 0.67, -0.67, -0.74, 411.91, 177.81)"/><rect class="cls-4" x="109" y="172.08" width="29.51" height="29.51" transform="translate(247.51 373.66) rotate(180)"/></svg>