<svg id="Layer_1" data-name="Layer 1" xmlns="http://www.w3.org/2000/svg" xmlns:xlink="http://www.w3.org/1999/xlink" width="1175" height="694.44" viewBox="0 0 1175 694.44"><defs><style>.cls-1{fill:url(#linear-gradient);}</style><linearGradient id="linear-gradient" y1="334.78" x2="1175" y2="334.78" gradientUnits="userSpaceOnUse"><stop offset="0" stop-color="#4fc1e9"/><stop offset="1" stop-color="#fff"/></linearGradient></defs><title>settings copy</title><rect class="cls-1" width="1175" height="669.57" rx="45"/><path d="M398.9,110.46q-12.3-1.68-12.3-15.08a31.31,31.31,0,0,1,.23-3.63Q388.59,75,425.54,72l3.83,20.5c-1.33,0-2.58,0-3.75,0q-14.14,0-14.88,2.74a1.09,1.09,0,0,0-.08.39q0,2.78,13.36,3.4,13.86.66,13.87,18v.82q-.36,18.17-40.2,19.37l-8-21.48a138.45,138.45,0,0,0,14.5,1c4.35,0,6.77-.5,7.26-1.52a1.55,1.55,0,0,0,.08-.47Q411.52,112.26,398.9,110.46Z"/><path d="M481.56,67.61l1.17,23.56-24.3,2.61.16,2,13.79-1.6.66,16-13.55,1.33.08,2,23.4-1.76L487,132.3,437.38,134l5-58.91Z"/><path d="M519,94.45l1.88,32.81-24.11,6.21,3.68-40.31-16-1.37,1.48-17,48.32-2.89,1.92,24.33Z"/><path d="M572.69,94.45l1.88,32.81-24.1,6.21,3.67-40.31-16-1.37,1.49-17L588,71.91l1.91,24.33Z"/><path d="M611,75.11l4.18,55.31-25,4.69,1.06-58.4Z"/><path d="M637.38,109.8l3,17.22-22.27,5.67L613.9,78.55l21.6-3.75,17.39,23L653.12,75l27.19-2.77-9,59.92-17.39,2.54Z"/><path d="M735.15,99.45l1,32-22.5,6.44.35-6.17a25.14,25.14,0,0,1-6.56.63,28.45,28.45,0,0,1-20.65-8.4,28.36,28.36,0,0,1,0-40.63,29.62,29.62,0,0,1,41.31,0L713,94.37a10.72,10.72,0,0,0-15,0,9.88,9.88,0,0,0-3.11,7.3q-.27,5.74,2.91,8.62c2.12,1.91,5,2.74,8.59,2.5a13.63,13.63,0,0,0,8.54-3.23l-8.17.55.55-8.94Z"/><path d="M748.71,110.46q-12.32-1.68-12.31-15.08a29.33,29.33,0,0,1,.24-3.63Q738.4,75,775.35,72l3.83,20.5c-1.33,0-2.58,0-3.75,0q-14.14,0-14.89,2.74a1.07,1.07,0,0,0-.07.39q0,2.78,13.36,3.4,13.86.66,13.86,18v.82q-.35,18.17-40.19,19.37l-8-21.48a138.46,138.46,0,0,0,14.49,1c4.35,0,6.77-.5,7.27-1.52a1.55,1.55,0,0,0,.08-.47Q761.33,112.26,748.71,110.46Z"/><path d="M338.89,224.41l1.72,27-11.33,1-.43-10.71-6.48,7-5.94-6,.45,8.4-10.6,2.17,1.3-28.79,10.1-1.35,4.65,12.09,5.41-11.58Z"/><path d="M342.84,225.62l11.8,2.31q-2.44,7.47-2.45,11.44,0,4.45,3.05,4.53,4.85,0,4.84-7.62a44.92,44.92,0,0,0-1.05-8.69l10.86-3.43a63.08,63.08,0,0,1,.9,10q0,18.7-15.57,18.89-14.31-.14-14.31-14.76A50.69,50.69,0,0,1,342.84,225.62Z"/><path d="M377.37,242.14q-6.15-.84-6.15-7.53a16.73,16.73,0,0,1,.11-1.82q.89-8.39,19.36-9.88l1.91,10.25-1.87,0q-7.07,0-7.44,1.37a.43.43,0,0,0,0,.19c0,.93,2.23,1.49,6.68,1.7q6.93.33,6.93,9v.41q-.17,9.07-20.1,9.68l-4-10.74a69.57,69.57,0,0,0,7.25.51c2.17,0,3.38-.25,3.63-.76a.67.67,0,0,0,0-.24C383.68,243.45,381.58,242.74,377.37,242.14Z"/><path d="M407.62,224.47l2.09,27.65-12.48,2.35.53-29.2Z"/><path d="M438.82,248.41q-7.54,4.68-13.85,4.67a14.52,14.52,0,0,1-10.79-4.55,15.7,15.7,0,0,1,0-21.94,15.07,15.07,0,0,1,21.57,0,17.14,17.14,0,0,1,3.65,5.74l-10,3a7,7,0,0,0-1.56-2.83,5.46,5.46,0,0,0-7.85,0,5.72,5.72,0,0,0,0,8,5.27,5.27,0,0,0,3.92,1.67q3.81.25,8.85-3.28Z"/><path d="M210.06,351.14q-6.17-.84-6.16-7.53a14.62,14.62,0,0,1,.12-1.82q.89-8.39,19.36-9.88l1.91,10.25-1.87,0q-7.08,0-7.45,1.37a.65.65,0,0,0,0,.19c0,.93,2.23,1.49,6.68,1.7q6.94.33,6.94,9v.41q-.18,9.07-20.1,9.68l-4-10.74a69.41,69.41,0,0,0,7.24.51c2.18,0,3.39-.25,3.64-.76a1,1,0,0,0,0-.24C216.36,352.45,214.26,351.74,210.06,351.14Z"/><path d="M246.52,362.08a17.36,17.36,0,0,1-11.73-4.19,13,13,0,0,1,0-20.33,18.49,18.49,0,0,1,23.44,0,13,13,0,0,1,0,20.33A17.33,17.33,0,0,1,246.52,362.08Zm3.25-11.43a4.61,4.61,0,0,0,0-7.29,7,7,0,0,0-8.71,0,4.61,4.61,0,0,0,0,7.29,7,7,0,0,0,8.71,0Z"/><path d="M266,334.62l11.8,2.31q-2.44,7.47-2.44,11.44c0,3,1,4.48,3.05,4.53q4.83,0,4.84-7.62a44.26,44.26,0,0,0-1.06-8.69l10.86-3.43a63.08,63.08,0,0,1,.9,10q0,18.71-15.56,18.89-14.32-.13-14.32-14.76A50.69,50.69,0,0,1,266,334.62Z"/><path d="M306.13,350.81l1.48,8.62-11.13,2.83-2.09-27.07,10.8-1.88,8.69,11.51.12-11.39L327.59,332l-4.51,30-8.69,1.27Z"/><path d="M329.88,362.08l-1.31-28.71q28.05,0,28.05,14.36T329.88,362.08Zm8.4-20.1,1.11,8.09h.14q7.05,0,7.05-4T338.28,342Z"/><path d="M391.44,329.72,392,341.5l-12.15,1.3.08,1,6.89-.8.33,8-6.77.66,0,1,11.7-.88,2,10.27-24.83.84,2.48-29.45Z"/><path d="M413.9,330.15l.86,9.55-12.26,2.21.37,1.28,7.75-1.44,1.1,9.57-7.23,1.21,1.68,8.16-11,1.49-2.26-26.95Z"/><path d="M436.23,330.15l.86,9.55-12.27,2.21.37,1.28,7.76-1.44,1.09,9.57-7.23,1.21,1.68,8.16-11,1.49-2.27-26.95Z"/><path d="M457.79,329.72l.59,11.78-12.15,1.3.08,1,6.89-.8.33,8-6.78.66,0,1,11.7-.88,2,10.27-24.82.84,2.48-29.45Z"/><path d="M487.73,357.41q-7.53,4.68-13.85,4.67a14.55,14.55,0,0,1-10.79-4.55,15.72,15.72,0,0,1,0-21.94,15.08,15.08,0,0,1,21.58,0,17.3,17.3,0,0,1,3.65,5.74l-10,3a6.86,6.86,0,0,0-1.57-2.83,5.46,5.46,0,0,0-7.85,0,5.72,5.72,0,0,0,0,8,5.31,5.31,0,0,0,3.93,1.67q3.81.26,8.85-3.28Z"/><path d="M506.56,343.14l.94,16.4-12.05,3.11,1.83-20.16-8-.68.75-8.5,24.16-1.44.95,12.16Z"/><path d="M522.28,351.14q-6.15-.84-6.15-7.53a14.62,14.62,0,0,1,.12-1.82q.87-8.39,19.35-9.88l1.92,10.25-1.88,0q-7.07,0-7.44,1.37a.43.43,0,0,0,0,.19c0,.93,2.23,1.49,6.68,1.7q6.93.33,6.93,9v.41q-.16,9.07-20.09,9.68l-4-10.74a69.57,69.57,0,0,0,7.25.51c2.17,0,3.38-.25,3.63-.76a.67.67,0,0,0,0-.24C528.59,352.45,526.49,351.74,522.28,351.14Z"/></svg>