<svg id="Layer_1" data-name="Layer 1" xmlns="http://www.w3.org/2000/svg" width="197" height="118.85" viewBox="0 0 197 118.85"><defs><style>.cls-1{fill:#ed5565;}</style></defs><title>spillet</title><path class="cls-1" d="M39.69,6.21a28.64,28.64,0,0,1,8.09.62A15.71,15.71,0,0,1,52.92,9a8.11,8.11,0,0,1,2.76,3.09,11.55,11.55,0,0,1,1.07,3.41,11.68,11.68,0,0,1,0,3.12,21.37,21.37,0,0,1-.39,2.24c-.08.39-.25,1.06-.48,2s-.58,2.07-1,3.35-.93,2.65-1.5,4.12-1.19,2.92-1.88,4.33a31.33,31.33,0,0,1-2.31,4,13.85,13.85,0,0,1-2.7,3A18.93,18.93,0,0,1,42.91,44a27.74,27.74,0,0,1-4,1.69,17,17,0,0,1-3.71.82,5.84,5.84,0,0,1-2.66-.23,1.3,1.3,0,0,1-.88-1.4,5.46,5.46,0,0,1,1.62-2.76,31,31,0,0,0,1.92-2.44q1.28-1.73,2.76-4.06T41,30.52q1.56-2.73,2.83-5.43a48.57,48.57,0,0,0,2.08-5.17,13.31,13.31,0,0,0,.78-4.29,3.85,3.85,0,0,0-1-2.79c-.68-.65-1.81-.89-3.42-.72a13.57,13.57,0,0,0-5.29,1.79,22.91,22.91,0,0,0-4.59,3.51,35.67,35.67,0,0,0-3.77,4.39,50.22,50.22,0,0,0-2.89,4.45A33.66,33.66,0,0,0,23.8,30,17.23,17.23,0,0,0,23,32.27a18.48,18.48,0,0,0,0,7.87,16,16,0,0,0,2.64,5.56,27.93,27.93,0,0,0,4,4.32,48.73,48.73,0,0,1,4.22,4.16,18.26,18.26,0,0,1,3.22,5.1,15.61,15.61,0,0,1,1,7.12,17.77,17.77,0,0,1-1.36,5.78,15.78,15.78,0,0,1-2.8,4.39,17.69,17.69,0,0,1-3.77,3.15,24.16,24.16,0,0,1-4.22,2.12A25,25,0,0,1,21.68,83a35.88,35.88,0,0,1-3.77.52q-6.3.45-10.17-1.33A13.16,13.16,0,0,1,2,77.48,12.48,12.48,0,0,1,0,71a16.68,16.68,0,0,1,1.17-6.76,14.56,14.56,0,0,1,3.67-5.4,9.13,9.13,0,0,1,5.52-2.47,10.73,10.73,0,0,1,5.43.75,8.87,8.87,0,0,1,3.25,2.47,8.23,8.23,0,0,1,1.53,3,7.14,7.14,0,0,1,.32,2.27A4.18,4.18,0,0,1,20.19,67c-.39.49-1.15.35-2.28-.43a2.29,2.29,0,0,0-2.11-.35,4.8,4.8,0,0,0-2,1.3,7.58,7.58,0,0,0-1.5,2.24,7.09,7.09,0,0,0-.65,2.47A6.82,6.82,0,0,0,12,74.43a5.27,5.27,0,0,0,1.2,1.95,6,6,0,0,0,2.21,1.39,9.72,9.72,0,0,0,3.45.52,4.91,4.91,0,0,0,2.6-1,13.06,13.06,0,0,0,2.86-2.74,16.89,16.89,0,0,0,2.34-4.06,13.66,13.66,0,0,0,1-5,7.65,7.65,0,0,0-1.33-4.55,24.75,24.75,0,0,0-3.55-4.1c-1.43-1.34-3-2.74-4.58-4.19a32.18,32.18,0,0,1-4.45-4.91,24,24,0,0,1-3.25-6.14,17.82,17.82,0,0,1,.16-12.09A33.89,33.89,0,0,1,13.3,24a43.35,43.35,0,0,1,4.19-6.07,34.74,34.74,0,0,1,5.79-5.63,31,31,0,0,1,7.37-4.19A26.89,26.89,0,0,1,39.69,6.21Z"/><path class="cls-1" d="M53.08,43.13c-.13-.87,0-1.38.26-1.53a2.45,2.45,0,0,1,1.1-.23,8.19,8.19,0,0,1,2,.26,8.3,8.3,0,0,1,2,.75,6.08,6.08,0,0,1,1.6,1.24,3,3,0,0,1,.81,1.59,13.81,13.81,0,0,1,0,4.16c.73-.91,1.53-1.81,2.37-2.7a26.2,26.2,0,0,1,2.6-2.4,15.15,15.15,0,0,1,2.67-1.76A5.52,5.52,0,0,1,71,41.83a4.67,4.67,0,0,1,4.94,5.46,1,1,0,0,0-.06.39,24.51,24.51,0,0,1,3.67-1.43,6,6,0,0,1,2.31-.33,7.93,7.93,0,0,1,2.31.82,3.86,3.86,0,0,1,1.17,1,1.44,1.44,0,0,1,.32.91c0,.28-.12.45-.29.49a51.71,51.71,0,0,0-10.56,4.61,62,62,0,0,0-8.1,5.59l8.39-4.94a71.31,71.31,0,0,1-2.18,7.28,40.6,40.6,0,0,1-3.48,7.45A24.13,24.13,0,0,1,64.49,75a10.5,10.5,0,0,1-6.41,2.63,4.31,4.31,0,0,1-2.6-.45A4.44,4.44,0,0,1,54,75.73a4.68,4.68,0,0,1-.69-1.82,13.25,13.25,0,0,1-.13-1.6,15.57,15.57,0,0,1,1.43-5.46,27.2,27.2,0,0,1,3.16-5.13A36,36,0,0,1,62.08,57c1.63-1.47,3.28-2.84,5-4.1l.33-1.88c.13-1-.08-1.38-.62-1.27A5.9,5.9,0,0,0,64.58,51a32.9,32.9,0,0,0-3,2.76c-1.13,1.13-2.21,2.27-3.25,3.44q-1.7,3.71-4,7.61T50.06,73a52.35,52.35,0,0,0-3.22,9.07A31.16,31.16,0,0,0,46,92.27,4.12,4.12,0,0,1,45.83,94c-.15.39-.73.5-1.72.32-.48-.08-1-.19-1.66-.32s-1.24-.27-1.85-.42-1.15-.31-1.63-.46a2.06,2.06,0,0,1-1-.55A8.67,8.67,0,0,1,36.47,86a37.25,37.25,0,0,1,2.18-8.84,96.2,96.2,0,0,1,4.32-10l4.91-9.81q2.34-4.68,3.9-8.45C52.82,46.46,53.25,44.52,53.08,43.13Zm5.59,26.52a3.9,3.9,0,0,0,2-1,11.78,11.78,0,0,0,1.88-2.24,20.59,20.59,0,0,0,1.59-2.9c.48-1,.89-2,1.24-3A48.23,48.23,0,0,0,61.85,64a36.29,36.29,0,0,0-2.37,3,8.17,8.17,0,0,0-1.1,2C58.22,69.46,58.32,69.69,58.67,69.65Z"/><path class="cls-1" d="M83.37,42.48c.08-.22.41-.34,1-.36a7.3,7.3,0,0,1,2,.26,13.46,13.46,0,0,1,2.3.85,7.36,7.36,0,0,1,2,1.33,3.92,3.92,0,0,1,1.1,1.79,2.73,2.73,0,0,1-.36,2.17q-2,3.51-3.67,7.41c-1.15,2.6-2.11,5-2.89,7.12a54.08,54.08,0,0,0-1.69,5.3c-.35,1.39-.39,2.06-.13,2a3.91,3.91,0,0,0,1.72-1.2,26.6,26.6,0,0,0,2.24-2.57c.78-1,1.58-2.07,2.41-3.21l2.27-3.16c.7-.95,1.28-1.74,1.76-2.37s.78-.94.91-.94a3.79,3.79,0,0,1,.81.13,3.1,3.1,0,0,1,1,.45,1.94,1.94,0,0,1,.72.88,2.05,2.05,0,0,1,0,1.4,22.39,22.39,0,0,1-1,2.31c-.56,1.14-1.3,2.46-2.21,3.93s-1.94,3-3.08,4.52a28.41,28.41,0,0,1-3.68,4.06,14.71,14.71,0,0,1-4.06,2.66,5.5,5.5,0,0,1-4.13.2,4.46,4.46,0,0,1-1.88-1.14,7.06,7.06,0,0,1-1.14-1.53A5.58,5.58,0,0,1,75,73.29c-.11-.48-.19-.83-.23-1A11.94,11.94,0,0,1,75,68.58q.42-2.44,1.23-5.46t1.89-6.28q1.06-3.24,2.08-6.14c.67-1.93,1.28-3.63,1.85-5.1S83.06,43.09,83.37,42.48ZM92.66,24.8a4.4,4.4,0,0,1,2.77.13,16.42,16.42,0,0,1,3.41,1.43,9.51,9.51,0,0,1,2.53,1.92c.61.67.65,1.2.13,1.59s-1.25,1-2,1.62a25.49,25.49,0,0,0-2.08,2.08,24,24,0,0,0-2,2.64,15.6,15.6,0,0,0-1.63,3.21q-.26.59-1.17.39a7.62,7.62,0,0,1-2-.78,11.75,11.75,0,0,1-2-1.33,3.54,3.54,0,0,1-1-1.14,5.36,5.36,0,0,1,.3-2.44,26.53,26.53,0,0,1,1.33-3.83,35.27,35.27,0,0,1,1.79-3.64C91.76,25.54,92.27,24.93,92.66,24.8Z"/><path class="cls-1" d="M97,77.19A5,5,0,0,1,94.06,75a11.45,11.45,0,0,1-1.53-4.1,25.46,25.46,0,0,1-.39-5.23A48,48,0,0,1,92.6,60a44.19,44.19,0,0,1,1.07-5.36,34.9,34.9,0,0,1,1.46-4.46,10.49,10.49,0,0,1-.45-1.49,6.24,6.24,0,0,1,.13-3.12,11,11,0,0,1,1.13-2.67,4.45,4.45,0,0,1,1.34-1.49c.43-.26.67-.13.71.39v.45q1.7-3.63,3.8-7.44c1.41-2.54,2.84-4.86,4.29-7a48.42,48.42,0,0,1,4.26-5.42,9.56,9.56,0,0,1,3.71-2.77,4.94,4.94,0,0,1,2.37.07,6.82,6.82,0,0,1,2.89,1.43,6.75,6.75,0,0,1,2.08,3.05,8.73,8.73,0,0,1,.07,4.88,31.64,31.64,0,0,1-4.1,9.88,37.85,37.85,0,0,1-6.07,7.38,27,27,0,0,1-6.57,4.58,11,11,0,0,1-5.43,1.36h-.71a7.12,7.12,0,0,0,1.92.46,14,14,0,0,0,2.76,0c-.65,1.64-1.21,3.08-1.66,4.29s-.84,2.3-1.14,3.25a16.15,16.15,0,0,0-.62,2.63,14.35,14.35,0,0,0-.09,2.57,7.3,7.3,0,0,0,.39,2.14c.21.61.89.94,2,1a4.17,4.17,0,0,0,2.08-1,37.17,37.17,0,0,0,3-2.53q1.66-1.53,3.38-3.32c1.15-1.19,2.24-2.34,3.25-3.45l2.64-2.85c.73-.81,1.21-1.32,1.43-1.53a1,1,0,0,1,.84-.52,1.85,1.85,0,0,1,1,.32,2.67,2.67,0,0,1,.81.91,2.36,2.36,0,0,1,.33,1.17,6.86,6.86,0,0,1-1.24,2.41c-.82,1.25-1.89,2.72-3.22,4.39s-2.83,3.41-4.55,5.23a58.47,58.47,0,0,1-5.23,4.94,29.37,29.37,0,0,1-5.2,3.51A7.11,7.11,0,0,1,97,77.19ZM115.8,28.76c-.52,0-1.13.38-1.85,1.27a20.86,20.86,0,0,0-2.24,3.64c-.78,1.54-1.61,3.28-2.47,5.23s-1.71,4-2.54,6a27.08,27.08,0,0,0,3.9-4.48,52.26,52.26,0,0,0,3.25-5.17,26.75,26.75,0,0,0,2-4.39C116.25,29.59,116.24,28.89,115.8,28.76Z"/><path class="cls-1" d="M116.84,77.19A5,5,0,0,1,114,75a11.45,11.45,0,0,1-1.53-4.1,25.46,25.46,0,0,1-.39-5.23,48,48,0,0,1,.46-5.62,44.19,44.19,0,0,1,1.07-5.36A34.9,34.9,0,0,1,115,50.21a10.49,10.49,0,0,1-.45-1.49,6.24,6.24,0,0,1,.13-3.12,11,11,0,0,1,1.13-2.67,4.45,4.45,0,0,1,1.34-1.49c.43-.26.67-.13.71.39v.45q1.7-3.63,3.8-7.44c1.41-2.54,2.84-4.86,4.29-7a47.29,47.29,0,0,1,4.26-5.42,9.56,9.56,0,0,1,3.71-2.77,4.94,4.94,0,0,1,2.37.07,6.82,6.82,0,0,1,5,4.48,8.73,8.73,0,0,1,.07,4.88,31.64,31.64,0,0,1-4.1,9.88,37.53,37.53,0,0,1-6.08,7.38,26.72,26.72,0,0,1-6.56,4.58,11,11,0,0,1-5.43,1.36h-.71a7.13,7.13,0,0,0,1.91.46,14.13,14.13,0,0,0,2.77,0c-.65,1.64-1.21,3.08-1.66,4.29s-.84,2.3-1.14,3.25a16.15,16.15,0,0,0-.62,2.63,14.35,14.35,0,0,0-.09,2.57,7.3,7.3,0,0,0,.39,2.14c.21.61.89.94,2,1a4.17,4.17,0,0,0,2.08-1,37.17,37.17,0,0,0,3-2.53q1.67-1.53,3.38-3.32c1.15-1.19,2.24-2.34,3.25-3.45l2.64-2.85c.73-.81,1.21-1.32,1.43-1.53a.94.94,0,0,1,.84-.52,1.85,1.85,0,0,1,1,.32,2.67,2.67,0,0,1,.81.91,2.36,2.36,0,0,1,.33,1.17,6.86,6.86,0,0,1-1.24,2.41c-.82,1.25-1.89,2.72-3.22,4.39s-2.83,3.41-4.55,5.23a58.47,58.47,0,0,1-5.23,4.94,29.37,29.37,0,0,1-5.2,3.51A7.11,7.11,0,0,1,116.84,77.19Zm18.85-48.43c-.52,0-1.14.38-1.85,1.27a20.86,20.86,0,0,0-2.24,3.64c-.78,1.54-1.61,3.28-2.47,5.23s-1.71,4-2.54,6a27.08,27.08,0,0,0,3.9-4.48,52.26,52.26,0,0,0,3.25-5.17,26.75,26.75,0,0,0,2-4.39C136.14,29.59,136.12,28.89,135.69,28.76Z"/><path class="cls-1" d="M155.84,61.78c-.65,0-1.42.09-2.31.13s-1.78.11-2.69.2l-2.7.26c-.89.09-1.66.17-2.31.26a7.87,7.87,0,0,1,2,.39c.46.17.86.35,1.21.52q-4,4.54-6.31,4.55a5,5,0,0,1-2.4-.59,2.38,2.38,0,0,1-1.11-1.33,3.33,3.33,0,0,1-.06-1.72,6.46,6.46,0,0,1,.65-1.76v-.06a3.69,3.69,0,0,0-1.11,1.62,4.15,4.15,0,0,0-.19,1.6,5.25,5.25,0,0,0,.26,1.3,3.8,3.8,0,0,0,.32.74,4.09,4.09,0,0,1,0,.62,2.93,2.93,0,0,0,0,.49,6.28,6.28,0,0,0,.06.78,1.74,1.74,0,0,0,.36.84,2.34,2.34,0,0,0,.88.68,4.13,4.13,0,0,0,1.62.36,5.64,5.64,0,0,0,2.5-.62,22.73,22.73,0,0,0,3.45-1.88q1.85-1.2,3.8-2.73c1.3-1,2.53-2.07,3.67-3.15a39.75,39.75,0,0,0,3-3.16,11.11,11.11,0,0,0,1.82-2.76c.3-.78.7-1.21,1.2-1.3a1.42,1.42,0,0,1,1.3.43,2.78,2.78,0,0,1,.71,1.65,4.31,4.31,0,0,1-.42,2.41,21.07,21.07,0,0,1-1.2,1.91c-.63.94-1.45,2-2.47,3.25s-2.21,2.54-3.58,3.91a40.9,40.9,0,0,1-4.42,3.83,27,27,0,0,1-5.07,3A16.91,16.91,0,0,1,140.7,78a5.8,5.8,0,0,1-1.82-.2,8.91,8.91,0,0,1-2.44-1,15.18,15.18,0,0,1-2.8-2.18,18.44,18.44,0,0,1-2.89-3.73,7.46,7.46,0,0,1-.65-4.29,28.6,28.6,0,0,1,1.3-6.47,44.53,44.53,0,0,1,3-7.21A28.93,28.93,0,0,1,139,46.38a19.07,19.07,0,0,1,5.89-4.29,10.83,10.83,0,0,1,6.95-.72,8.2,8.2,0,0,1,3.61,1.56A5.09,5.09,0,0,1,157,45.18a5.65,5.65,0,0,1,.26,2.4c-.09.8-.17,1.49-.26,2.05a17.15,17.15,0,0,1-1.3,4.06,32,32,0,0,1-2.21,4,4.73,4.73,0,0,1,1.82.58,3.46,3.46,0,0,1,.88,1,3.18,3.18,0,0,1,.45,1.13,1.59,1.59,0,0,1-.09,1A.72.72,0,0,1,155.84,61.78Zm-14.1-1.43a11.16,11.16,0,0,1,2.89-1.56,21.19,21.19,0,0,1,3.28-.91c.61-1.12,1.23-2.3,1.85-3.54s1.15-2.37,1.56-3.41a11,11,0,0,0,.75-2.6c.09-.7-.09-1-.52-1a3.63,3.63,0,0,0-2.31,1.17,20.65,20.65,0,0,0-2.6,3,40.6,40.6,0,0,0-2.6,4.19Q142.78,58,141.74,60.35Zm2.14,3.32s.15-.1.33-.29.34-.38.52-.56a3,3,0,0,0-.85.2c-.26.22-.35.38-.26.49A.38.38,0,0,0,143.88,63.67Z"/><path class="cls-1" d="M164.16,33.12c1,.17,2.08.36,3.12.55l3.19.62c1.25-2.77,2.24-5.06,2.95-6.86a16.86,16.86,0,0,0,1.21-4c0-.39.47-.55,1.3-.48a5.17,5.17,0,0,1,2.53,1,6.42,6.42,0,0,1,2.11,2.73,7,7,0,0,1,.1,4.62c-.26,1-.48,1.85-.65,2.44a15.42,15.42,0,0,1-.65,1.78,34.38,34.38,0,0,0,8.06-.29,19.09,19.09,0,0,0,7.61-3c.43-.26.74-.36.94-.29a.48.48,0,0,1,.32.48,2.53,2.53,0,0,1-.09.88,3.09,3.09,0,0,1-.33.81,11.75,11.75,0,0,1-4.68,4.42,12.92,12.92,0,0,1-5.33,1.2,24.93,24.93,0,0,1-5.82-.64c-2-.46-4-.86-6.07-1.21.6.22,1.31.45,2.11.68l1.59.49c-1.08,2.08-2.3,4.54-3.64,7.38s-2.71,5.73-4.09,8.68c-.39.91-.86,2.1-1.4,3.57s-1,3-1.46,4.49-.77,2.9-1,4.16a4.83,4.83,0,0,0,0,2.6c.43,1,1,1.41,1.72,1.1a6.73,6.73,0,0,0,2.37-2.08,29.1,29.1,0,0,0,2.6-3.93q1.31-2.31,2.47-4.42c.78-1.41,1.44-2.61,2-3.61s.9-1.47,1.08-1.43a2.87,2.87,0,0,1,1.36.62,2,2,0,0,1,.59.85,3.26,3.26,0,0,1,.06,1.13s-.28.62-.71,1.73-1,2.43-1.82,4-1.72,3.23-2.8,5a27.51,27.51,0,0,1-3.67,4.78A16.93,16.93,0,0,1,166.79,77a7.85,7.85,0,0,1-5.16.72,4.62,4.62,0,0,1-2.6-1.3,5,5,0,0,1-1-3.12,30.23,30.23,0,0,1,.1-5.72,48.93,48.93,0,0,1,1.26-7.12A45.18,45.18,0,0,1,162,53L169,37.47a19.42,19.42,0,0,0-4.72.85,12.75,12.75,0,0,0-4.51,2.6,2.23,2.23,0,0,1-.69.42.68.68,0,0,1-.48,0,1,1,0,0,1-.39-.26,2.93,2.93,0,0,1-.95-2.27,5.45,5.45,0,0,1,.75-2.86,6.32,6.32,0,0,1,2.31-2.28A5.7,5.7,0,0,1,164.16,33.12Z"/></svg>
