<svg id="Layer_1" data-name="Layer 1" xmlns="http://www.w3.org/2000/svg" width="2208" height="1242" viewBox="0 0 2208 1242"><defs><style>.cls-1{fill:#4fc1e9;}.cls-2{fill:#3bafda;}.cls-3{fill:#efac71;}.cls-4{fill:#c17e3d;}.cls-4,.cls-5{stroke:#c17e3d;}.cls-16,.cls-18,.cls-21,.cls-23,.cls-24,.cls-27,.cls-28,.cls-33,.cls-34,.cls-35,.cls-36,.cls-4,.cls-5{stroke-miterlimit:10;}.cls-18,.cls-4,.cls-5{stroke-width:3px;}.cls-16,.cls-18,.cls-21,.cls-35,.cls-36,.cls-5{fill:none;}.cls-24,.cls-27,.cls-6{fill:#dadfe1;}.cls-7{fill:#0a0f11;}.cls-8{fill:#435054;}.cls-9{fill:#3f63ab;}.cls-10{fill:#e9ebee;}.cls-11{fill:#fff;}.cls-12{fill:#1b2a4a;}.cls-13{fill:#ffc44d;}.cls-14{fill:#ed5565;}.cls-15{fill:#da4453;}.cls-16{stroke:#050401;stroke-width:4px;}.cls-17{fill:#050401;}.cls-18{stroke:#050505;}.cls-19{fill:#e5b045;}.cls-20{fill:#ffd071;}.cls-21{stroke:#e5b045;stroke-width:5px;}.cls-22{fill:#020202;}.cls-23,.cls-28{fill:#f7f7f7;}.cls-23,.cls-27,.cls-28{stroke:#3f63ab;}.cls-23,.cls-27,.cls-35{stroke-width:15px;}.cls-24{stroke:#00708e;stroke-width:2px;}.cls-25{fill:#e6e9ed;}.cls-26{fill:#f5f7fa;}.cls-28,.cls-36{stroke-width:6px;}.cls-29{fill:#d87a45;}.cls-30{fill:#25a53a;}.cls-31{fill:#ededed;}.cls-32{fill:#afacac;}.cls-33{fill:#e8e7e6;}.cls-33,.cls-34{stroke:#2d1a08;}.cls-34{fill:#a5805e;}.cls-35{stroke:#fff;}.cls-36{stroke:#828282;opacity:0.4;}</style></defs><title>spil</title><rect class="cls-1" x="-0.5" y="0.5" width="2208" height="1242"/><polygon class="cls-2" points="4386.29 1263.66 2193.14 1252.83 0 1242 1099.67 620.94 2199.34 -0.11 3292.81 631.77 4386.29 1263.66"/><polygon class="cls-3" points="3105 1263.43 -819 1263.43 -148.19 712.18 2543.8 712.18 3105 1263.43"/><line class="cls-4" x1="-310.93" y1="845.45" x2="2669" y2="833.33"/><line class="cls-4" x1="-505.51" y1="995.37" x2="2818.54" y2="983.26"/><line class="cls-4" x1="-678.47" y1="1143.78" x2="2930.24" y2="1131.67"/><line class="cls-5" x1="994.3" y1="713.16" x2="967.4" y2="842.96"/><line class="cls-5" x1="804.29" y1="840.9" x2="804.29" y2="987.8"/><line class="cls-5" x1="1315.96" y1="989.32" x2="1315.96" y2="1136.22"/><line class="cls-5" x1="345.57" y1="1144.21" x2="297.32" y2="1259.98"/><line class="cls-5" x1="169.43" y1="991.46" x2="127.54" y2="1134.08"/><line class="cls-5" x1="1896.46" y1="711" x2="1881.31" y2="831.48"/><line class="cls-5" x1="2008.37" y1="841.99" x2="1978.39" y2="986.71"/><line class="cls-5" x1="1754.13" y1="1138.68" x2="1728.16" y2="1264"/><path class="cls-6" d="M2122.4,1577h-1982c-48.53,0-77.53-54-50.7-94.47l260.58-392.71a132.45,132.45,0,0,1,110-59.23l1422.55-4.48a60.82,60.82,0,0,1,53.32,31.2l239.44,429.22C2198.15,1527.08,2168.83,1577,2122.4,1577Z"/><rect class="cls-6" x="338.93" y="100.98" width="1631.73" height="944.85" rx="51.27"/><rect class="cls-7" x="339" y="968" width="1621" height="77" rx="19"/><rect class="cls-7" x="339" y="101" width="48" height="905" rx="24"/><rect class="cls-7" x="339" y="101" width="1621" height="77" rx="19"/><circle class="cls-8" cx="1149" cy="139" r="10"/><rect class="cls-9" x="387" y="178" width="1536" height="75"/><rect class="cls-10" x="387" y="253" width="1536" height="715"/><rect class="cls-11" x="781" y="299" width="756" height="154"/><rect class="cls-11" x="781" y="494" width="756" height="474"/><rect class="cls-11" x="1568" y="299" width="321" height="321"/><rect class="cls-11" x="1568" y="662" width="321" height="263"/><rect class="cls-11" x="408" y="192" width="47" height="47"/><rect class="cls-11" x="483" y="192" width="596" height="47"/><circle class="cls-12" cx="1624" cy="215" r="21"/><circle class="cls-12" cx="1693" cy="215" r="21"/><circle class="cls-12" cx="1762" cy="215" r="21"/><polygon class="cls-12" points="1796.09 203.61 1810.31 203.56 1824.53 203.51 1817.46 215.85 1810.4 228.19 1803.24 215.9 1796.09 203.61"/><rect class="cls-6" x="387" y="1140" width="118" height="78" rx="39"/><path class="cls-13" d="M1301,812.52c-9.93,70.07-64,121.62-144,138.33-90.46,18.88-197.77-68.28-144-138.33,50.51-65.87,123.77-132.4,144-138.34C1266.25,642.18,1311.06,741.66,1301,812.52Z"/><rect class="cls-14" x="1138.64" y="651.62" width="119.99" height="25.78" rx="9.12"/><path class="cls-13" d="M973.64,809.05c-9.94-20.13-13.22-44.61-8.44-41.17,3.48,2.5,11.22,29.76,27.56,31.74,22.29,2.69,13.71,38.57,8.43,41.17S983.58,829.19,973.64,809.05Z"/><path class="cls-13" d="M1150.72,651.12l-18.38-6.1c-5.68,4.9-12.69-40.53,0-45,7.14-2.53,23.15-27.47,23.15-27.47-3.27-17.2-3.09-33.19,6.81-45.79,2.1-6.4,9.32-10.49,21.78-12.21,6.48-3.19,13.65-1.88,22.47,9.92l21.1,19.84c6.26,6,17.83,5.34,31.32,2.29l13.61-6.87c8.09-8.24,17.05-7,26.55,0,8,8.43,0,24.42,0,24.42s-5,16.61-13.61,25.18l-15.66,3.82c-22.51,5.62-50,4.27-79.65,0v12.21c16.25,16.82,33.6,28.27,51.74,35.86l19.06,2.29-6.13,7.63Z"/><path class="cls-13" d="M1084.07,583.15c5.7,20.94,30.49,49.07,46.93-4.85,7.11-23.31,36.12-26.44,32-34.68s-25.14-6.07-46.93,4.85S1081.64,574.26,1084.07,583.15Z"/><path class="cls-13" d="M1251.82,503.32c-1.85-5.15-29-.11-29-.11s-22.73,13.09-22.31,18.55c.22,2.86,8.49-3.72,29,.11C1244.31,524.64,1253.67,508.48,1251.82,503.32Z"/><path class="cls-15" d="M1258.63,643.19l9.42,4c3.18,8.88,5.93,16.58,7.44,20.82,3.64,5.46,9.49,8.12,16.61,9.17,10.87-2.43,13.45-9.89,16.86-16.85-2.15-6.78-14.38-17.36-14.38-17.36s-12.41-12.28-21.32-15.37c-14,1.43-24.21,6.19-31.73,13.39Z"/><path class="cls-16" d="M1186.44,546.28a48.64,48.64,0,0,1-13.36-2.13"/><path class="cls-16" d="M1200.74,530.35c-.12,4.25-3.41,6.45-5.14,8.91"/><ellipse class="cls-17" cx="1287.14" cy="538.57" rx="4.96" ry="10.16" transform="translate(614.86 1761.21) rotate(-83.9)"/><path class="cls-18" d="M1167.4,534.6c-.23-5.64,2.53-8.19,9.92-6"/><path class="cls-18" d="M1186.24,525.68c-.23-5.65,2.53-8.2,9.92-5.95"/><path class="cls-19" d="M1283.89,719.88,1177.32,945.7c13.39-4.23,25.89-9,36.64-14.72,17.11-9.19,31.52-18.76,34.06-22.7a126,126,0,0,0,31.45-36.2,148.28,148.28,0,0,0,23-61.55c.3-17.48.21-34.93-3-47.71C1298,750.05,1293.32,735.94,1283.89,719.88Z"/><path class="cls-13" d="M1173.1,832.85c11.13,49.07,23.75,113.41,31.24,125.44,10.84,2.89,23,2.23,35.7,0a27,27,0,0,0,1.49-12.4L1240,937c-5.18-3-9.93-3.47-13.88-1l-27.77-103.13"/><path class="cls-13" d="M1264.66,892.61c2,21.28,4.12,42.24,10.58,53.28,8,6.65,23.83,5,38.18,0,2.87-7.56,4-14.84,0-21.32-6-2.5-13.89-3-24.29-1l-2-55.71v-8.82"/><ellipse class="cls-20" cx="1258.49" cy="674.84" rx="10.3" ry="10.16" transform="translate(-101.62 1109.93) rotate(-45.94)"/><path class="cls-21" d="M1057.08,875c15.13-23.4,46-26.81,62.47-12.89,16.77,14.13,18.35,45.79-4.54,64.46a84.22,84.22,0,0,1,36.85,0c6.34-.16,9.64,2.61,11.33,6.94,2.14,6.1,0,11.73-6.45,16.86a61.52,61.52,0,0,1-27.16,3.1c-10,1.57-17.2-.21-23.44-3.19"/><rect x="822" y="1063" width="75" height="36" rx="18"/><rect x="505" y="1063" width="75" height="36" rx="18"/><rect x="609" y="1063" width="75" height="36" rx="18"/><rect x="710" y="1063" width="75" height="36" rx="18"/><rect x="1373" y="1063" width="75" height="36" rx="18"/><rect x="1266" y="1063" width="75" height="36" rx="18"/><rect x="1148" y="1063" width="75" height="36" rx="18"/><rect x="1050" y="1063" width="75" height="36" rx="18"/><rect x="933" y="1063" width="75" height="36" rx="18"/><rect x="1812" y="1063" width="75" height="36" rx="18"/><rect x="1691" y="1063" width="75" height="36" rx="18"/><rect x="1587" y="1063" width="75" height="36" rx="18"/><rect x="1469" y="1063" width="75" height="36" rx="18"/><rect class="cls-22" x="361" y="1106" width="69" height="69" rx="20.13"/><rect class="cls-22" x="459" y="1106" width="69" height="69" rx="20.13"/><rect class="cls-22" x="1627" y="1111" width="69" height="69" rx="20.13"/><rect class="cls-22" x="1518" y="1111" width="69" height="69" rx="20.13"/><rect class="cls-22" x="1412" y="1111" width="69" height="69" rx="20.13"/><rect class="cls-22" x="1306" y="1111" width="69" height="69" rx="20.13"/><rect class="cls-22" x="1196" y="1111" width="69" height="69" rx="20.13"/><rect class="cls-22" x="1085" y="1111" width="69" height="69" rx="20.13"/><rect class="cls-22" x="970" y="1111" width="69" height="69" rx="20.13"/><rect class="cls-22" x="862" y="1111" width="69" height="69" rx="20.13"/><rect class="cls-22" x="767" y="1111" width="69" height="69" rx="20.13"/><rect class="cls-22" x="661" y="1111" width="69" height="69" rx="20.13"/><rect class="cls-22" x="560" y="1111" width="69" height="69" rx="20.13"/><rect class="cls-22" x="1734" y="1117" width="180" height="60.7" rx="29"/><rect class="cls-22" x="508" y="1194" width="69" height="69" rx="20.13"/><rect class="cls-22" x="612" y="1196" width="69" height="69" rx="20.13"/><rect class="cls-22" x="705" y="1196" width="69" height="69" rx="20.13"/><rect class="cls-22" x="796" y="1196" width="69" height="69" rx="20.13"/><rect x="396" y="1063" width="75" height="36" rx="18"/><rect class="cls-22" x="306" y="1194" width="180" height="60.7" rx="29"/><rect class="cls-22" x="886" y="1194" width="69" height="69" rx="20.13"/><rect class="cls-22" x="973" y="1194" width="69" height="69" rx="20.13"/><rect class="cls-22" x="1085" y="1194" width="69" height="69" rx="20.13"/><rect class="cls-22" x="1195" y="1202" width="69" height="69" rx="20.13"/><rect class="cls-22" x="1306" y="1202" width="69" height="69" rx="20.13"/><rect class="cls-22" x="1414" y="1202" width="69" height="69" rx="20.13"/><rect class="cls-22" x="1518" y="1196" width="69" height="69" rx="20.13"/><rect class="cls-22" x="1627" y="1202" width="69" height="69" rx="20.13"/><rect class="cls-22" x="1748" y="1206" width="128" height="62" rx="31"/><rect class="cls-23" x="24.88" y="75.88" width="265.8" height="83.72" rx="34.75" transform="translate(-0.63 0.85) rotate(-0.31)"/><rect class="cls-24" x="112.4" y="92.53" width="153.85" height="49.95" rx="20.73" transform="translate(-0.63 1.02) rotate(-0.31)"/><path d="M157.79,114.62s.2.13.55.39a5.66,5.66,0,0,1,2.54,4.61,5.58,5.58,0,0,1-2.46,4.6,10.31,10.31,0,0,1-11.87.06,5.58,5.58,0,0,1-2.51-4.57,5.67,5.67,0,0,1,2.5-4.64l.25-.19a4.52,4.52,0,0,1-1.21-3.37,5.24,5.24,0,0,1,1.93-4.12,7.29,7.29,0,0,1,9.32,0,5.24,5.24,0,0,1,2,4.1A4.45,4.45,0,0,1,157.79,114.62Zm-5.92,2.94a3.32,3.32,0,0,0-1.68.38c-.43.25-.65.51-.64.78s.21.53.65.78a3.32,3.32,0,0,0,1.68.37,3.43,3.43,0,0,0,1.69-.39c.43-.25.64-.52.64-.79s-.21-.53-.65-.77A3.24,3.24,0,0,0,151.87,117.56Zm-.32-7.21a1.48,1.48,0,0,0-1,.32.87.87,0,0,0-.38.68.86.86,0,0,0,.39.69,1.53,1.53,0,0,0,1,.3,1.44,1.44,0,0,0,1-.31.91.91,0,0,0,.38-.69.87.87,0,0,0-.38-.68A1.48,1.48,0,0,0,151.55,110.35Z"/><path d="M173.53,126.47a12.51,12.51,0,0,1-8.44-3,9.36,9.36,0,0,1-.07-14.59,13.26,13.26,0,0,1,16.81-.09,9.35,9.35,0,0,1,.08,14.59A12.44,12.44,0,0,1,173.53,126.47Zm2.29-8.22a3.3,3.3,0,0,0,0-5.23,5,5,0,0,0-6.25,0,3.3,3.3,0,0,0,0,5.23,5,5,0,0,0,6.25,0Z"/><path d="M198,126.33a12.46,12.46,0,0,1-8.43-3,9.35,9.35,0,0,1-.08-14.59,13.27,13.27,0,0,1,16.82-.09,9.37,9.37,0,0,1,.08,14.59A12.41,12.41,0,0,1,198,126.33Zm2.29-8.22a3.29,3.29,0,0,0,0-5.22,5,5,0,0,0-6.25,0,3.3,3.3,0,0,0,0,5.23,5,5,0,0,0,6.25,0Z"/><path d="M222.55,126.2a12.46,12.46,0,0,1-8.43-3,9.35,9.35,0,0,1-.08-14.59,13.27,13.27,0,0,1,16.82-.09,9.35,9.35,0,0,1,.08,14.59A12.41,12.41,0,0,1,222.55,126.2Zm2.29-8.22a3.29,3.29,0,0,0,0-5.22,5,5,0,0,0-6.25,0,3.3,3.3,0,0,0,0,5.23,5,5,0,0,0,6.25,0Z"/><circle class="cls-1" cx="75.66" cy="113.82" r="25.83"/><path class="cls-25" d="M68.33,109.16l.07,14c.51-.7,15.44,1.65,16.69,1.65a2.09,2.09,0,0,0,1.75-1.37,2.13,2.13,0,0,0-.52-2.79c1.53-.9,1.92-1.81,1.66-2.73l-1-2c1.56-1.38,1-3.74,1-3.74s-2.39-1.68-1.18-.84,2-2.3,1.16-2.29a18.34,18.34,0,0,0-9.78,0l2.21-9.76a2.61,2.61,0,0,0-2.28-2.7,3.44,3.44,0,0,0-3.16,1.71c.29.42-1.61,8-4.63,10.71Z"/><rect class="cls-26" x="60.99" y="106.78" width="7.31" height="18.06" transform="translate(-0.62 0.35) rotate(-0.31)"/><rect class="cls-23" x="20" y="196.2" width="274" height="86.3" rx="40.75"/><path class="cls-13" d="M96.11,250.81c-1.41,9.95-9.08,17.27-20.46,19.64-12.84,2.68-28.08-9.69-20.45-19.64,7.17-9.36,17.57-18.81,20.45-19.65C91.17,226.62,97.53,240.74,96.11,250.81Z"/><rect class="cls-14" x="73.05" y="227.96" width="17.04" height="3.66" rx="1.73"/><path class="cls-13" d="M49.62,250.31c-1.42-2.86-1.88-6.33-1.2-5.84.49.35,1.59,4.22,3.91,4.5,3.17.39,2,5.48,1.2,5.85S51,253.17,49.62,250.31Z"/><path class="cls-13" d="M74.76,227.89,72.15,227c-.8.7-1.8-5.76,0-6.39,1-.36,3.29-3.91,3.29-3.91-.46-2.44-.44-4.71,1-6.5.3-.91,1.32-1.49,3.09-1.73.92-.45,1.94-.27,3.19,1.41l3,2.81c.89.86,2.53.76,4.45.33l1.93-1c1.15-1.17,2.42-1,3.77,0,1.14,1.2,0,3.47,0,3.47a10,10,0,0,1-1.93,3.58l-2.23.54c-3.19.8-7.1.61-11.31,0v1.73a21.87,21.87,0,0,0,7.35,5.1l2.71.32-.87,1.09Z"/><path class="cls-13" d="M65.3,218.23c.81,3,4.33,7,6.66-.69,1-3.31,5.13-3.75,4.55-4.92s-3.57-.86-6.67.69S65,217,65.3,218.23Z"/><path class="cls-13" d="M89.12,206.9c-.26-.74-4.12,0-4.12,0s-3.23,1.86-3.17,2.63c0,.41,1.21-.52,4.12,0C88.05,209.92,89.38,207.63,89.12,206.9Z"/><path class="cls-15" d="M90.09,226.76l1.34.56,1,3a3.21,3.21,0,0,0,2.36,1.3c1.54-.34,1.91-1.4,2.4-2.39a8.81,8.81,0,0,0-2-2.47,11.42,11.42,0,0,0-3-2.18,7.34,7.34,0,0,0-4.51,1.9Z"/><path class="cls-16" d="M79.84,213a6.56,6.56,0,0,1-1.9-.31"/><path class="cls-16" d="M81.87,210.74c0,.6-.49.91-.73,1.26"/><ellipse class="cls-17" cx="94.14" cy="211.9" rx="0.7" ry="1.44" transform="translate(-126.57 282.99) rotate(-83.9)"/><path class="cls-18" d="M77.13,211.34c0-.8.36-1.16,1.41-.85"/><path class="cls-18" d="M79.81,210.07c0-.8.36-1.16,1.41-.84"/><path class="cls-19" d="M93.67,237.65,78.54,269.72a30.3,30.3,0,0,0,5.2-2.09c2.43-1.31,4.48-2.66,4.84-3.22a18.1,18.1,0,0,0,4.47-5.14,21.21,21.21,0,0,0,3.27-8.75,28.29,28.29,0,0,0-.43-6.77A15.78,15.78,0,0,0,93.67,237.65Z"/><path class="cls-13" d="M77.94,253.69c1.58,7,3.37,16.11,4.44,17.82a12,12,0,0,0,5.07,0,3.88,3.88,0,0,0,.21-1.76l-.21-1.27a1.83,1.83,0,0,0-2-.14l-4-14.65"/><path class="cls-13" d="M90.94,262.18c.29,3,.59,6,1.51,7.57,1.14.94,3.38.7,5.42,0a3.33,3.33,0,0,0,0-3,5.92,5.92,0,0,0-3.45-.14l-.28-7.91v-1.25"/><ellipse class="cls-20" cx="90.07" cy="231.25" rx="1.46" ry="1.44" transform="translate(-138.75 135.16) rotate(-45.94)"/><path class="cls-21" d="M61.46,259.68c2.15-3.32,6.53-3.81,8.88-1.83s2.6,6.5-.65,9.15a12,12,0,0,1,5.23,0,1.49,1.49,0,0,1,1.61,1,2,2,0,0,1-.91,2.39,8.74,8.74,0,0,1-3.86.44,5.35,5.35,0,0,1-3.33-.45"/><path class="cls-13" d="M171.27,250.81c-1.41,9.95-9.09,17.27-20.46,19.64-12.85,2.68-28.08-9.69-20.45-19.64,7.17-9.36,17.57-18.81,20.45-19.65C166.33,226.62,172.69,240.74,171.27,250.81Z"/><rect class="cls-14" x="148.21" y="227.96" width="17.04" height="3.66" rx="1.73"/><path class="cls-13" d="M124.77,250.31c-1.41-2.86-1.87-6.33-1.19-5.84.49.35,1.59,4.22,3.91,4.5,3.16.39,2,5.48,1.2,5.85S126.18,253.17,124.77,250.31Z"/><path class="cls-13" d="M149.92,227.89l-2.61-.87c-.81.7-1.8-5.76,0-6.39,1-.36,3.29-3.91,3.29-3.91-.47-2.44-.44-4.71,1-6.5.3-.91,1.33-1.49,3.1-1.73.92-.45,1.94-.27,3.19,1.41l3,2.81c.89.86,2.53.76,4.44.33l1.94-1c1.15-1.17,2.42-1,3.77,0,1.14,1.2,0,3.47,0,3.47a10.13,10.13,0,0,1-1.94,3.58l-2.22.54c-3.2.8-7.1.61-11.31,0v1.73a21.87,21.87,0,0,0,7.35,5.1l2.7.32-.87,1.09Z"/><path class="cls-13" d="M140.46,218.23c.81,3,4.33,7,6.66-.69,1-3.31,5.13-3.75,4.54-4.92s-3.57-.86-6.66.69S140.11,217,140.46,218.23Z"/><path class="cls-13" d="M164.28,206.9c-.26-.74-4.12,0-4.12,0s-3.23,1.86-3.17,2.63c0,.41,1.2-.52,4.12,0C163.21,209.92,164.54,207.63,164.28,206.9Z"/><path class="cls-15" d="M165.25,226.76l1.33.56,1.06,3a3.21,3.21,0,0,0,2.36,1.3c1.54-.34,1.91-1.4,2.39-2.39a8.65,8.65,0,0,0-2-2.47,11.35,11.35,0,0,0-3-2.18,7.31,7.31,0,0,0-4.5,1.9Z"/><path class="cls-16" d="M155,213a6.54,6.54,0,0,1-1.89-.31"/><path class="cls-16" d="M157,210.74c0,.6-.48.91-.73,1.26"/><ellipse class="cls-17" cx="169.29" cy="211.9" rx="0.7" ry="1.44" transform="translate(-59.4 357.72) rotate(-83.9)"/><path class="cls-18" d="M152.29,211.34c0-.8.36-1.16,1.41-.85"/><path class="cls-18" d="M155,210.07c0-.8.35-1.16,1.4-.84"/><path class="cls-19" d="M168.83,237.65,153.7,269.72a30.3,30.3,0,0,0,5.2-2.09c2.43-1.31,4.48-2.66,4.84-3.22a18.1,18.1,0,0,0,4.47-5.14,21.21,21.21,0,0,0,3.27-8.75,28.29,28.29,0,0,0-.43-6.77A15.78,15.78,0,0,0,168.83,237.65Z"/><path class="cls-13" d="M153.1,253.69c1.58,7,3.37,16.11,4.44,17.82a12,12,0,0,0,5.07,0,3.88,3.88,0,0,0,.21-1.76l-.21-1.27a1.85,1.85,0,0,0-2-.14l-3.94-14.65"/><path class="cls-13" d="M166.1,262.18c.29,3,.59,6,1.5,7.57,1.15.94,3.39.7,5.43,0a3.36,3.36,0,0,0,0-3,5.92,5.92,0,0,0-3.45-.14l-.29-7.91v-1.25"/><ellipse class="cls-20" cx="165.23" cy="231.25" rx="1.46" ry="1.44" transform="translate(-115.86 189.17) rotate(-45.94)"/><path class="cls-21" d="M136.62,259.68c2.15-3.32,6.53-3.81,8.87-1.83s2.61,6.5-.64,9.15a12,12,0,0,1,5.23,0,1.5,1.5,0,0,1,1.61,1,2,2,0,0,1-.91,2.39,8.76,8.76,0,0,1-3.86.44,5.35,5.35,0,0,1-3.33-.45"/><path class="cls-13" d="M245.83,250.81c-1.41,9.95-9.08,17.27-20.45,19.64-12.85,2.68-28.09-9.69-20.46-19.64,7.18-9.36,17.58-18.81,20.46-19.65C240.89,226.62,247.26,240.74,245.83,250.81Z"/><rect class="cls-14" x="222.77" y="227.96" width="17.04" height="3.66" rx="1.73"/><path class="cls-13" d="M199.34,250.31c-1.41-2.86-1.88-6.33-1.2-5.84.5.35,1.59,4.22,3.91,4.5,3.17.39,1.95,5.48,1.2,5.85S200.75,253.17,199.34,250.31Z"/><path class="cls-13" d="M224.49,227.89l-2.61-.87c-.81.7-1.81-5.76,0-6.39,1-.36,3.28-3.91,3.28-3.91-.46-2.44-.44-4.71,1-6.5.3-.91,1.33-1.49,3.09-1.73.92-.45,1.94-.27,3.19,1.41l3,2.81c.89.86,2.53.76,4.45.33l1.93-1c1.15-1.17,2.42-1,3.77,0,1.14,1.2,0,3.47,0,3.47a10,10,0,0,1-1.93,3.58l-2.22.54c-3.2.8-7.11.61-11.32,0v1.73a22,22,0,0,0,7.35,5.1l2.71.32-.87,1.09Z"/><path class="cls-13" d="M215,218.23c.81,3,4.33,7,6.67-.69,1-3.31,5.13-3.75,4.54-4.92s-3.57-.86-6.67.69S214.68,217,215,218.23Z"/><path class="cls-13" d="M238.84,206.9c-.26-.74-4.12,0-4.12,0s-3.22,1.86-3.17,2.63c0,.41,1.21-.52,4.13,0C237.78,209.92,239.11,207.63,238.84,206.9Z"/><path class="cls-15" d="M239.81,226.76l1.34.56,1.06,3a3.18,3.18,0,0,0,2.35,1.3c1.55-.34,1.91-1.4,2.4-2.39a8.82,8.82,0,0,0-2-2.47,11.53,11.53,0,0,0-3-2.18,7.34,7.34,0,0,0-4.51,1.9Z"/><path class="cls-16" d="M229.56,213a6.62,6.62,0,0,1-1.9-.31"/><path class="cls-16" d="M231.59,210.74c0,.6-.48.91-.73,1.26"/><ellipse class="cls-17" cx="243.86" cy="211.9" rx="0.7" ry="1.44" transform="matrix(0.11, -0.99, 0.99, 0.11, 7.25, 431.87)"/><path class="cls-18" d="M226.86,211.34c0-.8.35-1.16,1.4-.85"/><path class="cls-18" d="M229.53,210.07c0-.8.36-1.16,1.41-.84"/><path class="cls-19" d="M243.4,237.65l-15.14,32.07a30.41,30.41,0,0,0,5.21-2.09c2.43-1.31,4.47-2.66,4.83-3.22a17.94,17.94,0,0,0,4.47-5.14,21.07,21.07,0,0,0,3.27-8.75,27.78,27.78,0,0,0-.43-6.77A15.58,15.58,0,0,0,243.4,237.65Z"/><path class="cls-13" d="M227.67,253.69c1.57,7,3.37,16.11,4.43,17.82a12,12,0,0,0,5.07,0,3.75,3.75,0,0,0,.21-1.76l-.21-1.27a1.83,1.83,0,0,0-2-.14l-3.94-14.65"/><path class="cls-13" d="M240.67,262.18c.28,3,.58,6,1.5,7.57,1.14.94,3.38.7,5.42,0a3.3,3.3,0,0,0,0-3,5.92,5.92,0,0,0-3.45-.14l-.28-7.91v-1.25"/><ellipse class="cls-20" cx="239.79" cy="231.25" rx="1.46" ry="1.44" transform="translate(-93.14 242.76) rotate(-45.94)"/><path class="cls-21" d="M211.19,259.68c2.15-3.32,6.53-3.81,8.87-1.83s2.61,6.5-.64,9.15a12,12,0,0,1,5.23,0,1.5,1.5,0,0,1,1.61,1,2.05,2.05,0,0,1-.92,2.39,8.71,8.71,0,0,1-3.85.44,5.34,5.34,0,0,1-3.33-.45"/><rect class="cls-27" x="17.5" y="319" width="290.5" height="91.5" rx="45"/><rect class="cls-28" x="44.48" y="335.21" width="236.54" height="58.98" rx="29.49"/><rect class="cls-13" x="48" y="336.46" width="173.1" height="56.47" rx="28.23"/><rect class="cls-11" x="420" y="299" width="321" height="633"/><rect class="cls-10" x="446" y="351" width="264" height="25"/><rect class="cls-10" x="448" y="410" width="264" height="91"/><rect class="cls-10" x="452" y="529" width="264" height="91"/><rect class="cls-10" x="452" y="651" width="264" height="25"/><rect class="cls-10" x="452" y="707" width="264" height="25"/><rect class="cls-10" x="452" y="761" width="258" height="153"/><rect class="cls-10" x="819" y="331" width="688" height="96"/><rect class="cls-10" x="1603" y="351" width="260" height="121"/><rect class="cls-10" x="1603" y="523" width="260" height="59"/><rect class="cls-10" x="1600" y="683" width="260" height="217"/><path class="cls-29" d="M2082.08,835H1973.7A19.81,19.81,0,0,1,1954,816.85l-13.61-162a19.82,19.82,0,0,1,19.74-21.47H2093a19.81,19.81,0,0,1,19.76,21.14l-10.88,161.95A19.81,19.81,0,0,1,2082.08,835Z"/><rect class="cls-29" x="1925" y="606.33" width="203.26" height="45.17" rx="14.79"/><circle class="cls-30" cx="1944.2" cy="588.26" r="12.42"/><circle class="cls-30" cx="1952.67" cy="600.69" r="12.42"/><circle class="cls-30" cx="1969.04" cy="600.69" r="12.42"/><circle class="cls-30" cx="2037.36" cy="598.99" r="12.42"/><circle class="cls-30" cx="2049.78" cy="600.69" r="12.42"/><circle class="cls-30" cx="2018.73" cy="586.57" r="12.42"/><circle class="cls-30" cx="2018.73" cy="598.99" r="12.42"/><circle class="cls-30" cx="2006.3" cy="598.99" r="12.42"/><circle class="cls-30" cx="1981.46" cy="586.57" r="12.42"/><circle class="cls-30" cx="1993.88" cy="598.99" r="12.42"/><circle class="cls-30" cx="1965.09" cy="581.49" r="12.42"/><circle class="cls-30" cx="1981.46" cy="598.99" r="12.42"/><circle class="cls-30" cx="2062.2" cy="598.99" r="12.42"/><circle class="cls-30" cx="2074.62" cy="598.99" r="12.42"/><circle class="cls-30" cx="2087.04" cy="598.99" r="12.42"/><circle class="cls-30" cx="2049.78" cy="586.57" r="12.42"/><circle class="cls-30" cx="2106.24" cy="598.99" r="12.42"/><circle class="cls-30" cx="1995.01" cy="575.84" r="12.42"/><circle class="cls-30" cx="2074.62" cy="586.57" r="12.42"/><circle class="cls-30" cx="2106.24" cy="581.49" r="12.42"/><circle class="cls-30" cx="2118.66" cy="588.26" r="12.42"/><circle class="cls-30" cx="2034.53" cy="575.84" r="12.42"/><circle class="cls-30" cx="1952.67" cy="569.07" r="12.42"/><circle class="cls-30" cx="2062.2" cy="575.84" r="12.42"/><circle class="cls-30" cx="2081.4" cy="581.49" r="12.42"/><circle class="cls-30" cx="1977.51" cy="569.07" r="12.42"/><circle class="cls-30" cx="2013.64" cy="578.67" r="12.42"/><circle class="cls-30" cx="2049.78" cy="567.94" r="12.42"/><circle class="cls-30" cx="2007.43" cy="588.26" r="12.42"/><circle class="cls-30" cx="2093.82" cy="575.84" r="12.42"/><circle class="cls-30" cx="2013.64" cy="566.24" r="12.42"/><circle class="cls-30" cx="2087.04" cy="563.42" r="12.42"/><circle class="cls-30" cx="2099.47" cy="586.57" r="12.42"/><circle class="cls-30" cx="2113.02" cy="574.15" r="12.42"/><path class="cls-29" d="M2177.91,954.92h-93.08a17,17,0,0,1-16.95-15.59l-11.69-139.09a17,17,0,0,1,16.95-18.44h114.12a17,17,0,0,1,17,18.15l-9.35,139.1A17,17,0,0,1,2177.91,954.92Z"/><rect class="cls-29" x="2043" y="758.52" width="174.58" height="38.79" rx="14.79"/><circle class="cls-30" cx="2059.49" cy="743.01" r="10.67"/><circle class="cls-30" cx="2066.76" cy="753.67" r="10.67"/><circle class="cls-30" cx="2080.82" cy="753.67" r="10.67"/><circle class="cls-30" cx="2139.5" cy="752.22" r="10.67"/><circle class="cls-30" cx="2150.17" cy="753.67" r="10.67"/><circle class="cls-30" cx="2123.5" cy="741.55" r="10.67"/><circle class="cls-30" cx="2123.5" cy="752.22" r="10.67"/><circle class="cls-30" cx="2112.83" cy="752.22" r="10.67"/><circle class="cls-30" cx="2091.49" cy="741.55" r="10.67"/><circle class="cls-30" cx="2102.16" cy="752.22" r="10.67"/><circle class="cls-30" cx="2077.43" cy="737.19" r="10.67"/><circle class="cls-30" cx="2091.49" cy="752.22" r="10.67"/><circle class="cls-30" cx="2160.84" cy="752.22" r="10.67"/><circle class="cls-30" cx="2171.51" cy="752.22" r="10.67"/><circle class="cls-30" cx="2182.18" cy="752.22" r="10.67"/><circle class="cls-30" cx="2150.17" cy="741.55" r="10.67"/><circle class="cls-30" cx="2198.66" cy="752.22" r="10.67"/><circle class="cls-30" cx="2103.13" cy="732.34" r="10.67"/><circle class="cls-30" cx="2171.51" cy="741.55" r="10.67"/><circle class="cls-30" cx="2198.66" cy="737.19" r="10.67"/><circle class="cls-30" cx="2209.33" cy="743.01" r="10.67"/><circle class="cls-30" cx="2137.08" cy="732.34" r="10.67"/><circle class="cls-30" cx="2066.76" cy="726.52" r="10.67"/><circle class="cls-30" cx="2160.84" cy="732.34" r="10.67"/><circle class="cls-30" cx="2177.33" cy="737.19" r="10.67"/><circle class="cls-30" cx="2088.1" cy="726.52" r="10.67"/><circle class="cls-30" cx="2119.13" cy="734.76" r="10.67"/><circle class="cls-30" cx="2150.17" cy="725.55" r="10.67"/><circle class="cls-30" cx="2113.8" cy="743.01" r="10.67"/><circle class="cls-30" cx="2187.99" cy="732.34" r="10.67"/><circle class="cls-30" cx="2119.13" cy="724.09" r="10.67"/><circle class="cls-30" cx="2182.18" cy="721.67" r="10.67"/><circle class="cls-30" cx="2192.84" cy="741.55" r="10.67"/><circle class="cls-30" cx="2204.48" cy="730.88" r="10.67"/><rect class="cls-7" x="1923" y="101" width="48" height="944" rx="24"/><ellipse class="cls-31" cx="58.53" cy="1054.7" rx="280.47" ry="75.3"/><ellipse class="cls-32" cx="50.73" cy="1055.62" rx="188.82" ry="33.31"/><path class="cls-11" d="M107.93,1089.25l-98.8-.71c-22.37,0-118.94-32-118.94-56.62V906.5c0-24.67,33.9-37.27,56.27-37.27H159.23c22.37,0,67.65,12.6,67.65,37.27l-.65,124C226.23,1055.15,130.3,1089.25,107.93,1089.25Z"/><ellipse class="cls-33" cx="58.81" cy="892.42" rx="166.77" ry="44.42"/><ellipse class="cls-34" cx="56.58" cy="914.73" rx="131.95" ry="22.1"/><path class="cls-35" d="M225.25,929.36c37.18-.74,67.71,18.82,68.2,43.68s-29.24,45.62-66.42,46.35Z"/><path class="cls-36" d="M31.43,733c-42.1,89.52,35.45,101.69,0,149"/><path class="cls-36" d="M71.43,700c-42.1,89.52,35.45,101.69,0,149"/><path class="cls-36" d="M110.43,760c-42.1,89.52,35.45,101.69,0,149"/></svg>
