<svg id="Layer_1" data-name="Layer 1" xmlns="http://www.w3.org/2000/svg" width="1334" height="750" viewBox="0 0 1334 750"><defs><style>.cls-1,.cls-14{fill:#4fc1e9;}.cls-1{stroke:#000;}.cls-1,.cls-13,.cls-20,.cls-21,.cls-22,.cls-23,.cls-3,.cls-8,.cls-9{stroke-miterlimit:10;}.cls-2{fill:#3bafda;}.cls-3{fill:#ffce54;stroke:#ddad28;stroke-width:10px;}.cls-4{fill:#ed5565;}.cls-5{fill:#e6e9ed;}.cls-6{fill:#f5f7fa;}.cls-7{fill:#efac71;}.cls-8{fill:#c17e3d;}.cls-8,.cls-9{stroke:#c17e3d;stroke-width:3px;}.cls-12,.cls-13,.cls-22,.cls-23,.cls-9{fill:none;}.cls-10{fill:#dadfe1;}.cls-11{fill:#eaf1cc;}.cls-13{stroke:#4fc1e9;stroke-width:20px;}.cls-15{fill:#d87a45;}.cls-16{fill:#25a53a;}.cls-17{fill:#ededed;}.cls-18{fill:#afacac;}.cls-19{fill:#fff;}.cls-20{fill:#e8e7e6;}.cls-20,.cls-21{stroke:#2d1a08;}.cls-21{fill:#a5805e;}.cls-22{stroke:#fff;stroke-width:12px;}.cls-23{stroke:#828282;stroke-width:6px;opacity:0.4;}</style></defs><title>start skaerm</title><rect class="cls-1" x="0.5" y="0.5" width="1334" height="750"/><path class="cls-2" d="M1379,745l4-4c1-7-1-13,0-20,1-1,3-2,4-4,1-4-1-9,1-11,5-7,3-10,4-14,1-2,3-3,4-4,1-19,2-38-1-57-1-6-2-12-4-15-16-23-8-51-6-75,2-40,1-79,2-118,0-4-3-8-4-12-1-7,1-14,0-21-8-40-14-78-13-118,1-7-2-13-3-20-.94-78.35-.12-156.71,0-235.06L1337.64.05,660.32,381-17,762l1350.84,6.67,44.86.22C1378.52,761,1378.42,753.17,1379,745Z"/><rect class="cls-1" x="0.5" y="0.5" width="1334" height="750"/><path class="cls-2" d="M1379,745l4-4c1-7-1-13,0-20,1-1,3-2,4-4,1-4-1-9,1-11,5-7,3-10,4-14,1-2,3-3,4-4,1-19,2-38-1-57-1-6-2-12-4-15-16-23-8-51-6-75,2-40,1-79,2-118,0-4-3-8-4-12-1-7,1-14,0-21-8-40-14-78-13-118,1-7-2-13-3-20-.94-78.35-.12-156.71,0-235.06L1337.64.05,660.32,381-17,762l1350.84,6.67,44.86.22C1378.52,761,1378.42,753.17,1379,745Z"/><path class="cls-3" d="M308.85,229.75,341,221,353,274l23.78-8.91,4.18,36.39L332.23,314Z"/><path class="cls-3" d="M395.27,204.48l28.91,78-34.05,17.09L367.49,215Z"/><path class="cls-3" d="M437,219.33l9-33.6,41.19-3.44L463.08,231l35.34,12.06-24.32,31L449.23,254.5l7.13,17-29.72,13.17L407,200.13l22.58-2.72Z"/><path class="cls-3" d="M552.52,159.89l7.5,34.57-35.32,9.82.73,3,20-5.75L550.34,225l-19.74,5.28.6,2.93,34.2-8.33,11,29.42-73.06,14.63-7.07-88.4Z"/><path class="cls-3" d="M659,191.94l-1.29-17.88L685.91,164,706,239.38l-43.28,6.81-1.8-26-18.72-1.07L641,248.05l-29.65-10.79,6.94-69,26.59,3.15-1,19.77Z"/><path class="cls-3" d="M708.8,162.54,744,170.29q-7.86,22.26-8.14,34.15-.32,13.35,8.82,13.81,14.52.23,15.07-22.5a134.27,134.27,0,0,0-2.55-26.15L790,160.07a190.69,190.69,0,0,1,2,30.17q-1.34,56.06-48,55.54-42.93-1.42-41.89-45.3Q702.48,184.37,708.8,162.54Z"/><path class="cls-3" d="M828.81,216.88l1.61,26.17-34.12,4.8,2.62-81.41,32.82-2.06,22.16,37.15L858,167.62l41,.31L875.71,255.8l-26.33.94Z"/><path class="cls-3" d="M949.42,211.55l-6.37,48.89-37.25,2.44,16.63-58.4L899.27,198l6.92-24.63,72,9.19-4,36.41Z"/><path class="cls-3" d="M1047.78,193.38l-7,34.69-36.3-5.13-.52,3,20.64,2.74-4.91,23.48-20.2-3-.62,2.92,34.68,6L1032,289.46l-72.82-15.81L988,189.81Z"/><path class="cls-3" d="M1069.05,296.05l-36.88-6.51,35.26-85.33q73.53,30.06,68,55.88c-.38,1.65-.8,3.21-1.29,4.7q-6.86,21.12-31.25,21.26l17.13,18L1086,318.86l-13.92-36.38Zm14-55.79-3,11.05q24.06,7.83,25.24,4.21Q1106.53,251.66,1083,240.26Z"/><path class="cls-4" d="M1039.69,310.71a29.12,29.12,0,0,1,8.1.62,16,16,0,0,1,5.13,2.14,8,8,0,0,1,2.76,3.09,11.53,11.53,0,0,1,1.11,6.53,21.65,21.65,0,0,1-.39,2.25c-.09.39-.25,1.06-.49,2s-.58,2.07-1,3.35-.93,2.65-1.49,4.13-1.19,2.91-1.89,4.32a30.64,30.64,0,0,1-2.31,4,14.15,14.15,0,0,1-2.69,3,19.7,19.7,0,0,1-3.61,2.34,30.16,30.16,0,0,1-4,1.69,17.41,17.41,0,0,1-3.71.81,5.74,5.74,0,0,1-2.66-.23,1.3,1.3,0,0,1-.88-1.4,5.58,5.58,0,0,1,1.63-2.76c.43-.47,1.07-1.29,1.91-2.44s1.77-2.5,2.77-4.06,2-3.25,3-5.07,2-3.63,2.83-5.43a44.57,44.57,0,0,0,2.08-5.16,13.4,13.4,0,0,0,.78-4.29,3.81,3.81,0,0,0-1-2.8c-.67-.65-1.81-.89-3.41-.71a13.43,13.43,0,0,0-5.3,1.78,23.31,23.31,0,0,0-4.58,3.51,34,34,0,0,0-3.77,4.39,49.43,49.43,0,0,0-2.89,4.45,32.25,32.25,0,0,0-1.89,3.77,17.15,17.15,0,0,0-.81,2.25,18.12,18.12,0,0,0,0,7.86,15.81,15.81,0,0,0,2.63,5.56,28.43,28.43,0,0,0,4,4.32,48.85,48.85,0,0,1,4.23,4.16,18.53,18.53,0,0,1,3.21,5.1,15.62,15.62,0,0,1,1,7.12,18.09,18.09,0,0,1-1.37,5.79,15.7,15.7,0,0,1-2.79,4.38,18.24,18.24,0,0,1-3.77,3.16,24.53,24.53,0,0,1-4.23,2.11,25.13,25.13,0,0,1-4.22,1.2,36.61,36.61,0,0,1-3.77.52q-6.31.45-10.17-1.33A13.06,13.06,0,0,1,1002,382a12.64,12.64,0,0,1-2-6.53,16.88,16.88,0,0,1,1.17-6.76,14.56,14.56,0,0,1,3.67-5.39,9.07,9.07,0,0,1,5.53-2.47,10.63,10.63,0,0,1,5.43.74,9.07,9.07,0,0,1,3.25,2.47,8.44,8.44,0,0,1,1.52,3,7.58,7.58,0,0,1,.33,2.28,4.26,4.26,0,0,1-.72,2.24c-.39.5-1.15.36-2.27-.42a2.28,2.28,0,0,0-2.11-.36,4.94,4.94,0,0,0-2,1.3,8,8,0,0,0-1.49,2.24,6.93,6.93,0,0,0-.65,2.47,6.82,6.82,0,0,0,.36,2.18,5,5,0,0,0,1.2,1.95,6,6,0,0,0,2.21,1.4,9.93,9.93,0,0,0,3.44.52,4.88,4.88,0,0,0,2.6-1,12.77,12.77,0,0,0,2.86-2.73,17.08,17.08,0,0,0,2.34-4.06,13.71,13.71,0,0,0,1-5,7.6,7.6,0,0,0-1.33-4.55,24.16,24.16,0,0,0-3.54-4.09c-1.43-1.35-3-2.74-4.58-4.2a32.17,32.17,0,0,1-4.46-4.9,24.34,24.34,0,0,1-3.25-6.15,18.64,18.64,0,0,1-.84-8,17.77,17.77,0,0,1,1-4.13,33.33,33.33,0,0,1,2.56-5.55,44.39,44.39,0,0,1,4.2-6.08,34.25,34.25,0,0,1,5.78-5.62,31.3,31.3,0,0,1,7.38-4.2A26.83,26.83,0,0,1,1039.69,310.71Z"/><path class="cls-4" d="M1053.08,347.63c-.13-.86,0-1.37.26-1.53a2.47,2.47,0,0,1,1.11-.22,7.82,7.82,0,0,1,2,.26,8.63,8.63,0,0,1,1.95.74,6.2,6.2,0,0,1,1.59,1.24,3.11,3.11,0,0,1,.81,1.59,13.19,13.19,0,0,1,0,4.16q1.11-1.37,2.37-2.7a28.75,28.75,0,0,1,2.6-2.4,15.73,15.73,0,0,1,2.67-1.76,5.68,5.68,0,0,1,2.57-.68,4.69,4.69,0,0,1,4.94,5.46.82.82,0,0,0-.07.39,26.11,26.11,0,0,1,3.67-1.43,5.75,5.75,0,0,1,2.31-.32,7.47,7.47,0,0,1,2.31.81,4,4,0,0,1,1.17,1,1.33,1.33,0,0,1,.32.91c0,.29-.12.45-.29.49a52.21,52.21,0,0,0-10.56,4.62,60.27,60.27,0,0,0-8.09,5.59l8.38-4.94a69.57,69.57,0,0,1-2.18,7.28,41.46,41.46,0,0,1-3.47,7.44,24,24,0,0,1-4.91,5.91,10.45,10.45,0,0,1-6.4,2.64,4.37,4.37,0,0,1-2.6-.46,4.57,4.57,0,0,1-1.53-1.46,4.46,4.46,0,0,1-.68-1.82,11.46,11.46,0,0,1-.13-1.59,15.25,15.25,0,0,1,1.43-5.46,26.41,26.41,0,0,1,3.15-5.14,38.08,38.08,0,0,1,4.35-4.68c1.63-1.47,3.29-2.84,5-4.09l.32-1.89c.13-.95-.07-1.37-.62-1.27a5.88,5.88,0,0,0-2.17,1.24,35.83,35.83,0,0,0-3.06,2.76q-1.69,1.69-3.25,3.45-1.69,3.7-4,7.6t-4.26,8.19a53.19,53.19,0,0,0-3.22,9.07,31.44,31.44,0,0,0-.84,10.17,4.07,4.07,0,0,1-.17,1.69c-.15.39-.72.5-1.72.33l-1.66-.33c-.62-.13-1.24-.27-1.85-.42s-1.15-.3-1.62-.46a2,2,0,0,1-1-.55,8.66,8.66,0,0,1-1.53-6.5,37.86,37.86,0,0,1,2.18-8.84,96.07,96.07,0,0,1,4.32-9.94l4.91-9.82q2.34-4.68,3.9-8.45A12.58,12.58,0,0,0,1053.08,347.63Zm5.59,26.52a3.73,3.73,0,0,0,2-1,11.19,11.19,0,0,0,1.88-2.24,21.56,21.56,0,0,0,1.6-2.89q.71-1.56,1.23-3.06a44.41,44.41,0,0,0-3.57,3.58,33.15,33.15,0,0,0-2.38,2.95,8.19,8.19,0,0,0-1.1,2C1058.23,374,1058.32,374.2,1058.67,374.15Z"/><path class="cls-4" d="M1083.37,347c.09-.21.41-.33,1-.36a7.28,7.28,0,0,1,2,.26,13.25,13.25,0,0,1,2.31.85,7.38,7.38,0,0,1,2,1.33,4,4,0,0,1,1.1,1.79,2.79,2.79,0,0,1-.35,2.18q-1.95,3.51-3.68,7.41c-1.14,2.6-2.11,5-2.89,7.11s-1.34,3.92-1.69,5.3-.39,2.06-.13,2a4,4,0,0,0,1.72-1.21,27.64,27.64,0,0,0,2.25-2.56c.78-1,1.58-2.07,2.4-3.22s1.58-2.2,2.28-3.15,1.27-1.75,1.75-2.38.78-.94.91-.94a4.45,4.45,0,0,1,.81.13,3.12,3.12,0,0,1,1,.46,1.86,1.86,0,0,1,.72.87,2.11,2.11,0,0,1,0,1.4,25,25,0,0,1-1,2.31c-.57,1.15-1.3,2.46-2.21,3.93s-1.94,3-3.09,4.52a27.83,27.83,0,0,1-3.67,4.06,15,15,0,0,1-4.07,2.67,5.47,5.47,0,0,1-4.12.19,4.56,4.56,0,0,1-1.89-1.14,7.1,7.1,0,0,1-1.14-1.52,6,6,0,0,1-.58-1.5c-.11-.47-.18-.82-.23-1a12.27,12.27,0,0,1,.23-3.67q.42-2.44,1.23-5.46c.55-2,1.17-4.11,1.89-6.27s1.41-4.22,2.08-6.15,1.29-3.62,1.85-5.1S1083.07,347.59,1083.37,347Zm9.3-17.68a4.44,4.44,0,0,1,2.76.13,16.74,16.74,0,0,1,3.41,1.43,10.2,10.2,0,0,1,2.54,1.92c.6.67.65,1.2.13,1.59s-1.26,1-2,1.63a21.47,21.47,0,0,0-2.08,2.08,22.71,22.71,0,0,0-2,2.63,15.17,15.17,0,0,0-1.62,3.22q-.27.58-1.17.39a7.54,7.54,0,0,1-2-.78,11.79,11.79,0,0,1-2-1.34,3.25,3.25,0,0,1-1-1.13,5.29,5.29,0,0,1,.29-2.44,27.91,27.91,0,0,1,1.33-3.84,37.43,37.43,0,0,1,1.79-3.64C1091.77,330.05,1092.28,329.43,1092.67,329.3Z"/><path class="cls-4" d="M1097,381.69a4.93,4.93,0,0,1-2.9-2.21,11.58,11.58,0,0,1-1.52-4.09,24.27,24.27,0,0,1-.39-5.24,48.18,48.18,0,0,1,.45-5.62,46.2,46.2,0,0,1,1.07-5.36,36.25,36.25,0,0,1,1.47-4.45,10.43,10.43,0,0,1-.46-1.5,6.35,6.35,0,0,1,.13-3.12,10.39,10.39,0,0,1,1.14-2.66,4.39,4.39,0,0,1,1.33-1.5q.65-.39.72.39v.46q1.68-3.65,3.8-7.45t4.29-7a45.56,45.56,0,0,1,4.26-5.43,9.39,9.39,0,0,1,3.7-2.76,4.92,4.92,0,0,1,2.37.06,6.8,6.8,0,0,1,5,4.49,8.8,8.8,0,0,1,.06,4.87,31.53,31.53,0,0,1-4.09,9.88,37.59,37.59,0,0,1-6.08,7.38,27,27,0,0,1-6.57,4.58,10.94,10.94,0,0,1-5.42,1.37h-.72a7.14,7.14,0,0,0,1.92.45,14,14,0,0,0,2.76,0c-.65,1.65-1.2,3.08-1.66,4.29s-.83,2.3-1.13,3.25a15.39,15.39,0,0,0-.62,2.63,14.36,14.36,0,0,0-.1,2.57,7.37,7.37,0,0,0,.39,2.15c.22.6.89.93,2,1a4.12,4.12,0,0,0,2.08-1,36.83,36.83,0,0,0,3-2.53c1.1-1,2.23-2.12,3.38-3.32s2.23-2.34,3.25-3.44l2.63-2.86c.74-.8,1.21-1.31,1.43-1.53a1,1,0,0,1,.85-.52,1.76,1.76,0,0,1,1,.33,2.51,2.51,0,0,1,.82.91,2.46,2.46,0,0,1,.32,1.17,6.94,6.94,0,0,1-1.23,2.4q-1.24,1.89-3.22,4.39t-4.55,5.23a58.39,58.39,0,0,1-5.23,4.94,28.32,28.32,0,0,1-5.2,3.51A7,7,0,0,1,1097,381.69Zm18.85-48.42c-.52,0-1.14.38-1.86,1.26a21.9,21.9,0,0,0-2.24,3.64q-1.17,2.31-2.47,5.24t-2.53,6a27.59,27.59,0,0,0,3.9-4.49,53,53,0,0,0,3.25-5.17,26.7,26.7,0,0,0,2-4.38C1116.25,334.09,1116.24,333.4,1115.81,333.27Z"/><path class="cls-4" d="M1116.85,381.69a4.93,4.93,0,0,1-2.9-2.21,11.58,11.58,0,0,1-1.52-4.09,24.27,24.27,0,0,1-.39-5.24,48.18,48.18,0,0,1,.45-5.62,46.2,46.2,0,0,1,1.07-5.36,36.25,36.25,0,0,1,1.47-4.45,10.43,10.43,0,0,1-.46-1.5,6.35,6.35,0,0,1,.13-3.12,10.39,10.39,0,0,1,1.14-2.66,4.39,4.39,0,0,1,1.33-1.5q.64-.39.72.39v.46q1.68-3.65,3.8-7.45t4.29-7a45.56,45.56,0,0,1,4.26-5.43,9.39,9.39,0,0,1,3.7-2.76,4.92,4.92,0,0,1,2.37.06,6.8,6.8,0,0,1,5,4.49,8.8,8.8,0,0,1,.06,4.87,31.53,31.53,0,0,1-4.09,9.88,37.59,37.59,0,0,1-6.08,7.38,27,27,0,0,1-6.57,4.58,11,11,0,0,1-5.42,1.37h-.72a7.14,7.14,0,0,0,1.92.45,14,14,0,0,0,2.76,0c-.65,1.65-1.2,3.08-1.66,4.29s-.83,2.3-1.13,3.25a15.39,15.39,0,0,0-.62,2.63,14.36,14.36,0,0,0-.1,2.57,7.37,7.37,0,0,0,.39,2.15c.22.6.89.93,2,1a4.12,4.12,0,0,0,2.08-1,36.83,36.83,0,0,0,3-2.53c1.1-1,2.23-2.12,3.38-3.32s2.23-2.34,3.25-3.44l2.63-2.86c.74-.8,1.21-1.31,1.43-1.53a1,1,0,0,1,.85-.52,1.76,1.76,0,0,1,1,.33,2.51,2.51,0,0,1,.82.91,2.46,2.46,0,0,1,.32,1.17,6.94,6.94,0,0,1-1.23,2.4q-1.24,1.89-3.22,4.39t-4.55,5.23a58.39,58.39,0,0,1-5.23,4.94,28.32,28.32,0,0,1-5.2,3.51A7,7,0,0,1,1116.85,381.69Zm18.85-48.42c-.52,0-1.14.38-1.86,1.26a21.9,21.9,0,0,0-2.24,3.64q-1.17,2.31-2.47,5.24t-2.53,6a27.59,27.59,0,0,0,3.9-4.49,53,53,0,0,0,3.25-5.17,26.7,26.7,0,0,0,2-4.38C1136.14,334.09,1136.13,333.4,1135.7,333.27Z"/><path class="cls-4" d="M1155.85,366.29l-2.31.13c-.89,0-1.79.11-2.7.19l-2.7.26c-.89.09-1.65.18-2.3.26a8.57,8.57,0,0,1,2,.39c.45.18.85.35,1.2.52-2.69,3-4.79,4.55-6.3,4.55a5.07,5.07,0,0,1-2.41-.58,2.42,2.42,0,0,1-1.1-1.34,3.22,3.22,0,0,1-.07-1.72,6.74,6.74,0,0,1,.65-1.75v-.07a3.72,3.72,0,0,0-1.1,1.63,4.09,4.09,0,0,0-.2,1.59,5.15,5.15,0,0,0,.26,1.3,3.57,3.57,0,0,0,.33.75,3.55,3.55,0,0,1,0,.61,3,3,0,0,0,0,.49,4.77,4.77,0,0,0,.07.78,1.82,1.82,0,0,0,.35.85,2.54,2.54,0,0,0,.88.68,4.53,4.53,0,0,0,1.63.36,6,6,0,0,0,2.5-.62,22.79,22.79,0,0,0,3.44-1.89q1.86-1.2,3.81-2.73t3.67-3.15a39.49,39.49,0,0,0,3-3.15,11.19,11.19,0,0,0,1.82-2.76c.3-.78.7-1.22,1.2-1.3a1.39,1.39,0,0,1,1.3.42,2.88,2.88,0,0,1,.72,1.66,4.28,4.28,0,0,1-.42,2.4,22.64,22.64,0,0,1-1.21,1.92c-.63.93-1.45,2-2.47,3.25s-2.21,2.53-3.57,3.9a42.91,42.91,0,0,1-4.42,3.83,27.09,27.09,0,0,1-5.07,3,17,17,0,0,1-5.56,1.49,6.09,6.09,0,0,1-1.82-.19,9.23,9.23,0,0,1-2.44-1,15.25,15.25,0,0,1-2.79-2.18,18.18,18.18,0,0,1-2.89-3.74,7.38,7.38,0,0,1-.65-4.29,28.17,28.17,0,0,1,1.3-6.47,43.16,43.16,0,0,1,3-7.21,28.84,28.84,0,0,1,4.55-6.47,18.91,18.91,0,0,1,5.88-4.29,10.93,10.93,0,0,1,7-.71,7.94,7.94,0,0,1,3.6,1.56,5.09,5.09,0,0,1,1.6,2.24,5.81,5.81,0,0,1,.26,2.4c-.09.81-.18,1.49-.26,2.05a17.62,17.62,0,0,1-1.3,4.06,32.56,32.56,0,0,1-2.21,4,4.71,4.71,0,0,1,1.82.59,3.54,3.54,0,0,1,.87,1,3.37,3.37,0,0,1,.46,1.14,1.63,1.63,0,0,1-.1,1A.71.71,0,0,1,1155.85,366.29Zm-14.11-1.43a11.33,11.33,0,0,1,2.89-1.56,20.25,20.25,0,0,1,3.29-.91c.6-1.13,1.22-2.31,1.85-3.55s1.15-2.37,1.56-3.41a11.34,11.34,0,0,0,.75-2.6c.08-.69-.09-1-.52-1a3.59,3.59,0,0,0-2.31,1.17,20.06,20.06,0,0,0-2.6,3,38.54,38.54,0,0,0-2.6,4.2Q1142.78,362.52,1141.74,364.86Zm2.15,3.31s.15-.1.32-.29.35-.38.52-.55a3.08,3.08,0,0,0-.84.19c-.26.22-.35.38-.26.49A.33.33,0,0,0,1143.89,368.17Z"/><path class="cls-4" d="M1164.17,337.62l3.12.55,3.18.62c1.26-2.77,2.24-5.06,3-6.86a17.17,17.17,0,0,0,1.2-4c0-.39.48-.56,1.3-.49a5.13,5.13,0,0,1,2.54,1,6.37,6.37,0,0,1,2.11,2.73,7,7,0,0,1,.1,4.61c-.26,1-.48,1.85-.65,2.44a18.61,18.61,0,0,1-.65,1.79,34.4,34.4,0,0,0,8.06-.3,18.91,18.91,0,0,0,7.6-3c.43-.26.75-.36.94-.29a.49.49,0,0,1,.33.49,2.51,2.51,0,0,1-.1.87,3.34,3.34,0,0,1-.32.82,11.82,11.82,0,0,1-4.68,4.42,12.92,12.92,0,0,1-5.33,1.2,25.39,25.39,0,0,1-5.82-.65c-2-.46-4-.86-6.08-1.2.61.21,1.31.44,2.11.68s1.34.4,1.6.49c-1.09,2.08-2.3,4.54-3.65,7.37l-4.09,8.68c-.39.91-.86,2.1-1.4,3.58s-1,3-1.46,4.48-.77,2.91-1,4.16a4.83,4.83,0,0,0,0,2.6c.43,1,1,1.41,1.72,1.11a6.87,6.87,0,0,0,2.38-2.08,30.94,30.94,0,0,0,2.6-3.94c.86-1.53,1.69-3,2.47-4.42s1.44-2.61,2-3.6.9-1.48,1.07-1.43a2.91,2.91,0,0,1,1.37.61,2.12,2.12,0,0,1,.58.85,3,3,0,0,1,.07,1.14,14.67,14.67,0,0,0-.72,1.72c-.43,1.1-1,2.44-1.82,4s-1.71,3.23-2.79,5a27.18,27.18,0,0,1-3.68,4.78,16.93,16.93,0,0,1-4.48,3.35,7.88,7.88,0,0,1-5.17.71,4.6,4.6,0,0,1-2.6-1.3c-.52-.47-.86-1.51-1-3.12a30.23,30.23,0,0,1,.1-5.72,50.42,50.42,0,0,1,1.27-7.12,44.27,44.27,0,0,1,2.57-7.44L1169,342a19.42,19.42,0,0,0-4.71.84,13,13,0,0,0-4.52,2.6,2.12,2.12,0,0,1-.68.42.78.78,0,0,1-.49,0,1.11,1.11,0,0,1-.39-.26,2.91,2.91,0,0,1-.94-2.28,5.47,5.47,0,0,1,.75-2.86,6.19,6.19,0,0,1,2.3-2.27A5.73,5.73,0,0,1,1164.17,337.62Z"/><path class="cls-5" d="M645.5,363.13V468.42c3.84-5.23,116.12,13.08,125.56,13.08s13.21-10.21,13.21-10.21c3.59-7.48,3.46-14.61-3.77-21.06,11.56-6.71,14.48-13.54,12.59-20.42l-7.56-15.31c11.79-10.27,7.56-28.08,7.56-28.08s-17.94-12.77-8.82-6.38,15.32-17.24,8.82-17.23c-24.76-6.61-49.31-6.73-73.64,0l17-73.39c-.22-10.48-5.28-17.7-17-20.42-17.31,0-24.1,12.5-23.92,12.76,2.18,3.14-12.39,60.38-35.24,80.41Z"/><rect class="cls-6" x="590" y="345" width="55" height="136"/><polygon class="cls-2" points="751.41 412.35 720.93 430.05 690.45 447.75 690.58 412.88 690.71 378.01 721.06 395.18 751.41 412.35"/><polygon class="cls-7" points="1285 750 81 750 286.82 568 1112.81 568 1285 750"/><line class="cls-8" x1="236.89" y1="612" x2="1151.22" y2="608"/><line class="cls-8" x1="177.19" y1="661.5" x2="1197.1" y2="657.5"/><line class="cls-8" x1="124.12" y1="710.5" x2="1231.38" y2="706.5"/><line class="cls-9" x1="637.37" y1="568.32" x2="629.12" y2="611.18"/><line class="cls-9" x1="579.07" y1="610.5" x2="579.07" y2="659"/><line class="cls-9" x1="736.07" y1="659.5" x2="736.07" y2="708"/><line class="cls-9" x1="438.33" y1="710.64" x2="423.52" y2="748.86"/><line class="cls-9" x1="384.28" y1="660.21" x2="371.43" y2="707.29"/><line class="cls-9" x1="914.18" y1="567.61" x2="909.54" y2="607.39"/><line class="cls-9" x1="948.52" y1="610.86" x2="939.32" y2="658.64"/><line class="cls-9" x1="870.51" y1="708.81" x2="862.55" y2="750.19"/><path class="cls-10" d="M811.11,733H533.21c-13.2,0-22-15.69-16.58-29.55l40.26-102.94c2.93-7.48,9.37-12.3,16.49-12.34L770.66,587c7.21,0,13.76,4.82,16.7,12.41l40.36,104.11C833.09,717.37,824.29,733,811.11,733Z"/><ellipse class="cls-11" cx="668.55" cy="661.06" rx="15.05" ry="21.73"/><polygon class="cls-11" points="660.64 620.33 666.5 628.45 669.78 619.22 671.1 629.16 678.42 623.08 674.84 632.17 684.23 630.87 676.72 636.68 685.67 640.5 676.23 641.48 682.34 649.4 673.5 645.28 675.14 655.17 669.27 647.06 665.99 656.29 664.67 646.35 657.36 652.43 660.93 643.34 651.54 644.64 659.05 638.83 650.11 635.01 659.54 634.03 653.43 626.11 662.27 630.23 660.64 620.33"/><circle class="cls-2" cx="104.5" cy="96.5" r="64.5"/><line class="cls-12" x1="82.82" y1="45.55" x2="116.97" y2="59.1"/><circle class="cls-13" cx="104.36" cy="96.36" r="26.42"/><rect class="cls-14" x="68.02" y="64.75" width="16.14" height="16.14" transform="translate(-26.83 95.16) rotate(-55.99)"/><rect class="cls-14" x="97.41" y="52.6" width="14.41" height="14.41"/><rect class="cls-14" x="124.44" y="62.61" width="14.36" height="14.36" transform="translate(95.46 -74.73) rotate(48.02)"/><rect class="cls-14" x="134" y="89.46" width="13.32" height="13.32" transform="translate(236.78 -44.54) rotate(90)"/><rect class="cls-14" x="62.22" y="91.12" width="14.37" height="14.37" transform="translate(167.71 28.9) rotate(90)"/><rect class="cls-14" x="72.93" y="114.58" width="16.45" height="16.45" transform="translate(-63.07 93.35) rotate(-45)"/><rect class="cls-14" x="125.65" y="115.53" width="14.98" height="14.98" transform="translate(314.4 125.41) rotate(138.02)"/><rect class="cls-14" x="99.08" y="125.27" width="15.99" height="15.99" transform="translate(214.15 266.53) rotate(180)"/><path class="cls-15" d="M893.08,624.6h-51.8a9.48,9.48,0,0,1-9.44-8.67l-6.5-77.41a9.46,9.46,0,0,1,9.43-10.26h63.51a9.48,9.48,0,0,1,9.45,10.1l-5.21,77.41A9.46,9.46,0,0,1,893.08,624.6Z"/><rect class="cls-15" x="818" y="515.31" width="97.15" height="21.59" rx="10.79"/><circle class="cls-16" cx="827.18" cy="506.67" r="5.94"/><circle class="cls-16" cx="831.22" cy="512.61" r="5.94"/><circle class="cls-16" cx="839.05" cy="512.61" r="5.94"/><circle class="cls-16" cx="871.7" cy="511.8" r="5.94"/><circle class="cls-16" cx="877.64" cy="512.61" r="5.94"/><circle class="cls-16" cx="862.8" cy="505.86" r="5.94"/><circle class="cls-16" cx="862.8" cy="511.8" r="5.94"/><circle class="cls-16" cx="856.86" cy="511.8" r="5.94"/><circle class="cls-16" cx="844.99" cy="505.86" r="5.94"/><circle class="cls-16" cx="850.92" cy="511.8" r="5.94"/><circle class="cls-16" cx="837.16" cy="503.43" r="5.94"/><circle class="cls-16" cx="844.99" cy="511.8" r="5.94"/><circle class="cls-16" cx="883.58" cy="511.8" r="5.94"/><circle class="cls-16" cx="889.51" cy="511.8" r="5.94"/><circle class="cls-16" cx="895.45" cy="511.8" r="5.94"/><circle class="cls-16" cx="877.64" cy="505.86" r="5.94"/><circle class="cls-16" cx="904.63" cy="511.8" r="5.94"/><circle class="cls-16" cx="851.46" cy="500.73" r="5.94"/><circle class="cls-16" cx="889.51" cy="505.86" r="5.94"/><circle class="cls-16" cx="904.63" cy="503.43" r="5.94"/><circle class="cls-16" cx="910.56" cy="506.67" r="5.94"/><circle class="cls-16" cx="870.35" cy="500.73" r="5.94"/><circle class="cls-16" cx="831.22" cy="497.5" r="5.94"/><circle class="cls-16" cx="883.58" cy="500.73" r="5.94"/><circle class="cls-16" cx="892.75" cy="503.43" r="5.94"/><circle class="cls-16" cx="843.1" cy="497.5" r="5.94"/><circle class="cls-16" cx="860.37" cy="502.08" r="5.94"/><circle class="cls-16" cx="877.64" cy="496.96" r="5.94"/><circle class="cls-16" cx="857.4" cy="506.67" r="5.94"/><circle class="cls-16" cx="898.69" cy="500.73" r="5.94"/><circle class="cls-16" cx="860.37" cy="496.15" r="5.94"/><circle class="cls-16" cx="895.45" cy="494.8" r="5.94"/><circle class="cls-16" cx="901.39" cy="505.86" r="5.94"/><circle class="cls-16" cx="907.87" cy="499.92" r="5.94"/><path class="cls-15" d="M938.88,681.92H894.39a8.13,8.13,0,0,1-8.1-7.45L880.7,608a8.14,8.14,0,0,1,8.11-8.82h54.54a8.13,8.13,0,0,1,8.11,8.68L947,674.34A8.12,8.12,0,0,1,938.88,681.92Z"/><rect class="cls-15" x="874.4" y="588.05" width="83.44" height="18.54" rx="9.27"/><circle class="cls-16" cx="882.28" cy="580.63" r="5.1"/><circle class="cls-16" cx="885.76" cy="585.73" r="5.1"/><circle class="cls-16" cx="892.48" cy="585.73" r="5.1"/><circle class="cls-16" cx="920.52" cy="585.04" r="5.1"/><circle class="cls-16" cx="925.62" cy="585.73" r="5.1"/><circle class="cls-16" cx="912.88" cy="579.94" r="5.1"/><circle class="cls-16" cx="912.88" cy="585.04" r="5.1"/><circle class="cls-16" cx="907.78" cy="585.04" r="5.1"/><circle class="cls-16" cx="897.58" cy="579.94" r="5.1"/><circle class="cls-16" cx="902.68" cy="585.04" r="5.1"/><circle class="cls-16" cx="890.86" cy="577.85" r="5.1"/><circle class="cls-16" cx="897.58" cy="585.04" r="5.1"/><circle class="cls-16" cx="930.72" cy="585.04" r="5.1"/><circle class="cls-16" cx="935.82" cy="585.04" r="5.1"/><circle class="cls-16" cx="940.92" cy="585.04" r="5.1"/><circle class="cls-16" cx="925.62" cy="579.94" r="5.1"/><circle class="cls-16" cx="948.8" cy="585.04" r="5.1"/><circle class="cls-16" cx="903.14" cy="575.53" r="5.1"/><circle class="cls-16" cx="935.82" cy="579.94" r="5.1"/><circle class="cls-16" cx="948.8" cy="577.85" r="5.1"/><circle class="cls-16" cx="953.9" cy="580.63" r="5.1"/><circle class="cls-16" cx="919.37" cy="575.53" r="5.1"/><circle class="cls-16" cx="885.76" cy="572.75" r="5.1"/><circle class="cls-16" cx="930.72" cy="575.53" r="5.1"/><circle class="cls-16" cx="938.6" cy="577.85" r="5.1"/><circle class="cls-16" cx="895.96" cy="572.75" r="5.1"/><circle class="cls-16" cx="910.79" cy="576.69" r="5.1"/><circle class="cls-16" cx="925.62" cy="572.29" r="5.1"/><circle class="cls-16" cx="908.24" cy="580.63" r="5.1"/><circle class="cls-16" cx="943.7" cy="575.53" r="5.1"/><circle class="cls-16" cx="910.79" cy="571.59" r="5.1"/><circle class="cls-16" cx="940.92" cy="570.43" r="5.1"/><circle class="cls-16" cx="946.02" cy="579.94" r="5.1"/><circle class="cls-16" cx="951.58" cy="574.84" r="5.1"/><ellipse class="cls-17" cx="443" cy="677.21" rx="70" ry="18.79"/><ellipse class="cls-18" cx="441.05" cy="677.43" rx="47.13" ry="8.31"/><path class="cls-19" d="M455.33,685.83l-24.66-.18c-5.58,0-29.69-8-29.69-14.13v-31.3c0-6.16,8.47-9.3,14-9.3h53.1c5.59,0,16.89,3.14,16.89,9.3l-.17,30.94C484.85,677.32,460.91,685.83,455.33,685.83Z"/><ellipse class="cls-20" cx="443.07" cy="636.7" rx="41.62" ry="11.09"/><ellipse class="cls-21" cx="442.51" cy="642.27" rx="32.93" ry="5.52"/><path class="cls-22" d="M484.61,645.92c9.28-.18,16.9,4.7,17,10.91s-7.3,11.38-16.57,11.56Z"/><path class="cls-23" d="M428.21,568.38c-17,36.18,14.33,41.1,0,60.21"/><path class="cls-23" d="M444.38,555.05c-17,36.17,14.32,41.09,0,60.21"/><path class="cls-23" d="M460.14,579.29c-17,36.18,14.32,41.1,0,60.21"/></svg>