<svg id="Layer_1" data-name="Layer 1" xmlns="http://www.w3.org/2000/svg" width="563.5" height="444" viewBox="0 0 563.5 444"><defs><style>.cls-1{fill:#e9ebee;}.cls-2{fill:none;stroke:#020a16;stroke-miterlimit:10;stroke-width:2px;}.cls-3{fill:#3bafda;}.cls-4{fill:#4fc1e9;}.cls-5{fill:#020202;}.cls-6{fill:#010307;}.cls-7{fill:#3f63ab;}.cls-8{fill:#f2f3f4;}.cls-9{fill:#090b0c;}</style></defs><title>try again knap win</title><polygon class="cls-1" points="410.78 0 0.15 58.02 29.8 268.66 449.32 203.07 410.78 0"/><path class="cls-1" d="M560,343.46l-104.49-131c-4.53-5.68-12.61-8.5-20.52-7.17l-379.26,64c-12.58,2.12-19.63,13.58-14.5,23.58l72.17,140.89c3.8,7.43,13.22,11.56,22.55,9.89l411.57-73.86C561.51,367.26,568,353.51,560,343.46Z"/><line class="cls-2" x1="31.28" y1="271.18" x2="449.32" y2="203.07"/><ellipse class="cls-3" cx="221.02" cy="150.87" rx="67.6" ry="57.52"/><polygon class="cls-4" points="263.12 150.26 229.23 167 195.34 183.75 195.49 150.76 195.63 117.77 229.37 134.01 263.12 150.26"/><path d="M193.89,272.9l-5,1c-3.16.59-6.31-1.12-7-3.81l-.35-1.32c-.7-2.68,1.31-5.37,4.47-6l5-.95c3.16-.6,6.31,1.11,7,3.8l.35,1.32C199.06,269.62,197.05,272.31,193.89,272.9Z"/><path d="M124.06,286.08l-5,.95c-3.16.6-6.31-1.12-7-3.8l-.35-1.32c-.7-2.69,1.31-5.37,4.47-6l5-.95c3.16-.6,6.32,1.11,7,3.8l.34,1.32C129.23,282.8,127.22,285.48,124.06,286.08Z"/><path d="M147,281.76l-5,.95c-3.16.59-6.31-1.12-7-3.8l-.35-1.32c-.7-2.69,1.31-5.38,4.47-6l5-.95c3.16-.6,6.31,1.11,7,3.8l.35,1.32C152.14,278.48,150.13,281.16,147,281.76Z"/><path d="M169.22,277.56l-5,.95c-3.16.6-6.31-1.11-7-3.8l-.35-1.32c-.7-2.69,1.31-5.37,4.47-6l5-.95c3.16-.6,6.31,1.12,7,3.8l.35,1.32C174.39,274.28,172.38,277,169.22,277.56Z"/><path d="M303.21,247.16c.7,2.68,3.86,4.39,7,3.8l5-1c3.15-.6,5.16-3.29,4.46-6l-.34-1.32c-.7-2.69-3.86-4.4-7-3.8l-5.05,1c-3.15.59-5.16,3.28-4.46,6Z"/><path d="M296.16,248.49l-.34-1.33c-.7-2.68-3.86-4.39-7-3.8l-5.05.95c-3.15.6-5.16,3.29-4.46,6l.34,1.32c.7,2.69,3.86,4.4,7,3.8l5.05-1C294.85,253.86,296.86,251.17,296.16,248.49Z"/><path d="M265.7,259.36l-5,.95c-3.16.59-6.31-1.12-7-3.8l-.35-1.32c-.7-2.69,1.31-5.38,4.47-6l5-.95c3.16-.6,6.32,1.11,7,3.8l.34,1.32C270.87,256.08,268.86,258.76,265.7,259.36Z"/><path d="M244.12,263.43l-5.05.95c-3.15.6-6.31-1.11-7-3.8l-.34-1.32c-.7-2.69,1.31-5.37,4.46-6l5-.95c3.15-.6,6.31,1.12,7,3.8l.34,1.32C249.28,260.15,247.27,262.83,244.12,263.43Z"/><path d="M218.34,268.29l-5,.95c-3.16.6-6.31-1.11-7-3.8l-.35-1.32c-.7-2.69,1.31-5.37,4.47-6l5-.95c3.16-.59,6.32,1.12,7,3.8l.34,1.32C223.51,265,221.5,267.7,218.34,268.29Z"/><path d="M399.91,228.91c.7,2.69,3.86,4.4,7,3.8l5-1c3.16-.59,5.17-3.28,4.47-6l-.35-1.32c-.7-2.68-3.85-4.39-7-3.8l-5,1c-3.16.6-5.17,3.28-4.47,6Z"/><path d="M373.26,233.94c.7,2.69,3.86,4.4,7,3.8l5-1c3.16-.6,5.17-3.28,4.47-6l-.34-1.32c-.7-2.68-3.86-4.39-7-3.8l-5.05,1c-3.15.6-5.16,3.28-4.46,6Z"/><path d="M350.35,238.26c.7,2.69,3.86,4.4,7,3.8l5.05-.95c3.15-.59,5.16-3.28,4.46-6l-.34-1.33c-.7-2.68-3.86-4.39-7-3.8l-5,.95c-3.15.6-5.16,3.28-4.46,6Z"/><path d="M324.36,243.17c.7,2.68,3.85,4.39,7,3.8l5-.95c3.16-.6,5.17-3.29,4.47-6l-.34-1.32c-.7-2.69-3.86-4.4-7-3.8l-5,.95c-3.16.59-5.17,3.28-4.47,6Z"/><path class="cls-5" d="M96.31,315.87l-2.1.4c-3.62.68-7.2-1.26-8-4.34l-2.64-10.11c-.8-3.07,1.48-6.12,5.1-6.8l2.1-.4c3.62-.68,7.2,1.26,8,4.34l2.64,10.11C102.21,312.14,99.93,315.19,96.31,315.87Z"/><path class="cls-5" d="M117.9,311.8l-2.1.4c-3.62.68-7.2-1.26-8-4.34l-2.64-10.11c-.8-3.08,1.48-6.12,5.1-6.81l2.1-.39c3.62-.68,7.2,1.26,8,4.33L123,305C123.8,308.07,121.52,311.12,117.9,311.8Z"/><path class="cls-5" d="M365.49,260.86c.8,3.08,4.38,5,8,4.34l2.1-.4c3.62-.68,5.9-3.73,5.09-6.81l-2.63-10.11c-.8-3.07-4.38-5-8-4.33l-2.1.39c-3.62.69-5.9,3.73-5.1,6.81Z"/><path class="cls-5" d="M341.47,265.39c.81,3.08,4.39,5,8,4.34l2.1-.4c3.61-.68,5.9-3.73,5.09-6.81L354,252.41c-.8-3.07-4.38-5-8-4.33l-2.1.39c-3.62.69-5.9,3.73-5.1,6.81Z"/><path class="cls-5" d="M318.13,269.8c.8,3.07,4.38,5,8,4.33l2.1-.39c3.61-.69,5.9-3.73,5.09-6.81l-2.63-10.11c-.8-3.08-4.38-5-8-4.34l-2.1.4c-3.62.68-5.9,3.73-5.1,6.81Z"/><path class="cls-5" d="M302.78,278.54l2.1-.4c3.62-.68,5.9-3.73,5.09-6.81l-2.63-10.11c-.8-3.07-4.38-5-8-4.33l-2.1.39c-3.62.69-5.9,3.73-5.1,6.81l2.64,10.11C295.58,277.28,299.16,279.22,302.78,278.54Z"/><path class="cls-5" d="M280.65,282.71l-2.1.4c-3.62.68-7.2-1.26-8-4.34l-2.63-10.11c-.8-3.07,1.48-6.12,5.1-6.8l2.1-.4c3.62-.68,7.2,1.26,8,4.34l2.63,10.1C286.55,279,284.26,282,280.65,282.71Z"/><path class="cls-5" d="M256.2,287.32l-2.11.4c-3.61.68-7.19-1.26-8-4.33l-2.63-10.11c-.8-3.08,1.48-6.13,5.1-6.81l2.1-.4c3.61-.68,7.2,1.26,8,4.34l2.63,10.11C262.09,283.59,259.81,286.64,256.2,287.32Z"/><path class="cls-5" d="M230.86,292.1l-2.1.4c-3.61.68-7.2-1.26-8-4.34l-2.63-10.1c-.81-3.08,1.48-6.13,5.09-6.81l2.11-.4c3.61-.68,7.19,1.26,8,4.34L236,285.3C236.76,288.37,234.48,291.42,230.86,292.1Z"/><path class="cls-5" d="M207.07,296.59l-2.1.4c-3.62.68-7.2-1.26-8-4.34l-2.63-10.11c-.81-3.07,1.48-6.12,5.09-6.8l2.11-.4c3.61-.68,7.19,1.26,8,4.34l2.63,10.11C213,292.86,210.69,295.91,207.07,296.59Z"/><path class="cls-5" d="M186.15,300.54l-2.11.4c-3.61.68-7.19-1.26-8-4.34l-2.63-10.11c-.8-3.08,1.48-6.12,5.1-6.81l2.1-.39c3.62-.68,7.2,1.26,8,4.33l2.63,10.11C192.05,296.81,189.76,299.86,186.15,300.54Z"/><path class="cls-5" d="M162.8,305l-2.1.39c-3.62.68-7.2-1.26-8-4.33l-2.63-10.11c-.8-3.08,1.48-6.13,5.1-6.81l2.1-.4c3.62-.68,7.2,1.26,8,4.34l2.63,10.11C168.7,301.22,166.41,304.26,162.8,305Z"/><path class="cls-5" d="M140.55,309.14l-2.1.4c-3.62.68-7.2-1.26-8-4.34l-2.64-10.11c-.8-3.07,1.48-6.12,5.1-6.8l2.1-.4c3.62-.68,7.2,1.26,8,4.34l2.64,10.11C146.45,305.41,144.17,308.46,140.55,309.14Z"/><path class="cls-5" d="M388.18,253c1.18,4.53,6.5,7.41,11.82,6.41l20.3-3.83c5.32-1,8.71-5.53,7.53-10.06l-.58-2.23c-1.18-4.52-6.5-7.41-11.83-6.4l-20.29,3.82c-5.32,1-8.71,5.54-7.53,10.06Z"/><path class="cls-5" d="M135.76,336.87l-2.11.4c-3.61.68-7.19-1.26-8-4.34L123,322.82c-.8-3.08,1.48-6.12,5.1-6.81l2.1-.39c3.62-.69,7.2,1.26,8,4.33l2.63,10.11C141.66,333.14,139.37,336.19,135.76,336.87Z"/><path class="cls-5" d="M158.83,333.16l-2.11.4c-3.61.68-7.19-1.26-8-4.34l-2.63-10.11c-.8-3.07,1.48-6.12,5.1-6.8l2.1-.4c3.61-.68,7.2,1.26,8,4.34l2.63,10.11C164.73,329.43,162.44,332.48,158.83,333.16Z"/><path class="cls-5" d="M179.31,329.3l-2.1.39c-3.62.69-7.2-1.25-8-4.33l-2.63-10.11c-.81-3.08,1.48-6.13,5.09-6.81l2.1-.39c3.62-.69,7.2,1.25,8,4.33l2.64,10.11C185.21,325.57,182.93,328.62,179.31,329.3Z"/><path class="cls-5" d="M199.36,325.52l-2.1.39c-3.62.69-7.2-1.26-8-4.33l-2.64-10.11c-.8-3.08,1.48-6.13,5.1-6.81l2.1-.4c3.62-.68,7.2,1.26,8,4.34l2.63,10.11C205.26,321.79,203,324.83,199.36,325.52Z"/><path d="M100.05,290.61l-5,.95c-3.16.59-6.31-1.12-7-3.8l-.35-1.32c-.7-2.69,1.31-5.37,4.47-6l5-1c3.16-.6,6.31,1.11,7,3.8l.35,1.32C105.22,287.33,103.21,290,100.05,290.61Z"/><path class="cls-5" d="M111.92,338.68l-20.3,3.83c-5.32,1-10.64-1.88-11.82-6.4l-.58-2.23c-1.18-4.53,2.21-9.06,7.53-10.06L107,320c5.33-1,10.65,1.88,11.83,6.41l.58,2.22C120.63,333.15,117.24,337.68,111.92,338.68Z"/><path class="cls-5" d="M219,321.16l-2.1.4c-3.62.68-7.2-1.26-8-4.34l-2.63-10.11c-.81-3.08,1.48-6.12,5.09-6.81l2.1-.39c3.62-.69,7.2,1.26,8,4.33l2.64,10.11C224.92,317.43,222.64,320.48,219,321.16Z"/><path class="cls-5" d="M238.19,317.54l-2.11.4c-3.61.68-7.19-1.26-8-4.34l-2.63-10.1c-.8-3.08,1.48-6.13,5.1-6.81l2.1-.4c3.62-.68,7.2,1.26,8,4.34l2.63,10.11C244.09,313.81,241.8,316.86,238.19,317.54Z"/><path class="cls-5" d="M262.86,312.89l-2.1.4c-3.62.68-7.2-1.26-8-4.34l-2.64-10.11c-.8-3.08,1.48-6.12,5.1-6.81l2.1-.39c3.62-.69,7.2,1.26,8,4.33L268,306.08C268.76,309.16,266.48,312.21,262.86,312.89Z"/><path class="cls-5" d="M287.73,310.78l-2.1.4c-3.62.68-7.2-1.26-8-4.34L275,296.73c-.8-3.07,1.48-6.12,5.1-6.8l2.1-.4c3.62-.68,7.2,1.26,8,4.34L292.83,304C293.63,307.05,291.35,310.1,287.73,310.78Z"/><path class="cls-5" d="M302.08,302.23c.8,3.08,4.38,5,8,4.34l2.1-.4c3.62-.68,5.9-3.73,5.1-6.81l-2.64-10.11c-.8-3.07-4.38-5-8-4.33l-2.1.39c-3.61.69-5.9,3.73-5.09,6.81Z"/><path class="cls-5" d="M325.87,297.74c.8,3.08,4.38,5,8,4.34l2.1-.4c3.62-.68,5.9-3.73,5.1-6.81l-2.63-10.11c-.81-3.07-4.39-5-8-4.33l-2.1.39c-3.61.69-5.9,3.73-5.09,6.81Z"/><path class="cls-5" d="M348.3,291.57c.8,3.08,4.38,5,8,4.34l2.1-.4c3.62-.68,5.9-3.73,5.1-6.81l-2.64-10.11c-.8-3.07-4.38-5-8-4.33l-2.1.39c-3.62.69-5.9,3.73-5.1,6.81Z"/><path class="cls-5" d="M372.79,288.89c.8,3.08,4.38,5,8,4.34l2.1-.4c3.62-.68,5.9-3.73,5.1-6.81l-2.64-10.11c-.8-3.07-4.38-5-8-4.33l-2.1.39c-3.61.69-5.9,3.73-5.09,6.81Z"/><path class="cls-5" d="M398.46,280.1c1.21,4.62,6.64,7.57,12.08,6.54l8.43-1.59c5.43-1,8.89-5.65,7.69-10.27l-.59-2.28c-1.21-4.62-6.64-7.57-12.08-6.54l-8.43,1.59c-5.43,1-8.9,5.65-7.69,10.27Z"/><path class="cls-5" d="M119.33,366.43,99,370.26c-5.32,1-10.64-1.88-11.82-6.41l-.58-2.22c-1.18-4.53,2.21-9.06,7.53-10.06l20.3-3.83c5.32-1,10.64,1.88,11.82,6.41l.58,2.22C128,360.9,124.65,365.43,119.33,366.43Z"/><path d="M201.3,366.24l-5,.95c-3.15.6-6.31-1.11-7-3.8l-.34-1.32c-.7-2.69,1.31-5.37,4.46-6l5-1c3.16-.59,6.32,1.12,7,3.8l.34,1.32C206.47,363,204.46,365.65,201.3,366.24Z"/><path d="M154.38,375.09l-5,1c-3.15.6-6.31-1.11-7-3.8l-.34-1.32c-.7-2.68,1.31-5.37,4.46-6l5-1c3.16-.59,6.32,1.12,7,3.81l.34,1.32C159.55,371.81,157.54,374.5,154.38,375.09Z"/><path d="M176.63,370.9l-5,1c-3.16.59-6.31-1.12-7-3.8l-.35-1.32c-.7-2.69,1.31-5.38,4.47-6l5-.95c3.16-.6,6.31,1.11,7,3.8l.35,1.32C181.8,367.62,179.79,370.3,176.63,370.9Z"/><path d="M225.75,361.63l-5,.95c-3.15.59-6.31-1.12-7-3.8l-.34-1.32c-.7-2.69,1.31-5.37,4.46-6l5-.95c3.16-.6,6.32,1.11,7,3.8l.34,1.32C230.92,358.35,228.91,361,225.75,361.63Z"/><path class="cls-5" d="M140.79,362.54l-2.11.4c-3.61.68-7.2-1.26-8-4.34l-2.63-10.11c-.8-3.07,1.48-6.12,5.09-6.8l2.11-.4c3.61-.68,7.19,1.26,8,4.34l2.63,10.1C146.68,358.81,144.4,361.86,140.79,362.54Z"/><path class="cls-5" d="M162.37,358.47l-2.1.4c-3.62.68-7.2-1.26-8-4.34l-2.64-10.11c-.8-3.08,1.48-6.12,5.1-6.81l2.1-.39c3.62-.69,7.2,1.26,8,4.33l2.64,10.11C168.27,354.74,166,357.79,162.37,358.47Z"/><path class="cls-5" d="M410,307.53c.8,3.08,4.38,5,8,4.34l2.1-.4c3.62-.68,5.9-3.73,5.1-6.81l-2.64-10.11c-.8-3.08-4.38-5-8-4.33l-2.1.39c-3.62.68-5.9,3.73-5.1,6.81Z"/><path class="cls-5" d="M386,312.06c.8,3.08,4.38,5,8,4.34l2.1-.4c3.62-.68,5.9-3.73,5.1-6.81l-2.64-10.11c-.8-3.08-4.38-5-8-4.33l-2.1.39c-3.62.68-5.9,3.73-5.1,6.81Z"/><path class="cls-5" d="M362.6,316.46c.8,3.08,4.38,5,8,4.34l2.1-.4c3.62-.68,5.9-3.73,5.1-6.8l-2.64-10.11c-.8-3.08-4.38-5-8-4.34l-2.1.4c-3.62.68-5.9,3.73-5.1,6.8Z"/><path class="cls-5" d="M339.25,320.87c.8,3.08,4.38,5,8,4.34l2.1-.4c3.62-.68,5.9-3.73,5.1-6.81l-2.64-10.11c-.8-3.07-4.38-5-8-4.33l-2.1.39c-3.62.69-5.9,3.73-5.1,6.81Z"/><path class="cls-5" d="M315,325.44c.8,3.08,4.38,5,8,4.34l2.1-.4c3.62-.68,5.9-3.73,5.1-6.81l-2.64-10.11c-.8-3.07-4.38-5-8-4.33l-2.1.39c-3.62.69-5.9,3.73-5.1,6.81Z"/><path class="cls-5" d="M298.57,334.39l2.1-.4c3.62-.68,5.9-3.73,5.1-6.8l-2.64-10.11c-.8-3.08-4.38-5-8-4.34l-2.1.4c-3.62.68-5.9,3.73-5.1,6.8l2.64,10.11C291.37,333.13,295,335.07,298.57,334.39Z"/><path class="cls-5" d="M275.34,338.77l-2.11.4c-3.61.68-7.19-1.26-8-4.34l-2.63-10.11c-.8-3.07,1.48-6.12,5.1-6.8l2.1-.4c3.61-.68,7.2,1.26,8,4.34L280.43,332C281.24,335,279,338.09,275.34,338.77Z"/><path class="cls-5" d="M251.55,343.26l-2.11.4c-3.61.68-7.19-1.26-8-4.34l-2.63-10.11c-.8-3.08,1.48-6.12,5.1-6.81L246,322c3.61-.68,7.2,1.26,8,4.33l2.63,10.11C257.45,339.53,255.16,342.58,251.55,343.26Z"/><path class="cls-5" d="M230.62,347.21l-2.1.4c-3.62.68-7.2-1.26-8-4.34l-2.64-10.11c-.8-3.08,1.48-6.12,5.1-6.81l2.1-.39c3.62-.69,7.2,1.26,8,4.33l2.64,10.11C236.52,343.48,234.24,346.53,230.62,347.21Z"/><path class="cls-5" d="M207.27,351.61l-2.1.4c-3.62.68-7.2-1.26-8-4.34l-2.64-10.1c-.8-3.08,1.48-6.13,5.1-6.81l2.1-.4c3.62-.68,7.2,1.26,8,4.34l2.64,10.11C213.17,347.88,210.89,350.93,207.27,351.61Z"/><path class="cls-5" d="M185,355.81l-2.1.4c-3.62.68-7.2-1.26-8-4.34l-2.64-10.11c-.8-3.07,1.48-6.12,5.1-6.8l2.1-.4c3.62-.68,7.2,1.26,8,4.34l2.64,10.1C190.92,352.08,188.64,355.13,185,355.81Z"/><path d="M392.55,330.2c.7,2.68,3.86,4.39,7,3.8l5-.95c3.16-.6,5.17-3.28,4.47-6l-.34-1.32c-.7-2.69-3.86-4.4-7-3.8l-5,1c-3.15.59-5.16,3.28-4.46,6Z"/><path d="M355.49,337.76c.7,2.69,3.86,4.4,7,3.8l5-.95c3.16-.59,5.17-3.28,4.47-6l-.34-1.32c-.7-2.69-3.86-4.4-7-3.8l-5,1c-3.15.59-5.16,3.28-4.46,6Z"/><polygon class="cls-6" points="410.78 0 1.36 55.3 3.8 68.39 413.22 13.08 410.78 0"/><polygon class="cls-6" points="36.7 272.92 28.31 273.7 0 55.12 8.38 54.34 36.7 272.92"/><polygon class="cls-6" points="449.84 207.04 411.79 3.11 403.86 4.18 441.91 208.12 449.84 207.04"/><polygon class="cls-7" points="406.4 14.24 6.94 68.19 9.04 79.46 408.5 25.5 406.4 14.24"/><polygon class="cls-8" points="364.72 343.08 252.16 363.95 277.03 414.97 397.44 387.14 364.72 343.08"/><path class="cls-9" d="M337.47,336.15l-.87-3.37a3.92,3.92,0,0,0-4.61-2.5l-88.87,16.77c-2.09.39-3.4,2.14-2.94,3.92l.88,3.37a3.91,3.91,0,0,0,4.61,2.49l88.87-16.77C336.62,339.67,337.94,337.92,337.47,336.15Z"/><path class="cls-5" d="M377.34,337.8c.81,3.08,4.39,5,8,4.34l2.1-.4c3.61-.68,5.9-3.73,5.09-6.81l-2.63-10.11c-.8-3.07-4.38-5-8-4.33l-2.1.39c-3.62.69-5.9,3.73-5.1,6.81Z"/><polygon class="cls-6" points="443.91 195.02 26.3 261.48 29.1 274.77 446.71 208.31 443.91 195.02"/></svg>