<svg id="Layer_1" data-name="Layer 1" xmlns="http://www.w3.org/2000/svg" width="857.79" height="407.03" viewBox="0 0 857.79 407.03"><defs><style>.cls-1{fill:#e9ebee;}.cls-2{fill:none;stroke:#020a16;stroke-miterlimit:10;stroke-width:2px;}.cls-3{fill:#3bafda;}.cls-4{fill:#4fc1e9;}.cls-5{fill:#020202;}.cls-6{fill:#010307;}.cls-7{fill:#3f63ab;}.cls-8{fill:#f2f3f4;}.cls-9{fill:#090b0c;}</style></defs><title>try again knap loser</title><polygon class="cls-1" points="566.22 186.16 37.55 246.29 0.19 53.19 517.65 0 566.22 186.16"/><path class="cls-1" d="M690,339,171.34,406.69c-11.75,1.53-23.62-2.26-28.42-9.07L52,268.47c-6.46-9.17,2.43-19.68,18.27-21.63l477.93-58.66c10-1.22,20.16,1.36,25.86,6.57L705.71,314.86C715.81,324.07,707.6,336.68,690,339Z"/><line class="cls-2" x1="39.42" y1="248.6" x2="566.22" y2="186.16"/><ellipse class="cls-3" cx="278.52" cy="138.31" rx="85.19" ry="52.73"/><polygon class="cls-4" points="331.57 137.75 288.87 153.1 246.16 168.44 246.34 138.2 246.53 107.96 289.05 122.85 331.57 137.75"/><path d="M244.34,250.18l-6.36.87c-4,.55-7.95-1-8.83-3.48l-.44-1.21c-.88-2.47,1.65-4.93,5.63-5.47l6.35-.88c4-.54,8,1,8.84,3.49l.43,1.21C250.85,247.17,248.31,249.63,244.34,250.18Z"/><path d="M156.34,262.26l-6.35.87c-4,.54-8-1-8.84-3.49l-.43-1.21c-.89-2.46,1.65-4.92,5.62-5.47l6.36-.87c4-.55,8,1,8.83,3.48l.44,1.22C162.85,259.25,160.32,261.71,156.34,262.26Z"/><path d="M185.21,258.29l-6.35.88c-4,.54-8-1-8.84-3.49l-.44-1.21c-.88-2.46,1.66-4.92,5.63-5.47l6.36-.87c4-.55,8,1,8.83,3.48l.44,1.21C191.72,255.29,189.19,257.75,185.21,258.29Z"/><path d="M213.25,254.45l-6.36.87c-4,.54-7.95-1-8.83-3.49l-.44-1.21c-.88-2.46,1.65-4.92,5.63-5.47l6.35-.87c4-.55,8,1,8.84,3.48l.43,1.22C219.76,251.44,217.22,253.9,213.25,254.45Z"/><path d="M397.29,229.19l-6.36.87c-4,.54-7.95-1-8.83-3.49l-.44-1.21c-.88-2.46,1.65-4.92,5.63-5.47l6.36-.87c4-.54,8,1,8.83,3.49l.44,1.21C403.8,226.18,401.27,228.64,397.29,229.19Z"/><path d="M367.59,233.26l-6.36.87c-4,.55-8-1-8.83-3.48l-.44-1.21c-.88-2.46,1.65-4.92,5.63-5.47l6.35-.87c4-.55,8,1,8.84,3.48l.43,1.21C374.1,230.26,371.56,232.72,367.59,233.26Z"/><path d="M334.83,237.76l-6.35.87c-4,.55-8-1-8.84-3.48l-.43-1.21c-.89-2.47,1.65-4.93,5.62-5.47l6.36-.88c4-.54,7.95,1,8.83,3.49l.44,1.21C341.34,234.75,338.81,237.21,334.83,237.76Z"/><path d="M307.63,241.49l-6.36.87c-4,.55-7.95-1-8.83-3.48l-.44-1.21c-.88-2.46,1.65-4.92,5.63-5.47l6.35-.87c4-.55,8,1,8.84,3.48l.43,1.21C314.14,238.48,311.6,241,307.63,241.49Z"/><path d="M275.15,246l-6.36.87c-4,.55-8-1-8.83-3.48l-.44-1.21c-.88-2.47,1.65-4.93,5.63-5.47l6.36-.88c4-.54,7.95,1,8.83,3.49l.44,1.21C281.66,242.94,279.13,245.4,275.15,246Z"/><path d="M519.15,212.46l-6.35.87c-4,.55-8-1-8.84-3.48l-.43-1.21c-.89-2.46,1.65-4.93,5.62-5.47l6.36-.87c4-.55,8,1,8.83,3.48l.44,1.21C525.66,209.45,523.13,211.92,519.15,212.46Z"/><path d="M485.56,217.07l-6.35.87c-4,.55-8-1-8.84-3.48l-.43-1.21c-.89-2.46,1.65-4.93,5.63-5.47l6.35-.87c4-.55,7.95,1,8.84,3.48l.43,1.21C492.07,214.06,489.54,216.53,485.56,217.07Z"/><path d="M456.69,221l-6.35.88c-4,.54-8-1-8.84-3.49l-.43-1.21c-.88-2.46,1.65-4.92,5.63-5.47l6.35-.87c4-.55,7.95,1,8.84,3.48l.43,1.21C463.2,218,460.67,220.49,456.69,221Z"/><path d="M423.94,225.53l-6.36.87c-4,.55-7.95-1-8.83-3.48l-.44-1.21c-.88-2.47,1.65-4.93,5.63-5.47l6.35-.88c4-.54,8,1,8.84,3.49l.43,1.21C430.45,222.52,427.91,225,423.94,225.53Z"/><path class="cls-5" d="M121.37,289.57l-2.65.36c-4.56.63-9.07-1.15-10.08-4l-3.32-9.27c-1-2.82,1.86-5.61,6.42-6.24l2.65-.36c4.56-.63,9.07,1.15,10.08,4l3.32,9.27C128.8,286.15,125.93,288.94,121.37,289.57Z"/><path class="cls-5" d="M148.57,285.84l-2.65.36c-4.55.63-9.07-1.15-10.08-4L132.52,273c-1-2.82,1.87-5.62,6.42-6.24l2.65-.37c4.56-.62,9.07,1.16,10.09,4L155,279.6C156,282.42,153.13,285.21,148.57,285.84Z"/><path class="cls-5" d="M473.3,242.75l-2.65.36c-4.55.63-9.07-1.15-10.08-4l-3.32-9.27c-1-2.82,1.87-5.61,6.42-6.24l2.65-.36c4.56-.63,9.08,1.15,10.09,4l3.32,9.27C480.74,239.33,477.86,242.12,473.3,242.75Z"/><path class="cls-5" d="M443.05,246.9l-2.65.37c-4.56.62-9.07-1.16-10.08-4L427,234c-1-2.82,1.86-5.61,6.42-6.24l2.65-.36c4.55-.63,9.07,1.15,10.08,4l3.32,9.27C450.48,243.48,447.6,246.28,443.05,246.9Z"/><path class="cls-5" d="M413.62,250.94l-2.65.36c-4.56.63-9.07-1.15-10.08-4l-3.32-9.27c-1-2.82,1.87-5.61,6.42-6.24l2.65-.36c4.56-.63,9.07,1.15,10.08,4L420,244.7C421.05,247.52,418.18,250.31,413.62,250.94Z"/><path class="cls-5" d="M384.2,255l-2.65.36c-4.56.63-9.07-1.15-10.08-4l-3.32-9.27c-1-2.82,1.86-5.61,6.42-6.24l2.65-.36c4.56-.63,9.07,1.15,10.08,4l3.32,9.27C391.63,251.56,388.76,254.35,384.2,255Z"/><path class="cls-5" d="M353.66,259.17l-2.65.36c-4.55.63-9.07-1.15-10.08-4l-3.32-9.27c-1-2.82,1.87-5.61,6.42-6.24l2.65-.36c4.56-.63,9.07,1.15,10.08,4l3.32,9.27C361.1,255.75,358.22,258.54,353.66,259.17Z"/><path class="cls-5" d="M322.85,263.4l-2.65.36c-4.56.63-9.07-1.15-10.08-4l-3.32-9.27c-1-2.82,1.86-5.62,6.42-6.24l2.65-.36c4.56-.63,9.07,1.15,10.08,4l3.32,9.27C330.28,260,327.41,262.77,322.85,263.4Z"/><path class="cls-5" d="M290.93,267.78l-2.65.36c-4.56.63-9.07-1.15-10.08-4l-3.32-9.27c-1-2.82,1.86-5.61,6.42-6.24l2.65-.36c4.56-.63,9.07,1.15,10.08,4l3.32,9.27C298.36,264.36,295.48,267.15,290.93,267.78Z"/><path class="cls-5" d="M261,271.89l-2.65.37c-4.56.62-9.07-1.16-10.08-4L244.9,259c-1-2.83,1.86-5.62,6.42-6.24l2.65-.37c4.56-.62,9.07,1.16,10.08,4l3.32,9.26C268.38,268.48,265.51,271.27,261,271.89Z"/><path class="cls-5" d="M234.58,275.51l-2.65.37c-4.56.62-9.07-1.16-10.08-4l-3.32-9.27c-1-2.82,1.86-5.61,6.42-6.24l2.65-.36c4.55-.62,9.07,1.16,10.08,4l3.32,9.26C242,272.09,239.13,274.89,234.58,275.51Z"/><path class="cls-5" d="M205.15,279.55l-2.65.37c-4.55.62-9.07-1.16-10.08-4l-3.32-9.27c-1-2.82,1.87-5.61,6.42-6.24l2.65-.36c4.56-.63,9.07,1.15,10.08,4l3.32,9.27C212.59,276.13,209.71,278.93,205.15,279.55Z"/><path class="cls-5" d="M177.12,283.4l-2.65.36c-4.56.63-9.08-1.15-10.09-4l-3.32-9.27c-1-2.82,1.87-5.61,6.43-6.24l2.65-.36c4.55-.63,9.07,1.15,10.08,4l3.32,9.27C184.55,280,181.67,282.77,177.12,283.4Z"/><path class="cls-5" d="M529.64,234.34l-25.57,3.51c-6.71.92-13.42-1.73-14.9-5.88l-.73-2c-1.49-4.15,2.78-8.3,9.49-9.22l25.57-3.51c6.71-.92,13.41,1.72,14.9,5.87l.73,2C540.62,229.26,536.35,233.41,529.64,234.34Z"/><path class="cls-5" d="M171.08,308.82l-2.65.36c-4.56.63-9.07-1.15-10.08-4L155,295.94c-1-2.82,1.86-5.62,6.42-6.24l2.65-.37c4.55-.62,9.07,1.16,10.08,4l3.32,9.27C178.51,305.4,175.63,308.19,171.08,308.82Z"/><path class="cls-5" d="M200.15,305.42l-2.65.36c-4.56.63-9.07-1.15-10.08-4l-3.32-9.27c-1-2.82,1.86-5.61,6.42-6.24l2.65-.36c4.56-.63,9.07,1.15,10.08,4l3.32,9.27C207.58,302,204.71,304.79,200.15,305.42Z"/><path class="cls-5" d="M226,301.88l-2.65.36c-4.55.63-9.07-1.15-10.08-4L209.91,289c-1-2.82,1.87-5.62,6.42-6.24l2.65-.37c4.56-.62,9.08,1.16,10.09,4l3.32,9.27C233.4,298.46,230.52,301.25,226,301.88Z"/><path class="cls-5" d="M251.22,298.41l-2.64.36c-4.56.63-9.08-1.15-10.09-4l-3.32-9.27c-1-2.82,1.87-5.61,6.43-6.24l2.65-.36c4.55-.63,9.07,1.15,10.08,4l3.32,9.27C258.66,295,255.78,297.78,251.22,298.41Z"/><path d="M126.08,266.41l-6.35.87c-4,.55-8-1-8.84-3.48l-.43-1.21c-.88-2.47,1.65-4.93,5.63-5.47l6.35-.88c4-.54,8,1,8.84,3.49l.43,1.21C132.59,263.4,130.06,265.86,126.08,266.41Z"/><path class="cls-5" d="M141,310.48,115.46,314c-6.71.92-13.41-1.72-14.9-5.87l-.73-2.05c-1.49-4.15,2.78-8.3,9.49-9.22l25.57-3.51c6.71-.92,13.42,1.73,14.9,5.88l.73,2C152,305.41,147.74,309.56,141,310.48Z"/><path class="cls-5" d="M276,294.42l-2.65.36c-4.56.63-9.08-1.15-10.09-4L260,281.54c-1-2.82,1.87-5.62,6.43-6.24l2.65-.37c4.55-.62,9.07,1.16,10.08,4l3.32,9.27C283.44,291,280.56,293.79,276,294.42Z"/><path class="cls-5" d="M300.16,291.1l-2.65.37c-4.56.62-9.07-1.16-10.09-4l-3.32-9.27c-1-2.82,1.87-5.61,6.43-6.24l2.65-.36c4.55-.63,9.07,1.15,10.08,4l3.32,9.27C307.59,287.68,304.71,290.48,300.16,291.1Z"/><path class="cls-5" d="M331.25,286.83l-2.65.37c-4.56.62-9.07-1.16-10.09-4L315.19,274c-1-2.83,1.87-5.62,6.43-6.24l2.65-.37c4.55-.62,9.07,1.16,10.08,4l3.32,9.26C338.68,283.42,335.8,286.21,331.25,286.83Z"/><path class="cls-5" d="M362.59,284.9l-2.65.37c-4.56.62-9.07-1.16-10.08-4L346.54,272c-1-2.82,1.86-5.61,6.42-6.24l2.65-.36c4.56-.63,9.07,1.15,10.08,4l3.32,9.27C370,281.48,367.15,284.28,362.59,284.9Z"/><path class="cls-5" d="M393.4,280.67l-2.65.37c-4.55.62-9.07-1.16-10.08-4l-3.32-9.27c-1-2.82,1.87-5.61,6.42-6.24l2.65-.36c4.56-.62,9.07,1.16,10.08,4l3.32,9.26C400.84,277.25,398,280.05,393.4,280.67Z"/><path class="cls-5" d="M423.38,276.56l-2.65.36c-4.55.63-9.07-1.15-10.08-4l-3.32-9.27c-1-2.82,1.87-5.61,6.42-6.24l2.65-.36c4.56-.63,9.07,1.15,10.08,4l3.32,9.27C430.82,273.14,427.94,275.93,423.38,276.56Z"/><path class="cls-5" d="M451.64,270.9l-2.65.37c-4.55.62-9.07-1.16-10.08-4L435.59,258c-1-2.82,1.87-5.61,6.43-6.24l2.65-.36c4.55-.63,9.07,1.15,10.08,4l3.32,9.27C459.08,267.48,456.2,270.28,451.64,270.9Z"/><path class="cls-5" d="M482.51,268.44l-2.65.37c-4.56.62-9.07-1.16-10.08-4l-3.32-9.26c-1-2.83,1.86-5.62,6.42-6.25l2.65-.36c4.56-.62,9.07,1.16,10.08,4l3.32,9.26C489.94,265,487.07,267.82,482.51,268.44Z"/><path class="cls-5" d="M528,261.32l-10.62,1.45c-6.85.94-13.7-1.76-15.22-6l-.75-2.08c-1.52-4.24,2.85-8.48,9.7-9.42l10.62-1.46c6.85-.94,13.69,1.76,15.21,6l.75,2.09C539.18,256.14,534.82,260.38,528,261.32Z"/><path class="cls-5" d="M150.37,335.92l-25.57,3.51c-6.71.92-13.41-1.72-14.9-5.88l-.73-2c-1.49-4.15,2.78-8.3,9.49-9.22l25.57-3.51c6.71-.92,13.42,1.72,14.9,5.88l.73,2C161.35,330.85,157.08,335,150.37,335.92Z"/><path d="M253.68,335.74l-6.36.88c-4,.54-7.95-1-8.83-3.49l-.44-1.21c-.88-2.46,1.65-4.92,5.63-5.47l6.35-.87c4-.55,8,1,8.84,3.48l.43,1.21C260.19,332.74,257.65,335.2,253.68,335.74Z"/><path d="M194.55,343.86l-6.35.87c-4,.55-8-1-8.84-3.48l-.43-1.22c-.89-2.46,1.65-4.92,5.62-5.46l6.36-.88c4-.54,8,1,8.83,3.49l.44,1.21C201.06,340.85,198.53,343.31,194.55,343.86Z"/><path d="M222.59,340l-6.36.87c-4,.55-7.95-1-8.83-3.48l-.44-1.21c-.88-2.47,1.65-4.93,5.63-5.47l6.35-.87c4-.55,8,1,8.84,3.48l.43,1.21C229.1,337,226.56,339.46,222.59,340Z"/><path d="M284.49,331.51l-6.35.88c-4,.54-8-1-8.84-3.49l-.44-1.21c-.88-2.46,1.66-4.92,5.63-5.47l6.36-.87c4-.55,7.95,1,8.83,3.48l.44,1.21C291,328.51,288.47,331,284.49,331.51Z"/><path class="cls-5" d="M177.41,332.35l-2.65.37c-4.55.62-9.07-1.16-10.08-4l-3.32-9.27c-1-2.82,1.87-5.61,6.42-6.24l2.65-.36c4.56-.63,9.07,1.15,10.08,4l3.32,9.27C184.85,328.93,182,331.73,177.41,332.35Z"/><path class="cls-5" d="M204.62,328.62,202,329c-4.56.63-9.07-1.15-10.09-4l-3.32-9.27c-1-2.82,1.87-5.62,6.43-6.24l2.65-.36c4.55-.63,9.07,1.15,10.08,4l3.32,9.27C212.05,325.2,209.17,328,204.62,328.62Z"/><path class="cls-5" d="M529.35,285.53l-2.65.37c-4.56.62-9.07-1.16-10.08-4l-3.32-9.27c-1-2.82,1.86-5.61,6.42-6.24l2.65-.36c4.55-.63,9.07,1.15,10.08,4l3.32,9.27C536.78,282.11,533.9,284.91,529.35,285.53Z"/><path class="cls-5" d="M499.09,289.68l-2.65.37c-4.56.62-9.07-1.16-10.08-4L483,276.81c-1-2.83,1.86-5.62,6.42-6.24l2.65-.37c4.56-.62,9.07,1.16,10.08,4l3.32,9.26C506.52,286.27,503.65,289.06,499.09,289.68Z"/><path class="cls-5" d="M469.67,293.72l-2.65.37c-4.56.62-9.08-1.16-10.09-4l-3.32-9.27c-1-2.82,1.87-5.61,6.43-6.24l2.65-.36c4.55-.63,9.07,1.15,10.08,4l3.32,9.27C477.1,290.3,474.22,293.1,469.67,293.72Z"/><path class="cls-5" d="M440.24,297.76l-2.65.36c-4.56.63-9.07-1.15-10.08-4l-3.32-9.27c-1-2.82,1.86-5.61,6.42-6.24l2.65-.36c4.56-.63,9.07,1.15,10.08,4l3.32,9.27C447.67,294.34,444.8,297.14,440.24,297.76Z"/><path class="cls-5" d="M409.71,302l-2.65.37c-4.56.62-9.08-1.16-10.09-4l-3.32-9.27c-1-2.82,1.87-5.61,6.43-6.24l2.65-.36c4.55-.63,9.07,1.15,10.08,4l3.32,9.27C417.14,298.53,414.26,301.33,409.71,302Z"/><path class="cls-5" d="M378.89,306.18l-2.65.36c-4.55.63-9.07-1.15-10.08-4l-3.32-9.27c-1-2.82,1.87-5.61,6.42-6.24l2.65-.36c4.56-.63,9.07,1.15,10.09,4l3.32,9.27C386.33,302.76,383.45,305.56,378.89,306.18Z"/><path class="cls-5" d="M347,310.56l-2.65.37c-4.56.62-9.07-1.16-10.08-4l-3.32-9.27c-1-2.82,1.86-5.61,6.42-6.24l2.65-.36c4.56-.63,9.07,1.15,10.08,4l3.32,9.27C354.4,307.14,351.53,309.94,347,310.56Z"/><path class="cls-5" d="M317,314.68l-2.65.36c-4.56.63-9.07-1.15-10.08-4l-3.32-9.27c-1-2.82,1.86-5.62,6.42-6.24l2.65-.37c4.56-.62,9.07,1.16,10.08,4l3.32,9.27C324.42,311.26,321.55,314.05,317,314.68Z"/><path class="cls-5" d="M290.62,318.3l-2.65.36c-4.56.63-9.07-1.15-10.08-4l-3.32-9.26c-1-2.82,1.86-5.62,6.42-6.24l2.65-.37c4.56-.62,9.07,1.16,10.08,4l3.32,9.27C298.05,314.88,295.18,317.67,290.62,318.3Z"/><path class="cls-5" d="M261.2,322.33l-2.65.37c-4.56.62-9.08-1.16-10.09-4l-3.32-9.26c-1-2.83,1.87-5.62,6.43-6.24l2.65-.37c4.55-.62,9.07,1.16,10.08,4l3.32,9.26C268.63,318.92,265.75,321.71,261.2,322.33Z"/><path class="cls-5" d="M233.16,326.18l-2.65.37c-4.56.62-9.07-1.16-10.08-4l-3.32-9.27c-1-2.82,1.86-5.61,6.42-6.24l2.65-.36c4.56-.63,9.07,1.15,10.08,4l3.32,9.27C240.59,322.76,237.72,325.56,233.16,326.18Z"/><path d="M509.87,305.31l-6.35.87c-4,.55-8-1-8.84-3.48l-.44-1.21c-.88-2.46,1.66-4.92,5.63-5.47l6.36-.87c4-.55,7.95,1,8.83,3.48l.44,1.21C516.38,302.3,513.85,304.77,509.87,305.31Z"/><path d="M463.17,312.25l-6.36.87c-4,.55-7.95-1-8.83-3.48l-.44-1.21c-.88-2.47,1.65-4.93,5.63-5.47l6.35-.88c4-.54,8,1,8.84,3.49l.44,1.21C469.68,309.24,467.14,311.7,463.17,312.25Z"/><polygon class="cls-6" points="517.65 0 1.71 50.7 4.79 62.69 520.73 11.99 517.65 0"/><polygon class="cls-6" points="46.24 250.19 35.68 250.91 0 50.53 10.56 49.81 46.24 250.19"/><polygon class="cls-6" points="562.61 177.56 38.66 239.66 42.02 250.52 565.97 188.42 562.61 177.56"/><polygon class="cls-6" points="566.87 189.8 556.88 190.79 508.93 3.84 518.92 2.85 566.87 189.8"/><polygon class="cls-7" points="512.13 13.05 8.74 62.52 11.39 72.85 514.78 23.38 512.13 13.05"/><polygon class="cls-8" points="500.84 354.9 349.1 380.42 317.76 333.64 459.6 314.51 500.84 354.9"/><path class="cls-9" d="M421.58,311.75l-112,15.37c-2.62.36-5.22-.67-5.8-2.29l-1.11-3.09c-.58-1.62,1.07-3.23,3.7-3.59l112-15.37c2.63-.36,5.23.66,5.81,2.29l1.1,3.08C425.86,309.78,424.2,311.39,421.58,311.75Z"/><path class="cls-5" d="M488.25,313.28l-2.65.37c-4.56.62-9.07-1.16-10.08-4l-3.32-9.27c-1-2.82,1.86-5.61,6.42-6.24l2.65-.36c4.56-.63,9.07,1.15,10.08,4l3.32,9.27C495.68,309.86,492.81,312.66,488.25,313.28Z"/></svg>