<svg id="Layer_1" data-name="Layer 1" xmlns="http://www.w3.org/2000/svg" width="2208" height="1224" viewBox="0 0 2208 1224"><defs><style>.cls-1{fill:#4fc1e9;}.cls-2{fill:#3bafda;}.cls-3,.cls-7{fill:#ffce54;}.cls-3{stroke:#ddad28;stroke-miterlimit:10;stroke-width:30px;}.cls-4{fill:#ddad28;}.cls-5{fill:#e6e9ed;}.cls-6{fill:#f5f7fa;}</style></defs><title>Win copy</title><rect class="cls-1" width="2208" height="1224"/><path class="cls-2" d="M2168,1253c2-1,3-4,5-5,3-1,7,1,10,0,2-1,3-4,5-5,6-1,11,2,15-5,1-1,4,1,5,0,6-8,10-3,15-5v-5c3-1,8,1,11,0,0-1-1-4,0-5s4,1,5,0c6-8,13-4,13-5,2-26,6-57-2-81-6-18,0-38-4-56-9-43,0-86-4-127-8-73-7-145-1-218,6-83,1-165,2-248,0-2-3-3-4-5-4-34,2-68-3-101-6-44-1-88-3-132,0-3-4-6-5-10-2-10-2-21-3-30-5.73-62.11-2.34-123.31-2-184.47L2184.25,3.26,1031.12,651.13-14.27,1238.47c55,1.66,109.25-3.94,165.27,3.53,24,3,47-1,71,2a286.78,286.78,0,0,0,31,5c5,0,10,3,15,4,10,1,20-1,30,0,5,1,10,5,15,4,8-2,14,16,21-14,30,0,61-2,91,1,15,1,30,2,46,6,24,5,46,9,70,9,5,0,11,3,16,4,45,1,91-1,136,1,4,0,7,3,11,4a822.51,822.51,0,0,0,86-1c2,0,3-3,5-3,32-2,64,3,96-3,8-1,17-1,25-4,8-4,17-3,26-4,2-1,3-4,5-5,5-1,10,1,15,0,4-1,7-4,10-4,57-2,114-6,172,2,18,2,39-4,55,4,9,4,21,0,31,3,2,1,3,4,5,4,113,2,226,8,340-2,14-2,34,2,51-2,2-1,3-4,5-4q96-3,192,0c2,0,3,3,5,3,95,2,189,0,284,2,3,0,7,3,10,3q11.53.4,23.12.65a4.17,4.17,0,0,0,.88-.65C2156,1250,2161,1255,2168,1253Z"/><polygon class="cls-3" points="1684.62 99.75 1353.59 413.68 1783.27 548.9 1267.75 652.03 1367.4 980.58 969.37 812.5 680.61 1141.92 633.24 801.09 125.22 938.41 456.26 624.48 26.57 489.26 542.1 386.13 442.45 57.57 840.48 225.65 1129.24 -103.77 1176.61 237.07 1684.62 99.75"/><path class="cls-4" d="M360.37,531.81q-11.3.45-13.42-12a29.07,29.07,0,0,1-.36-3.4q-1.08-15.84,31.6-24.68l6.67,18.41c-1.19.19-2.32.38-3.37.57q-12.67,2.32-12.92,5a1.21,1.21,0,0,0,0,.38q.44,2.56,12.52,1,12.54-1.65,15.28,14.4l.13.76q2.56,16.9-33,24.55l-10.58-18.62a122.35,122.35,0,0,0,13.16-1.43q5.85-1.07,6.27-2.6a1.69,1.69,0,0,0,0-.45Q372,531.41,360.37,531.81Z"/><path class="cls-4" d="M423.61,506,421.55,495l16.31-8.4,17.55,45.53-25.61,7.47-3-16.09-11.36.73,1.32,18.14-18.66-4.52-.78-43.57,16.26,0,.81,12.41Z"/><path class="cls-4" d="M467.3,478.49l12.5,50.64-21.65,8.43-8.29-54.35Z"/><path class="cls-4" d="M491.45,474.09l12.49,50.63-21.65,8.44L474,478.8Z"/><path class="cls-4" d="M515.59,469.69l12.5,50.63-21.65,8.43-8.29-54.35Z"/><path class="cls-4" d="M552.25,481.5l6.87,30.13-20.63,9.71-3.09-38-14.54,1.34-1.36-16,42.89-10.59L568,480.35Z"/><path class="cls-4" d="M598.86,509.25,587.43,456.4q50.31-9.18,54.86,17.46T598.86,509.25Zm8.71-40,4.55,14.64.25-.05Q625,481.49,623.75,474T607.57,469.21Z"/><path class="cls-4" d="M642.38,448.77l21.9.42q-2,14.67-.76,22,1.41,8.26,6.9,7.41,8.67-1.65,6.28-15.71a86.5,86.5,0,0,0-4.64-15.79l18.39-9.93a122.35,122.35,0,0,1,4.79,18.34q5.91,34.68-22,40.13-25.74,4.44-30.36-22.71Q641.23,463,642.38,448.77Z"/><path class="cls-4" d="M751.63,420.29l4.56,17.44-21.3,8.11,1.07,2.27,13.45-5.22,5,17.4-12.58,4.61,5.6,14.6-19.26,6.35-12.59-49.27Z"/><path class="cls-4" d="M772.59,422.82l12.49,50.63-21.65,8.44-8.29-54.35Z"/><path class="cls-4" d="M795.58,434.55l6.54-20.78,25.09-.76L811,442.75l21,8.76-15.76,18.61L801.87,457l3.77,10.89-18.46,7.25L778,421.49l13.79-.94Z"/><path class="cls-4" d="M908.53,397.92l11.63,49.59-20,5.49L896,433.28l-9.42,15.13L874,439.15l3.46,15.44-18.34,7.49-6.76-53.85,17.69-5.8,12.16,20.91,6-23.26Z"/><path class="cls-4" d="M941.92,439.06l-1.33,8.5L921.53,445l11.88-51.57L948,389.6l29.38,41.58-17.14,12.65-5.5-9.79Zm6.43-19.74-3.74-7.5-1.31,9.28Z"/><path class="cls-4" d="M995.44,415.36l5.38,15.5-19.07,8.9-12.32-49.55,18.79-7,19.23,18.5-3.39-21.16,24-7,1.38,57.07-15.19,5.2Z"/><path class="cls-4" d="M1081.51,389.77l6,29.51-19.16,9.66-.67-5.78a22.32,22.32,0,0,1-5.78,1.65A25.21,25.21,0,0,1,1042,420.4,25.9,25.9,0,0,1,1031.11,403a26.51,26.51,0,0,1,4.48-20.24,25.79,25.79,0,0,1,17.19-11.17,25.27,25.27,0,0,1,19.87,4.41l-11.85,12.73a9.23,9.23,0,0,0-7.21-1.6,9.37,9.37,0,0,0-6.23,4.05,9.59,9.59,0,0,0-1.63,7.29c.44,3.58,1.77,6.09,4,7.51s4.9,1.74,8.1.92a12.34,12.34,0,0,0,7.15-4.39l-7.24,1.84-.93-8.38Z"/><path class="cls-4" d="M1118.77,352.52l4.77,21.66-21.38,6.4.46,1.86,12.12-3.74,3.12,14.71-11.94,3.45.38,1.84,20.71-5.46,6.9,18.4-44.28,9.68-4.86-55.47Z"/><path class="cls-4" d="M1150.06,353l20.06-2.53,2.59,34.05,15.07-3.38-.67,23-30.36,3.33Z"/><path class="cls-4" d="M1202.55,344.41l12.5,50.64-21.65,8.43-8.29-54.35Z"/><path class="cls-4" d="M1225.54,356.14l6.54-20.77,25.09-.77L1241,364.34l21,8.76-15.76,18.61-14.44-13.1,3.77,10.89-18.46,7.25L1208,343.08l13.79-.94Z"/><path class="cls-4" d="M1294.26,320.51l4.77,21.67-21.38,6.4.46,1.86,12.12-3.74,3.12,14.71-11.95,3.45.39,1.83,20.71-5.45,6.9,18.39-44.28,9.68-4.86-55.46Z"/><path class="cls-4" d="M1314.7,357.78q-11.29.45-13.42-12a31.23,31.23,0,0,1-.37-3.41q-1.07-15.83,31.6-24.67l6.68,18.4-3.37.58q-12.67,2.31-12.92,5a1.21,1.21,0,0,0,0,.38q.43,2.56,12.52,1,12.54-1.65,15.28,14.41l.13.76q2.55,16.9-33,24.55l-10.59-18.62a124.93,124.93,0,0,0,13.17-1.43q5.85-1.06,6.27-2.6a1.69,1.69,0,0,0,0-.45Q1326.3,357.38,1314.7,357.78Z"/><path class="cls-4" d="M1363,369.91a8.73,8.73,0,0,1-6.94-1.6,9.28,9.28,0,0,1-3.82-6.19,9.49,9.49,0,0,1,1.54-7.18,8.9,8.9,0,0,1,6-3.95,8.73,8.73,0,0,1,6.94,1.59,9.31,9.31,0,0,1,3.82,6.2,9.51,9.51,0,0,1-1.54,7.17A8.91,8.91,0,0,1,1363,369.91Z"/><path class="cls-4" d="M1382,366.43a8.73,8.73,0,0,1-6.94-1.59,9.34,9.34,0,0,1-3.82-6.2,9.55,9.55,0,0,1,1.54-7.18,8.93,8.93,0,0,1,6-3.95,8.69,8.69,0,0,1,6.94,1.6,9.26,9.26,0,0,1,3.82,6.19,9.5,9.5,0,0,1-1.54,7.18A8.93,8.93,0,0,1,1382,366.43Z"/><path class="cls-4" d="M692.32,644.41l6,29.51-19.16,9.66-.66-5.78a22.54,22.54,0,0,1-5.79,1.65A25.22,25.22,0,0,1,652.83,675a25.92,25.92,0,0,1-10.9-17.44,26.45,26.45,0,0,1,4.48-20.25,25.82,25.82,0,0,1,17.19-11.17,25.24,25.24,0,0,1,19.86,4.41l-11.84,12.74a9.21,9.21,0,0,0-7.21-1.61,9.33,9.33,0,0,0-6.23,4.06,9.51,9.51,0,0,0-1.63,7.28q.66,5.37,4,7.52c2.21,1.42,4.91,1.73,8.1.91a12.34,12.34,0,0,0,7.15-4.39L668.54,659l-.93-8.39Z"/><path class="cls-4" d="M728.43,669.29a30.82,30.82,0,0,1-22.37-3.94q-10.06-6.18-11.95-17.27t5.52-20.46A31.52,31.52,0,0,1,719.35,616,30.73,30.73,0,0,1,741.68,620q10.07,6.18,12,17.27t-5.52,20.46A31.45,31.45,0,0,1,728.43,669.29ZM730.65,647a9,9,0,0,0,2.05-7.34,8.77,8.77,0,0,0-4.36-6.18,11.43,11.43,0,0,0-8.28-1.42,11.7,11.7,0,0,0-7.34,4.27,9,9,0,0,0-2.06,7.35,8.76,8.76,0,0,0,4.36,6.17,11.46,11.46,0,0,0,8.32,1.42A11.67,11.67,0,0,0,730.65,647Z"/><path class="cls-4" d="M789.72,658.11a30.81,30.81,0,0,1-22.37-3.94q-10.07-6.18-12-17.27t5.53-20.45a31.48,31.48,0,0,1,19.72-11.62A30.74,30.74,0,0,1,803,608.78q10.06,6.18,12,17.27T809.4,646.5A31.36,31.36,0,0,1,789.72,658.11Zm2.22-22.28a9,9,0,0,0,2-7.35,8.73,8.73,0,0,0-4.36-6.17,11.43,11.43,0,0,0-8.28-1.43,11.77,11.77,0,0,0-7.35,4.28,9,9,0,0,0-2,7.34,8.77,8.77,0,0,0,4.36,6.18,11.44,11.44,0,0,0,8.31,1.41A11.65,11.65,0,0,0,791.94,635.83Z"/><path class="cls-4" d="M822.2,652.19l-11.43-52.85q50.33-9.18,54.86,17.46T822.2,652.19Zm8.71-40,4.56,14.63.24,0q12.66-2.31,11.38-9.77T830.91,612.15Z"/><path class="cls-4" d="M910.81,583.82l17.36-6.07a128,128,0,0,1,5.31,19.92q5.43,31.89-18.2,37.54Q894.64,639,889,615.39l17.18-9.67c.13.9.26,1.76.4,2.58q1.82,10.62,5.63,9.92,6.23-2.93,4-16.05A103.63,103.63,0,0,0,910.81,583.82Z"/><path class="cls-4" d="M970.68,625.11a30.77,30.77,0,0,1-22.37-3.94q-10.06-6.18-12-17.26t5.53-20.46a31.38,31.38,0,0,1,19.71-11.61,30.71,30.71,0,0,1,22.34,3.94q10.07,6.18,12,17.27t-5.52,20.46A31.44,31.44,0,0,1,970.68,625.11Zm2.21-22.28a9,9,0,0,0,2.06-7.35,8.78,8.78,0,0,0-4.36-6.17,11.38,11.38,0,0,0-8.28-1.42,11.66,11.66,0,0,0-7.35,4.27,9,9,0,0,0-2.05,7.34,8.76,8.76,0,0,0,4.35,6.18,11.47,11.47,0,0,0,8.32,1.41A11.63,11.63,0,0,0,972.89,602.83Z"/><path class="cls-4" d="M1002.17,619.29l-7-49.24q12.78-8.31,22.17-10,8.66-1.57,14.41,2.49t6.51,8.72q.87,5.07-4.08,10.83,12.82,1.66,14.22,9.86a17.21,17.21,0,0,1-.72,7.64q-3.7,12.59-32.69,17.88Q1009.12,618.5,1002.17,619.29Zm9.86-38.57q8-3.11,7.55-6l0-.11c-.24-1.1-1.26-1.49-3.06-1.16a23.78,23.78,0,0,0-5.64,2.08Zm5.43,21.44q13.38-3,12.8-6.9-.62-3.59-13.08-1.31l-1.48.27Z"/><path class="cls-4" d="M1050.31,585.66l-9.26-33.92,26.18-8.17-2.71,40.51Zm10.53,23a8.86,8.86,0,0,1-7-1.61,9.43,9.43,0,0,1-3.87-6.3,9.62,9.62,0,0,1,1.55-7.29,9,9,0,0,1,6.09-4,8.86,8.86,0,0,1,7,1.61,9.42,9.42,0,0,1,3.88,6.3,9.67,9.67,0,0,1-1.56,7.29A9.07,9.07,0,0,1,1060.84,608.67Z"/><path class="cls-4" d="M1077.11,580.78l-9.25-33.93,26.18-8.17-2.71,40.51Zm10.54,23a8.86,8.86,0,0,1-7.05-1.61,9.46,9.46,0,0,1-3.88-6.3,9.67,9.67,0,0,1,1.56-7.29,9.07,9.07,0,0,1,6.09-4,8.86,8.86,0,0,1,7.05,1.61,9.41,9.41,0,0,1,3.87,6.3,9.62,9.62,0,0,1-1.55,7.29A9.07,9.07,0,0,1,1087.65,603.78Z"/><path class="cls-4" d="M1103.92,575.89,1094.67,542l26.17-8.17-2.7,40.51Zm10.53,23a8.86,8.86,0,0,1-7-1.61,9.41,9.41,0,0,1-3.87-6.3,9.67,9.67,0,0,1,1.56-7.29,9.07,9.07,0,0,1,6.09-4,8.86,8.86,0,0,1,7,1.61,9.45,9.45,0,0,1,3.87,6.3,9.58,9.58,0,0,1-1.56,7.29A9,9,0,0,1,1114.45,598.89Z"/><path class="cls-4" d="M1130.73,571l-9.26-33.92,26.18-8.18-2.7,40.51Zm10.53,23a8.86,8.86,0,0,1-7-1.61,9.41,9.41,0,0,1-3.87-6.3,9.62,9.62,0,0,1,1.55-7.29,9.12,9.12,0,0,1,6.1-4,8.9,8.9,0,0,1,7,1.61,9.45,9.45,0,0,1,3.87,6.3,9.7,9.7,0,0,1-1.56,7.3A9.06,9.06,0,0,1,1141.26,594Z"/><ellipse class="cls-1" cx="813.19" cy="795.48" rx="88.81" ry="91.85"/><path class="cls-5" d="M783.71,790.55l19.22,45.58c.65-3,51-16.25,54.94-18s3.67-6.92,3.67-6.92c.13-3.91-1.22-7-5.43-8.4,3.62-5.09,3.59-8.6,1.54-11.22l-5.95-5.2c3.06-6.67-2-13.58-2-13.58s-9.83-2.14-4.85-1.1,3.27-10.35.55-9.12a62,62,0,0,0-30.83,13.9l-6.28-35c-2-4.5-5.44-6.66-10.84-5.63-7.24,3.27-7.8,10-7.68,10,1.49.94,5.84,28.47-.08,41.46Z"/><polygon class="cls-6" points="805.01 841.67 781.99 852.05 757.17 793.18 780.19 782.8 805.01 841.67"/><path class="cls-7" d="M1414.18,758.92l2.51,9.24-19,3.77-3.3-44.75a122.82,122.82,0,0,1,19.33-1.77q25.63,0,27.36,16.56,0,16.95-26.63,16.95Zm-4.38-19,1.21,4.19q14.19,0,14.19-3a2,2,0,0,0,0-.31q-.45-1.9-5.46-1.91A62.43,62.43,0,0,0,1409.8,739.91Z"/><path class="cls-7" d="M1443,724.36l18,.95-2.82,29.33,13.74-.54-4,19.42-27.17-1.87Z"/><path class="cls-7" d="M1489.75,765.24l-2.44,7L1471,767.08l18.16-42,13.36-1L1522.06,764l-17,8.09-3.36-9.17Zm8.6-15.78-2.16-7-2.53,7.68Z"/><path class="cls-7" d="M1524.7,752l-15.46-15.58,14.5-11.84,8.26,12.06,6.79-14.92,19.29,6.6-18.4,23.62,1.42,18.76-17.86-2.42Z"/><path class="cls-7" d="M1597.57,765.24l-2.45,7-16.34-5.17,18.15-42,13.36-1L1629.88,764l-17,8.09-3.37-9.17Zm8.6-15.78-2.16-7-2.54,7.68Z"/><path class="cls-7" d="M1672.28,745l.82,26-18.28,5.24.29-5a21.08,21.08,0,0,1-5.33.5,23.12,23.12,0,0,1-16.78-6.82,23.05,23.05,0,0,1,0-33,24.07,24.07,0,0,1,33.57,0l-12.32,9a8.73,8.73,0,0,0-12.17,0,8,8,0,0,0-2.52,5.94q-.22,4.66,2.36,7a9.07,9.07,0,0,0,7,2,11.13,11.13,0,0,0,6.94-2.62l-6.63.44.44-7.27Z"/><path class="cls-7" d="M1693.48,765.24l-2.44,7-16.35-5.17,18.15-42,13.37-1L1725.79,764l-17,8.09-3.36-9.17Zm8.6-15.78-2.16-7-2.54,7.68Z"/><path class="cls-7" d="M1744.26,725.22l3.4,44.94L1727.38,774l.85-47.45Z"/><path class="cls-7" d="M1765.72,753.4l2.41,14L1750,772l-3.4-44,17.55-3,14.13,18.7.19-18.51,22.09-2.25-7.34,48.69-14.12,2.06Z"/><path class="cls-7" d="M1804.18,771.71a8.3,8.3,0,1,1,5.86-2.43A8,8,0,0,1,1804.18,771.71Z"/><path class="cls-7" d="M1821.45,771.71a8.3,8.3,0,1,1,5.85-2.43A8,8,0,0,1,1821.45,771.71Z"/></svg>